<mxfile host="app.diagrams.net" agent="Mozilla/5.0 (Windows NT 10.0; Win64; x64) AppleWebKit/537.36 (KHTML, like Gecko) Chrome/128.0.0.0 Safari/537.36" version="24.7.13">
  <diagram name="PÃ¡gina-1" id="yDGgK0RWS8UlIuVInt6F">
    <mxGraphModel dx="1244" dy="473" grid="1" gridSize="10" guides="1" tooltips="1" connect="1" arrows="1" fold="1" page="1" pageScale="1" pageWidth="827" pageHeight="1169" math="0" shadow="0">
      <root>
        <mxCell id="0" />
        <mxCell id="1" parent="0" />
        <mxCell id="-NnZnZEouSl-1zQLcLan-1" value="" style="shape=image;verticalLabelPosition=bottom;labelBackgroundColor=default;verticalAlign=top;aspect=fixed;imageAspect=0;image=data:image/png,iVBORw0KGgoAAAANSUhEUgAAAWYAAAGXCAYAAACA6PqqAAAAAXNSR0IArs4c6QAAAARnQU1BAACxjwv8YQUAAAAJcEhZcwAADsMAAA7DAcdvqGQAAP+lSURBVHhe7P0H1G/bVdf/P/ecW1PoLYQmdgQRpEgTAoiASE3oiCDKX/RnAiQhyQ9+3qFDYchw2EFAES5NEqR3BKRIEVQQu6IE0glpt9fz36/9nPfNdPv9PuW0e0/u+Zyxzt57rbnmnGuuueZae+393c91d/z2S84dLLjuuusO7r///oMzZ84cPPjggwcPPPDAwU033bTmO7/5llsOHlyODz30EPIV0YL8G2644eC+++4/OLeQXH/99Qdnlut777prLX/c4x53cM899xzccNP1Bw+dr7MwPzh79uzBwblzK59zy/W582V440G2MvLvu+++g7NL/lpnwUNLPbwO5d63sFmuFz1uWWjvuOOOtT795XesriO+5NADnxuX9uKDn7Yqx+PBB88dPHD/AyttdrlhSXfefvvCaeF5/ZlVLv7o8bl7aTeZeClTV7m6dIMz18k7pDmz6HPnkq88fc8sqpKn7sNtXnjpJ3XQ3XjjjQf3Ljqjv24pJ//ee+99uEx7lFVX+fXZa7nWDqX33H33wQ0L/U1Luns5R6e/wDl+6RB/+WwNDy687lvyF60Pbr75llVHNNlF3TNnFh3PXrfWY1/5bIwfHZ/wxCeuOqGVd+PNNx/cvxzvvPPOtf/PXL/IX+jUOUu/RU9tXG1yz70HNy9tyc6O8tc+WGjYFt/Vj87Lk9iBPsmsrWQ87vGPX/pxscv1N672Vq6f+Ip+et3rXre09eaD6xZZoM/xwfewz5bx8dADa93VrxY97lra4njLMh7uXs5BHXLZDMhfoS3nZd2++FptTXe+gRZ/18pnfkme9gCaBx9Y/PHsYR/gpz6ffOM3fuO17+mOjj7Ks+khFls/cP+qsz5gC2WHNAcLr5vWMaoe/zHuk33vA/ce3P/gEksWm7EjPdn4ta9+9epHZx48jEH0VZ8OeJDFvwhwrr662Wu13cKbnVZ98V7K+M+9S3uygSOaB+iznKPN7vRH46ivyEF/440Lz2X8u0bHBx6/+OmD52Ubo+jJ5Lt4VHcJaMv5oT+R5cgWZB768GG/KEt3vG7iU3e+8qXnCGQYnVInSjqMooTeuxhIwFGu0QyuMxmPIoIk2vvvXTrt+hsO7j/fOAa9YVGEMxJ85523L8LvPXijN3qj1ej44aHsrsWxn7g0mnIZKWd2vvLToOXoWueg02BtqMHy6C4AKaMvWTctbeTo6pLXUUfdshgjJ5DnGP/rz9640nJN7TKoOCQ9r7/h+sWoNxzcY7Av5eSjXTvtvI4Se+VItcEkdvbMYptFT7zYF196L4IXfoeddt1Cy8G0b9VjaZP69DG4BAb1HNcy1+fbR2b81Qf6rI5w3jZoOTua6qF1zrkfWug5JD74668zS/ldS//Lww/oc/NNt6yTmLpSfaP9y0y0lC3BbeGvnnzl9Vl9yRfJy5b4sPn9Dz142J5FvqBMx9Vuy/VZ9RcF4ql9+lOwV1/f4G9ZwQfk4Y+HpJ6kHtuz66EPLLotk43zbF/b0D9+CSx0wKvFh/PVLksQWqqsPLVn9aVFFnvh59yYW/U7XybYrXZY8shTzh7krv295GtrwYcsvOhsjJKrL+mx1jmvLx61+aYbl4B17xJMFv5kksfH7tvUqc3q8E3y7l/6j89rj3axAbrG8NJFa76xvPrJ+fpsdPbGxWeXjpAnkcsWjvcvY+GJj3viw5ObhB/EC11tpYu8w/p871BfNlon7EUHk7F4gg89V5lLAnZCp1wc41NLw1d+2W/lty4yF9rlmnwy2Qef++7ne8uYXPLJ1WfaWv/etIyFe+5e+kSd82XGNt31682Pu+ngxuVaPh3x16+r7Z/3rC++ldJrAxdhGBgEhGOOwfXLUUPWIMAKC1ROyXXQL+WClhnmumUlqA6egvLaKcs1x2HCG5aOZSQ84WFllmNylTvnAOQox08j1GMI10AnqWvOpv7a4CU5rs6yBHh8WiWqw2gMRZY2rDot+exA7jqQrJbptuQ97glPWAMVZ1mdfeF9z733rOfpkL4FDbrI1650cdShbOVcGVmrHss5WxkA6tFPOd3YAw0d9Qf+nEabnK99oH1LOaz2XPiipQfgQz96rE6z0GSX1cmWazT01+Y1YC3tSw/XfIU98cB37YPleO6hQ3kr/6UOWvrQV0C8+ZYl0C9la9+cp+EjoP3yGkRrP7OH8qU57gyyY+0myypf+9gN/ToJLEAnAb4SxEOiR9eVa3OB7+yySr/lcY9f+5le5JEhQW2V8KE33djjppuWwX7YDQ/7ATqy8CIbHza8edFZG8ghF62ylc8SKF732teudwRNwFb9ytlmHX9stIAO8gUXsh6/LICWjNVv5DmeWZZ56xhd6vB5vFa5S93V/xfUF2t7FrmCGFy3TK7ywWpXv2rboZ8s7V/vApfJ9nxdSTvx026T1epXC0268oEHl/wH7zuML9rHj9HRBw92Xm2yyF3HzXLOTvEWmFe9yF7y6gM8sje/WGUudCZU/lIAtphBm85w6IeHtsILz7UN7LTIPIx3r19xa4tz+ri+aYmFi6IP68SnuAN7Wghev9xp6w+88ZTQ0uXhrQyB5i3f4Xc7vYZruIbHMASYLQSPi8EunoDvUWVXCpejzfvwupe9ZD0u4Xo9kiOQm1gEcIu8M1bEIrWV4NUIBt2mqxG72iFdwyOLa/1xDZca847BCry7AnnOreKX68P9M8vya7iGa7gGK7htuljs4ik9FnHTLTcenDl7fht1WSEL1LZA1i2hJTiLyWfaG11yzle7hmu4hmu4hssFz4/OnfOg9PA5EwjGVtAC9PngfLi3YcP6SqL9FEo4d9wF+bvSNVzDpQBf4oel9QHSNVzDZYSHsB66eqgL/E5Avn8JzPxxfXgoSueUVxr7AmzBd1/5NVzDpYRBwf89IX8kxsE1HI0ZD94Q4gJ/W1fH57ePbWnYxlhfK14C9hqYe53k0bbfc9KOmPtVpasRu9ohXcPlh1WygeJo0Exc64/Lj62NS+GkseBqwY23HP7ISVt6vsf3pLXdS1q3MqwSHm23cJSm07ZDOoZZvi9dw6MHu/qnNLGrfF+a9PN8pqPA/72d9NrXvvaKjIPT6ncNb1jwO4jHP+EJaxC2IFi3kxcf6G5tfZ+6SN2L5VcKlDJbdL4FJdtm6RZT2uXQu/J2YUt3FO01XB6w+Xobd/52Tt+2ldCqtQm5Y+czxYcTS/Lyl8kn2qPg1vF//+//ffDLv/zL53Ou4Q0dW586zkcuJfyQizx7zHx1fV1uiYF+aLT69TIernv1S154ToYB8iZPeofzVR9ZGKj0YTCzSUF8XfYvZQbSaSaSAv8u4++aFK7h8kGf1re/8zu/s/6wyTca/DS2vu4YvdQkDvoxX0CHB5/g5H7R5dirRxJ+rndBOf5N+vhMWZcD5GxxzQ/3Q/9MsNXF2qs+6Bi/K9EPr3npby1yDt/EqG30qF3yrrvzd152zh4Hh3z8WzxpJXqkQbHf/u3fPvhX/+pfHbzkJS85eNM3fdNV8bd4i7c4+OAP/uD1p5UatQ9b43Z9OTr4Gk4HAdCWwc/+7M+uSb96Sv0pn/IpB7/7dx/+8rQgq48d1RFY9ZVz/agsXj/yIz9y8OQnP3n9qNCHfMiHrP6BFp0gi99JAnMB+VpgfnThctgLT75lcoceul2JfnjNS160ro59eInf8WVy6ZA+Z5/7zC+8VaGCGx/3xDUTrqSjbA3f9cte9rKDX/iFXzj4yI/8yHUP8Ju+6ZsO3u/93u/gTd7kTVYaOhpUkmtHmMfaFp1rtNukkxyVB/SV43ElbfKGjP/xP/7HwTd8wzccPO1pTzv4sA/7sHUSlqx2X/rSl64/Sf13/+7frQPll37plw5+9Ed/9OAVr3jF2u//8T/+x4P//t//+xo8f/7nf349f+ELX3jwbu/2bms/PeEJTzj48R//8YP/9J/+0+rwb/VWb7XKxGsf1JsT/Ty/EOC3xa68cFTZ1uf20fLVrY+iLcGuMqgu7KKdUL6Pzy7s43Ma4LFNlwLpjl9B+VLxPgp3v+61B4vkgxtvOvxOz7poWOQ6BzqdffYXPv1WBX6BcvMT3mgtgCuh4D4URH/xF39xXRH9qT/1p1bD/dqv/drBB37gB67B0/lv/MZvrAPxv/23/7aulgRyt8nODVq3yr5i9+pXv/rg3//7f3/wn//zf15vm9U3wM1Qr3rVqw7+63/9r+sqy17l//pf/+vg3/7bf3vwohe96ODN3/zNV32a0R5Jm7yhgO31q0D8sR/7sWsgXrfRlqDr05b68p3e6Z0Ovvd7v3fNE6D1oT5y/a3f+q3rakO//eZv/ubD/f+kJz1p7Tt9ipb//If/8B8O3vd933ftt6O2vurbmU4Lg0nbyA2Tj3JlBYPyOofqq1fZlnbyRKtONNt6Mynbpc/MA3n5O0weZEETVzwc5zXEe8v/0QT6akvtme2+HMhOB/fftwRhC8HF1ssCg137eJhzi47l+rr1e7dL7mGlRwHopGNf+cpXHrzd273dwWte85o1WL7zO7/zGjx/5md+Zh2U3/d933fwK7/yKwff+Z3fuZ5bKf36r//6+hBHmwRfdD/8wz+8bokY5M6tpgzwf/Nv/s3BT/7kTx58zdd8zRoUyMD7v/yX/7LSnf/N+v/h/NdwcdC3HM/RXQob6yN91mB2O6fMtaOJ1acZnb/DO7zDwR//43989Yn3fM/3PHjKU55y8Lt+1+9aJ+5uA/EwsaqXvH1Qvk0XChMMHfhLASoUtJRpB7poe4Apv2u0s47keuuH1Yl20iubfEJ8yKGDc/STZiJ9Ae1E/KfMqdOjGZeq308DNuEn5DlfpS5HdhRrfC8cloB9+PFw39d9JEHJOpKSnMZq2YCzwrKifepTn3rwW7/1W2swtpp9l3d5l3Vf0gpKnU/8xE9cV1dufznGe7/3e68rMitne48GsGD/9m//9usKyvaIYC/4oxeY/+gf/aPrqtp+dp9OpFez6nGoHdt0DYfgkFbEAvKv/uqvriteeSZSfS0Ae0NCP1kVCwh/5I/8kXWbQ3/xA1sdVs9WyPxB/7IxP7Ba1nd8Az9+dKXs3wQwA2Kp6wJAQRwtyOeDMygr6yNjriF+XasjTf9UXx0ylLme+gB57pTprC/IRTv5b+n1UbqU6GdR0yRjwkS3lSlNzPx96XJDm2Y6KS5WVzafvqLvCtYP/0R7ddzFgPsejjxSMECtet7rvd7r4E//6T+9Jrer//N//s91wL31W7/1wUd8xEesT/M5h9WTPEmwtTf9L//lv1z3MwVY4DACt60Odf7wH/7D6+A26OUxkHIrbUFcACDrNJ12DcfjHd/xHddJ1Cr5h37oh1Y7f8AHfMC6GjbAbUEIxvpR/9pH1kdQv9ii4CPugt7mbd5mfUCszKTLb0zI6gruAsSVAD8xSXzd133dutVWYHLMh9wd2Max1cb3KkNna+4nfuIn1nN56H7qp35qXfmzS/zAubH70z/90+sdYEEVHF/+8pevd3+CbmXxkAQE+d5oYW93j8rJFSSiQ0OOdrkrZdfKJFuEvWZIX1tQ2oGP8YQmWen3aAEdZ7pSuP78hCi2ZJc11iyLRf2x6uMvmCxnqwGf8Ai9lUExiUL04Ew6+5/8k39y8PSnP/3g9/2+37cqzmG+6qu+am2UvWYwoXzXd33Xwed8zuccvNmbvdk6UAvWgrKGcmz71Hga0FZZAvxnfMZnHPzjf/yP19WXAc1BTQQeNuEv8ONvdc3JTtJ5+5zvSnb8oxn610DnlPoI2Jh95sqhCbFgoUwCR3ZWHx2gkYCzoyFL37lucr5coI+J313Xl3/5l68LiU//9E9f9ReotNldnm03Cwz+ZoUvzxslVpqekZhI+KBzEwyf/eRP/uS1rVamJiEPNG3NmZgsPt7jPd5j3d7Rfnnk8XF775/1WZ+18iL/bd/2bde7Q3ahF1noBFe6/Ik/8SfWyUJ/uOMQUI0TY4iOJhVjka7pQp4+c5diglBmksWD/vpHG8mVVx/uGycT9eflwMWM0111T1pPuudVr1x98vobzqy2ZZP8nc39RPvsl3zRM251ocLNT3jj8yweGVCM0+h0MzilBVmO3CtQtjcEXI7FudHS34pZA612BVjB+4/9sT+21pfH8f7gH/yD69YHR7VdwVE5Mf6cx6qA4+WIVnYB75MYfx8upu4bGtiCvwmaBWVg41YS0bjOcaMJBV0T+aSpvrrVn/UuFwQp226///f//vUtEls2tmt+8Ad/cPVZfufY1psFgzs7K33PNPi2VSef/rEf+7F1dSoA/97f+3vXOwurYPwFxBe84AWrDKti8v7QH/pDaz2LCsGcLNtBAqbXCT17MQ7cibAN3t/xHd+x3o0YAxY1grSVvIBuIpD/cz/3c+v2kIDrrpKttcdYEXjZlxxjroWQRJ5JA72H7trQttVJcRraS4ULlXmaevfc8dol+PqLT/cf+Isv199gt0J9D6m9qfHAwXWvevFvnMNUeuO3efu14pVGMwkdOjcLO3Jgqx1lzuUJxNAANDgbgFYG6hq05TVw8VFfUHdEgyceaJugoLrBubzjUP0tyLhUuBIyLhfqwwl6S5WxtWPtiX6WlfS3ACeQGPj6VD9Lk9Y5fs6nvGRM7MrbBbyCcwHtq7/6q9dJ3Urzoz7qo9YAaEvmXd/1XR8OxMrto5v4bXkIWlajVqmu6f4H/sAfWFfGArDVt8DHjwVLCw6Bz0raQ2y8P/qjP3pd7XqlVL4galvEFg9dLD7Uec5znrOuXgXvH/iBHzh4xjOesW6XoH/xi1+8bhmxiztU8qx+0Vtdo6OX7ROTg8WNu00B2t2CVx+NPZOFCcHWlLZ/7dd+7cHnf/7nrxOVfshex6F+2EV70j7ah33yT8L3KH1Oousdv/2Sw5h15nBhoZzN+a764tMZK1EXCh5JpLyOEwA5hsRRBGB5FLfC6gGQ6wZiNPI5i3ry0ds3NmjRSPFV1+oFjXz0yqoXvZRDXcPFQT+z5Uzbvo9mS6tsXivXf2/5lm+5Jj5s9SYJKoI2xwdlJl7XzvP5ORmfdgxUzxFfK0O+6Z1qQdZqNFkCm6CKzsADulvt+qGNIM3v0PNLq84eolnJCvACNV/ULnA0IbGDdihjI3XV48PuGK3I8fdMhX+jVUeySk8f8j2jQcue9MbfpGEiEXTxterG19aFVTo5eNAXvXZpA/70wRey12Md/h4im7GPo1fm2Em/sC+cfcZf/ou3uuDotzzxTdbMK42cRAoz79GSToJd9aQrgSsl52KwtctxaVunayhAc2oObvJtoSHgWAXm2+rId5RXcHKc5Z2fBPEDPG0/WL3+yT/5J9fAZgVrtSlg2w4QOAVGQc5iAY3tOCtZP5wSzGwZ2GITrOVrl+03byLZKrHqFsxtcdgmERgFXMHUYsO1h3RW7/h7ywid4C5AelMJHTvRz554q3ULmvaJe1vJG062KKyQ2deWn1W9QGz7g/4tgjzfIQcveZI6tmDorM3se1Ic1Q8n7aN9UH9XulAcVXdbds/tr1kXDv5wtUkU+I+/6L5OXfzqlb/1v86tM9pisMe/2VuvRNfw6Ma+lcfFONbVBjaYduha4uSSQCbIOHdLLxi1GhWMBBnBZV21LP5vNSt4ntSO+KIlU4C37yrwktMKkjxHEKTQGpRWlcmy8nXtXJl8EwtauuHpGugpj2yrU2NXwFOH/uqbkExWeFrZqiu/O0c86Ks+W6iLjzpolQvSZAj09BBkXQN9rZ61Ux16KyPDOX1d46v95GR79IDnccALdtFW9kjgKH1OouvrXn74UPTcQ4d3hGzlB37rX3pfbOQvnKyBWUer/IS3fNvzVa/h0Yx9Tv1IOuuVBhvsGwRtV4AAJGAUoAUHgcWKUtCyD+r2vWBnwAS8jrIpeuX0cC4YOxd8XBt0QJ8QzwakOmRGK4/O9FQvXlB708k1vQM6eclLztQnuWTEZxfQ4VXCA9/0lDfhGl88s6E816XkV3Yc0m8XbWWnwVF8TiPjYvm85qW/ufbvwbnDCdI52+nLfGj9upwMF4+Wjxhdw9HY1flwIc56tWKfDcIMhuBaQPa2gm9rWE1nL1sHtgtaARbIlAsk++w6dXCuzj5s9cWzOskBeXSdefuAFt3UT14JbwNduVUsCARHtSlUjs8+JMORzXbxnHnkznYeh6N02CVrH8+T8DmpDLhYPne+8qWLL95/cMP1h+8z6293FQK0tPbPa1/x4nN3n7/lerMnv9P5qtdwDVc35gBxzvklr6PZ8y1AgXPB2erZrf66mlmgnoET3VHYNSBPgurtGtj7AkNAu5VL1/J7OGi7QrtMPKCsCeg47JIRZv4+Xbe2O65Nu7BL/i4+u3RFF+1RfE4q4zichM/tS2A+tMriW0vZvUs/oUDHXu7wzpxbnLX9rmu4vMhxtulSYctzex1m/mlT2JW/Kw+211cCnHymYKXM1yWBC6z6vPXgAZu9Z8EMZr3jsJW3TdMuM20x64SZd1yavLVRMHb0Kpw9cGiVPmm3afIULHalgjv+TWDbNPlIE7vk7kpbHEezK28fJm3nu67Lg23+LDsJ/AUTe8n+SraaPV+wcPCXTPTZdbf/9kvW95htPL/RW7/dYc1ruCzY14Fbhz0tdCjeW+dP3r78oxxKmWRwQYM5PpVv88KsW35HA3li6napMHWhOxuBYOzcwysPuqwmBWvoQZc3DXp9rYBzsaDDxGzz1BW29thnn229CWW1mWxttY1jP91DwLk3jf/FyNxHexTwmby2fKfNt2Xbuk0AM98xHuk364Ty0LCXY/Tx7HzrzydF/IL3mG1lnD17uLeMn/h74xKgraDvWXzzuttf8eJzBLqduxaYLy/2dei2406LAnPHo25RlU95zrtWttWxMg4kuZ6DJihrgEByJL7lGA8BLzqY55cKZAYyZ7vYJ93ko0VjpSz1BoMfUJhEdrX3tChIwtbGIZ1Kx2EXn+opm+XaaOIRnL0PrW31V3WmzH3yj5J5GuDDJnRwbuJw7K0RSL/8esqxd94PyST9pLy+jr46HeWHyQ/qo+q3gIjPLh5bbMvU2fqPtzLoeeaMX//dt44H19ehW+rfb7wIzFYRGLzp277+J8jXcOmxr0Pr8AuFTjXwBBQoME9nAnQ5OWwHZvnzeuq8Os/5ssk3OgmNYzo4R2vwlOd81t867qWAgRvolO5SgXli6h/QXKrAPCcKcibSjZxtnxyFLR/YV0+/s4mJx+t77TmzRX006+5r82lkHgV8CoRs823f9m3r9cd93Metr+bRtVv8bDd19L70v/gX/2L99s37vM/7rD6FZ7YE19t2xCP52Tz7uHvybrfnDX6RiXaOJ1BXmqgM5jne1Q/3vPaVB7cvE9EtNz/+4KZbbjm4z7hd6pBv5exrn9cty+pzZh6C3vztftf5qpcf24bBbPgWs7FXK3a1C/a1LXpHCd3W8SS/dPOmgf1RjrUNfBxbPc5nEnYd786lyp2r71o91xxMkOJknvAbNA3qytHzJQ6mnnJ86GMFytn9aMFPc+WpA47oAf3U/UJBh9BK2IBPrkQO3Wuja+dswg5u92un/HTrPFS39oTJl23meTqUbzVLHh2z23FQb4t99ehSfzaBk88e5E3d8U2/LU4j8yjgI9GHz/yjf/SP1kDoQ0rJpZsyNHQEdcjTn7fddtv6w5UP+qAPWmnRQfVdo5VqU/rL08/1rXw+86//9b9eV+9+9u5n7OqgVVa/sKOUTlDZlCPJb+Wd7N950f9e/erBBw4/C4GmMbPSkvmal/7mOQpieiXfykjJCTrAUWVXM3a1C/a1LXrHAqZO118e5HgX1898dapbU7/O6lOZOYkU/xwwx8mRgaNt9UAzoV4O6RyiKcBDcgC9QGAvtwlEOaf3Kzk6c1L05F+qFWqBWcDzASCTlm9I+E4F/clrYJKbvejm59PPf/7zVzuqI2CiUyZFS1fXUN48QvTgqL98zU1AsaXg2nclBATB5tM+7dPWvqzOUSBni3310h3Uk/SJIGTSFCBcmxhq78S2vydOousW8aET3/6H//Afrh9i0j/sw7Z850M/9ENXG9mCce1XjnxcHatsvtWnfv1gyB+58AMbPxu3qtYuduZ3fvVoUeEXlb49Qm/1+Eq/TvThJfb3+iSfYQcLCvL86vL3/J7fs+rCR+iLP335konFQ1Z0nlO8//u//+pDW3++63detspc1uLrQ8BFkfUtDTzkr/Z/zjO/8FafmYNHw9fl9uFCOv9qwUnaxpE5scHrZ7L+UC1n8clHs7ufwXIGv3AzuOxbSRzRLatzx1L5aN3WljiSNM9nkq9OdUvKDPAS5y75dZ0AzMENBANJkPYFQUeBqVWF46Xoa4MYDAqvx5kIDNYCLNsVqAwGgwLUYysTHz0MNmD/gj0adaXkxIs8tPhZ7YF60fpaGxjgvvbGBr5oKMB4M4SO+uYkNkCzTftQIIzGNVvwJ33AHj52RG99rAyNdBzvo8pOArbxVTtBmTz+LUj6eThf8pNy/eBn7X6K/u7v/u4rnZ+AC4x8Rhn/F2AFZ3lejezn74KlOzV9i9YHmdy99eVJQdjEpB+MIe23paGOIwj0grKJgg/zbQFeEDcpOOfLfE2Al8/3s1/pntv9ARB3tWcOzvKXpf3aI0jTm7+cfc4Xf9GtCBbzHtz0hNf/MdZHAkd18FFlVztqm86Z6NpR8hWv7//+71/3CH0v2pe/rAYEyQJas7PzmeQ74rMtm/RbzHwDaNLEcxeqJxW0nAs6HFowEqj75rDBwbkNtIl9/I+DIKiugOPOwgARdL792799XeH4FoV3l306058Xk4fWgNMuqyp6GbDO2VkQtfrG28pIkDWA/UmzJj6D2xfkfGoTjV8c6jNBV7t9MlNb9Zcgo752k20yEJjxutB278Psd9BGsvWH4MxGdBfABGZtif44XfaV578Tkza/5h9sLbCyhYnC6pbt6Uc3q092p587LXUEbkFQMBQw8fL9D23TBnT6Tr/bi0aHRp+Q4a8a6Xu0viniy3lW1oKx4EyWMdaeMx4mVIHTB6r4juSjVYK8YE9/iySLAR+P4jeNE4n8+5fxK29p/dLvy+S9mGS5XPrhzoP7H7BivuHgzIMPLoNt+Xfuof/biNfwyEDncSaDtdUchzHYOYDPQHIiTuu2Rycb6JLzbZpwnZPsS9VzHpwbyJVJYdaVqluqnmPlwIk/+IM/eB0UBqbgaMViAEoF9AtBOpbKM5BMCvTwcR6DycCyWvOZTPLpKRnIaA1uq98mQIOS3U0q8gVS35YQcPWTFZmPElkxKRM8rMzcYlu99XEgPARDK9X6Tt9fDsz+kNiWjfkYvfgY8LcmFLqgvVyordPfBVgBkU6uPTMROE2k+s6DPnZmNzqyP7upY4VsxawPbdGYjPWjNvE1bSm424ogQ/A2AfAFk6f6+lDfOsfHq5NW5/rQClw9/uL77u4ETdY+dSpomyzczXYHm+9po3To00sfLPkPPsjmPnF8z5p/ePdpQjw4OHvrl/6/t/qz2bYzbnjc4Z/vuRKYTlIKR5W9IWJX+3RUHenWyepMZ/vrFjrQQC7gAR7O4zV5Oj9NCrvKLiRNXnQs8GmDQWZVIbD5gQc4D+guBIcD4HBAGHRk+dqaoGMw9rDNQLIqUq5MkBZM2dyAdkvt1piOBqYVvSCiHwxcdP5IgxWVtlmxmWSsxvSTvWN10AryVskGrOBNjgnWALdqtWJ2m345Vsxb0JVt2EEQEujkSXSRrBr1z+xH6HqbfxJEX6Aijz2tSvUHW/BzkxfbWHWauNnfdobgh4d6bC4JnCZB9CZEfYOW3fUhHibHxouA3fMN9sbTKlmwxcd2G3n6ix504gfKyOpZjjx18SbDnnP18W9LSNJWkwJ97rvzjvVTn5mOjeVD9j/7rGc8fd1jRnMlA/M1vB67nFtHCi5WBVZyBrMAoBN1njSdfIstz10yrhS2+qWLY+eCcfuJYGC0irwQGAR4k22F64iXT1YK0FY9BoPBYzVk5WUAGujO/aUQt7sGbEEUH3vp8j2EIkOg9VaA1XTtNBFIBqSgRw+rNHIFeVsaBrggrszg7/bagL4SgRnIEAzZnkz2EBTAec8Opq/BxehWXbbKXo58XV/wc4GPPmS7K2RbwZTd8gnjwCpYHXnagB6tOvT3V2Fs++krbSFHnzjna+gEb0d82MK1FB/5zpNFr3wVHX7k0oc/tPeMl7Lpv7Xz3H33Htyw6Hzf/Ydvw0WDXrn2XPfal774nAy3DW/65Iv7CyaESCfpuEmjzi5cjAM8GnFcO5W30rOK4FT2wHSylQBnqBO3gyXbg/wpa9Lu0uEkdp710KdnUH6cnF3QTrzU49j2EwXKpzzlKesKhvNPnERXwIsOBqi/s2c16u8+NgDl09cgEDQNPmXx7/beoGt1rT8KYAaifURjxwqNnmSqI8i6Ve72mRzjC/AQGAxegZiOeJp8XX/2Z3/2ulJV76RtPQlmfziX8K8f6W7bwMpeYi/+ZrISbAoy6B1DfPGKZ3pPmVsomz5Efry3/Ml2lJ+caNnV+ZTpHD8P6/QfexdE9aNyddCU3DEoA7TK8ZJHjrrJSLZ6+ps/SPK3fZfeAc0dr3jZ+iu/Bx54/V9pwh8//ri24XUve8m5s6L30sA3edKTz1e/MCQkxVxPpGT5juXVkIldeVcztvYI2UrSOexh1ebW2eD/yI/8yHWQ6zSIT/bJQbKjcsf6gqNFu0uHyrbY0sYXyOzasXMypRlQ5U8Z8zqH7qgdHrJpvz8wKlhO/3B+EuCTLrYbBFerXwExGwe6JwP9hLICAx31AV4e8NmT/PAP//D1VlZ9NBOznfF1nbyAn362QnP7bJI4qp3xPApbXSYqSxe6sYl2spsAbT/X3YAJyBZBi4J0nzzSR96u64lZFg/YXtMlbHkAneXT1z6wvd/uRAAvZWicOwqy8dVeSZ/yj/ngFY19an3iWcDHfMzHrHzTg+x0xcNdhqM8EwHf3+UPIG9ZDK9+9NC5Qx/1I5OlYPV5K2l6n/2SL/6iWymC8IZbDr8+dSmgERIFtw3qKEUXzcSuvDdEzHbWoQaH22n7Vfat0OinaGednEIdDzKsADmrlRtn5GxH2fKosonoyILkgqN+bfKY/b6F/Mo6Vxc/Ts25TUqCgQkJbzRH8dwCP/Tg1lPwFPjydck5GsfOpcok2NKwKb3sY9pycU0e3bd84zmvJy9J/7g7sDJtUE9s23xSG+yD+rt4pk/tkwQJAcOqU/+U0NVn6jpHC/qrNOVs5e673qaJ+CYbrHb9YVn+b5+3dqRb/a2ePEfl+kAA9tDZ63pePW2rED1aD/XseevnXTppcxOApD6+k7YEjg/ec/ei/zIRXn/oBz5mtOo7+Jx93rOfdasMyl6K1+VSIOM5lpRphBWC4OE8B4Xqhu31GypqZ/biEB5KsZHXhprFs9MuqGuV85Vf+ZUH3/u93/vwqk5wm0+Hd2GfnemyRX1JHpgA/CkjAcWKxbF21N+dB7rMa+01EAQEZVaM+FqReqgC1dmn6xZ0QLutNwdR6Lq82e7ql0fXdBSsnG/bF6bsyRO2ZfFI7863vCs7CbYyj6q3lUG2IGNS0y/lab+tDoHM2wcCly0D5e5uCoDJ3srs2nEm9ihNGpjtcG6VC/Sx2vXQ2N69B3H6xVaYLTHbCvoIrP49YLSvbyyZ+D3PoK9rD375mmcDyrQZL3w95DNJpQ/Qg64h3fPhSbvF/Xcf/jmphctqT8/4vIBh4YDvqpP3mBcua2Mf98YX9zf/tsoQQrB8M5OHKLfddtv6l39tzHsFRsMZxua+BqlTo49q3EmAzy5cLN/LBY4m2VbiRB4KcZb0ZaddUK6tnLCX3D/zMz9zXWl7mGW/1K2a1bR9TMFafxtgBpVzNFYeApd8zuEcvSCJP73snaLrNhffb/7mb15v9Xr3U339baXlVTBHq+D6dV/fKidTOTsYRFa6BnxtV3YS1PfZNBvhX/DYpwNE3zU/xifdy5/60FFZfKOBeQ54QTLwmTTklZ+82lJ7togmuJa02bE6++rHG622OAJafaiv/YVsbwjpE6+u2XrhF4Kc8U1ffQ3xKAbgXTvjHbJj+Y7pMmmdx8trbRYfHhbyRw9X5SnzoJZc44dPmkD4vTKLHmW2ILTFnQoaW138XV1l3nP3sNg+O95bm7mmD9vgCycJzLe/6hXLYuvwTQy02cR1/X722V/4jFudWOlc6h+Y4EuQxn7913/9wVd91Vete0EpIBgwgvdzGVQndytwXOMuBpeL73Egd6Yt6lxOwnk8obdiEUimPbZ8SuzN0TiT4Gk1wbn8SXt/5t4k6NzrR/bOBFSrCyvt7/7u717PBd7nPve5622d1778IMMPKAR8/fisZz1rDbzf8A3fsN468hvvcXJkWyfPe97z1lfE6CPoW1WZhN1iaov8fW2Z+drs/WH+YKIB5dJJYGLwoI2O/A0/NjHJgGuy2Cz54LrER9UVeBowrqOFgs/kEeSnB/vgEy1+UHv0fbKkBjtaR/T4SEBuAVd5vhOUodUn7p7wg6lnugD+5KqDln3I4Iu21PyhWWPVZO+PzdqPtZjSpyZl/Sso2ZcVLL1TbKEgjw3ImndT6Z0O6QHy6JPN0dFNm9iRndjNRGBl7F147z/Tx/MJci1qbA/xHYsDi0DPauR7oC7WeFvDeHGnh6+FhRUzWdqvXcYhWnzSceqa7bOXNm7bE8q/767bHz4vNfXgod1nbjzBbfKFgiENjO/6ru9af/FE+R5saAyFXEte9Lea5kTqPdaQg7KNwaBPmuFz0JPCKtlqxh6omd7+GCfz3Qf8BF8Dza3fM57xjIOP+qiPWgM4mVYYHNy5gGzyTA8rCo7tBy5+Bs7h0ZLB6a0sDIo/+2f/7DpY3P5xdqsZAz4nPAr5IZ9Q3wCHk9Sd4EOSgUKnjvTFh02V77KrPINfIDdg0RqsfFO+wFWgZRf0Wz6u8ReU8CkVYPCSql/b4uOo7ryT0ScCHR2sXiXjC8/qoEtH9V1DYw4/E3HjTB35zh0LniZVE67J252L/v7UT/3UdcJmR/zog1/t4GMf/dEfvSbtscXlC3B40TGbqsN+9Skdajc4Z/MSkDcTefrSxCPQ2n5wR9iql//YAiSvxQ190LQStgXiPWarf/5pO6O7RTya1KH+ga2+tYFO6XsUZrvZRR37zGt/LPnsesbX9GMKCd2XTgPCzTi2Lghrr1S+xqccIzIeA0vlnybB9hpm3mnSxK7y0yTGb4DvKpeSox84iWA47VX5vgQ5hsElOFsxCPKuwVEqQOSEVgyc3WA22PHhJPa8BMdP//RPP/gLf+EvPJyfXnjUl8ro4Vqg5tgGZfvO6tX+o6C8wecW0wqXXq5DbT6KFz16D7X240F3gYX+7GDgTX6TLxpQz+05H8XPKl5e9nDcQl72Ic8EpT5fF1wdyeEXaCU86cqe6U5fZejQr4N4uVafTmjpIDii0R4BWVBBz/4mZsd40icda6/kWhDVb//8n//z1Q9NuCZ0P7whU9vpRFdtyxa1Aw2/+4iP+Ii1nofX9qPdkVnN0ivbCapsFOgQtCnbksNm9R0bybOI+NzP/dz14dyf+3N/7uDDPuzDDj7hEz5hla3NaNnCuXJBWF3lFi62yfzUm47eAPKTa4sOfCws+B3/Y/Mtsh0oz7fpdRzQahv+2rTWW3zN23E3Lvrpw7Nf9tznrG9lELRrK2Mai9CTCA46yzukbpu7HSULzxpGSR3FwTiX1ZVbJdfRzYTeMXS9Tek9eThPf8dowPnkta3nCBkV8HA9+YLr+KE1M7udt12jjRCPnC85HNXtlA6zomWHBsGUMZEOgrC9PgHHALCi1clu8xz1gcAraLs9sz1hBSFg6Be3rMoNGLI99DCobInQS5nbR6sS11azHk4q12/gKKBaldg6oYs2uAX2EHK2Z6L2ldBol9WaugLARP0B2p795jUY0KB9eAY02Q0NmdWr38BALlhW39F1tOk7eUgGHj7K4uO8+mjTQ4pOGX2rg6/+w9MRXxN3fDwk9R40PxNI0EETQNdoJfnxI4ev8Dl3UcaqbQm/XLQ6FsjR0RP4JR50AvqRMY+Ar4nA/i9fI5PvWKmKC+jkFdgDvuSxm0RWNkgm4A/0E2D5tsmHDvyvoIwHGSZG+RYNbIdeHt7K+bRrCxEJnRW0fjEpqRPqY6B7esmnL92mrls8dN/h3ZbvLvtwkQd/ArI6XsRY69/+ipct/BbnpOCbHr6aNDGvt8bZBfQlDbMnyXEMfnkMoVESXo4UUcbh3GZ/3dd93XpbXKOVhc6VTT5Tr13n1Yt28gR8ytvSQnrCLJ/nE/LV0bE6QdD0KzDJraQO5OQcQqDkKK7RG2QcwYeKknkUCiIGm4E563A65fShY/bSD24p1eGQ7GmF5IjWkZMLrAYSR5ffLK/cJGMwGADKtElbyTQo8Qcy1FfPYGyg7QI+gd+Y0LwrzD5kSsF5fNSr7uRRPt2Ca3bQNqAbXvLpKukHKNgok0eeFL2UHlJ5bN4kzBbJT9/6iL3YVD7byJ/86CnpG3TpIXCgi4fgagLmX/bm5eFnMuRfVpfaog5+dNNOWwCeLWijVaRJkD/QVxvQ6F99h0ZKLl3wco02XetfeqKprfzI4sQ+tGdNVrJ+Dm+FjT/a9CMXD3ps5TnGX5q2TR/HArN2z3FAH+fpRxYfSE98IP7ypx54Q3XxAvXYXIrHLvgr2XjRD7QdH15786Ln+hdM/PLvhuXCH2V93Fu81SpsYl4TdpRAQF+yIhOYG4ygkRqbAeOJXgMFsL/0l/7SenvCGMmbcquHDwfMMBBdRpXSR1nlrifqcLzrIJg6wuzQSV+5o7zgOlr1QCcYSFaXJiKJ01pZ+BWZ1YvbK/t6U5d9oHs6QfLUVZZ+zsmmn3J5ytStndUthejR4aM/kykflLEPnvLjnRx95XiU406Ztlq+8Ru/cQ0WJoCgLt/Aa0J+/aidzqfzT6DNFgLn5KWsdpGTrG1bk6XMtZT+5Aqm6qJTr7quszmbSFA528bHUUKfHuidy9MGCZRJZKOxnWRydOx1ML+oNOkL3oK4hYGxZn9Y3YIq3Rzx5qvylbMj2UCv2uacD6NvvE+bZCswwXT3JUijd3eWXQBt9gDXjT2pa/Kik5c94qOMzvU/GaCcjfQRvdXVLqn2OOarsz2Aj60RD+jTCwT4bLgPvsdcP+FDBp2d05M+173mJb+5/s2/B5fMN3nS268KTcxrwo4SCOhLnuIKzIRy/tmojCuPkvIoyonsTQlSGWnKnfowiHpBWbznMX3muUQvx+pKdY5UR5BdeR3a6mXSgKPr4FxHQW02e+sMYCNPsW0feFhnz8tgEqCtJuI1bbBFeqWnY9faXD5e8unDdtooP7tM/uXLK18e4KPPak/5oKw6kx9Ee5TjTl1MXF/91V+9bos0sOJLd4MgPtVJRnysDLU1/2vgxocu+iI7a1f+KC9fkIcfTBnJ7HxCfj6mvDwJb3lsmB+XQvXQpj9d5NV3/FB9ZfGJt/Fkz9iWEjlu+bsL8zomnh/7sR+7bl1YVdJVmXbggT8UcEFQJxtqS3TkuQtRf95puK5d2QtPW2DuDgVpnxyw7YFOee0Dx/LzudroOl2jqU50Beauo3FODzzIY490BvzQ0JldwDXYklHHRIdOu9nIXUDBfB9uf/lL1m2M+++/d+2//G21Pf6L/Ote9/IXLYvlw8b6m38ptQ9HCQT1S1Y8z372s1fnaB9zYhrWOSNJ//Sf/tN1xZgRMs5pcFw7tthFn8wpG932esJ1eY4FAasODuh2U8Cxt8sego6VjLcdrAo5hld4lHHWbLZ22h4b7NIB0DeJ5ID6gQz2zhnkOxpYtkIEPCnQnbOZUPQF+h6K4Df7qb4qwVa/WbYFnaJnK/ue/txQWxmz3uRDF0i/2u2IpuBbEJO0R7unbfWXemyBzwzo6hrgaJXhKQEaescn38ZLGT6VTaDBV930kiYfSR5egkE06tJdfZO5LTJbBQKea7RWxPaK63eorkWQt6X0pYUQup4DAN700v8mOG0QmGtz/dQRz7ZcPJiMrj5lQzHBKtlqmRwP3NwR4UsvUB+v2gl40Ee+drCPsnSdIAsPwZJt+DLd5avnmD7uVgGNyYTO0U24pgPgaT/feDbRgfGlnjdF8NjWn7j3Na9a/NKEevj6pDbxq9XeS/ndi95nv/Q5z7qVQA288fGHf5LoqHQaMJx9Qg+kbNK7jg+ZFKKYfNeMZNX4tKc97WFHnnWudDqJbNjmqVdd7fJmir3SvuvL+b1LLPC6FbLHxilaFQpIBoO9wRxv8twm2HfNxgaqyY5skwA+0Sh3NJB90N3Tc33QD0IMXn/2hx704ZQeKnov3ZaLZwEcMZ7qSAU7CTqf1/sQD7JN6r7VkOMeZYPK1NVW59pHd/5UW11HC66dS40FsgRucrVPMJDnHB/9g6662za7NvBNDNWvbKbaSp/kOi9B5XhJrtHK0x/2a/0WwDu92inI2i/2AK/3x+mQfnioayHQJ0s9yPWur8AuuEzZJil1gJ/iA7VhQj3lbFSio60UD5e9G+/aQ2NvQthCobP2QPbQD4707g6zNsunDxqyXNc255BertVTf6uvMvplm3QH59HPeo7qmWD4QFtA2oRPvKLfhTtf8+qFP5pD3R6eaJZ6fMYHjs4+8+n/z62WzyvBLU84X/XSQON0vh8c6Ph+EQQ1lmE01ExLwc/7vM9b97zULR3VyMuJi5GrTRIYGAKw1YF9KYGZXTg5muTkFCYoE5q7Bh0Np7EDOikd8PDLJ/bnSPIaCOzPyQt8P/qjP7oOmLYJ5KHpqbU8ett+oacVg37jmPHNMaV9mGXqBYOtowmAXwj+ZGSDmcLkQRdooiu4Vgcveu7S1ZFsA0S7K4sW1Bcs5KFBv9UvfdA0WHf1ITr64jHrT8gHgQAdXviqS75+ZSP+xWf0kxWogIceHXp81K0euWzDF61avX0gCPuzSFaE8UbjXDukZO8DvnxKsijw/rBbf3c9XkMzGTjnR3jV3vpCfSlZ2WTar75AJy+dJHTZrHK8yo+fOvjoO3Zyrby+mLQwjyYavmmhQyYegIc0Ub1wx6t+Z3017sEH719tqz6ZQJ97l9X32S997rNv9TenROnrb7p0HzECwqyU7R3Z03KrZcBndJ2tEW6l0H7GZ3zG+gR+Oys/UrgY2epKdbwOmINXvnPHEhvoJEHBKkgwNLjih/5CwN7uWgwO75JaXXnYYnXkxz9Wygak14l+4Ad+YL1t/Zqv+Zq1f+jlRwb60ID3C0K/5tOf9iz9AszA896rW1QTEJ1r/z5sy7QbGhR09nEZqzfbPPzkKJ4zv/p0B3ZX7jgHTXXqE6CHW2BHfTbLJuTRdfabc/nOyZdP3izbheqD41amPMntsn5Cbxyhiz77kNNqcga25KOV0OAnvzL0bC3Ie+vDxMhfTMCNySbsdHYe+Avf9QDfXaLfJHQX7JvVjuoDvSQ8Z3sd2Q6vgl06BnLJ766l+tkpiCvy+aP8bDERX+VkZp+ZTxYkw7WFk7tMdyfVUTbHeNjKvOf21x3ccKPJ4HBSjy/oA3lnvDfn4p7FGS81KGhlYQX2zGc+cw0GOo3BJDOO/VYD/vM///MPPvETP3Gd6cO2QZcTZG3TSbCr3jbVcbuuO5/lghEncbvESeu0faieNFEeXpKVul9vsblA7Zddtgs4oX1tAckAdJsp4Np+MbFyaGVuda2oPZx1iwwc0SrNStxbOPp1q+/Ur7QP2mtwexjK8U0IBdZd2PKV2HIO6llWHho20a6JdBcA+Sea6BtEJflSQWZCvQKMerv6cPJB1z7llBHwaNBPGnlSOqBLr0kX0sNWT6t+iI9YwP/ctT71qU9dx6T69vpN4AKuvqlN2ijIs5fFhEnabxdsx1kd+8GHLTuTeMGdTEdIv3TsiK/EJhPpz0fIRc8mkvPazp7ZBB9l6RyPjtVNprrK5JWguq6zb/amjxTtUVjlLLTqkpUM9U028tYlWCuES40aqOFmzL/1t/7WwZd92ZetnS1Y+wXOF3/xFx/8zb/5Nw8+/uM/fr1t0kgKPxahc9jKDC8g9dcvcoALgXoNPk+M7SdaCZIh8IC+0CcNTLIF8W6J3erSq/dy0eT83iqxWq6vc+wLBR202eSBD13IOi3owtHp3cArX8KzVJ4EbMNmgsIcqAEviW2NHXJmOSiT32A/CvWR1WR9FZKFFyivLUB/eZJ20qM6ya4/aqPEzo7K1Jt8nMtDw/7uYj/pkz5pDdbulDxfsBrWRyZPk7zPbgrKxrDvF3vbw0KM/+CDJ53qX0GV/JBegLZJIz23SR+xF/31U/ZhS4kMfMjJD9Du6ktlZPFrUEeKVsKzc0kdqCw/cH4c1q2hBw4nDvIBP+fpffa5zzr8HjNVb37C698VvRSYwhi4PU4rMvth/dl9M3RKSrPeYwk6WZsd9YnVSb9Umo4QjrNPtFYzVsQCvXMObaJ0m+lVKiuZ+sBWBueykvYqEBk+I2qf3EM42xjq2AYxeOhmNSV4+5WePeeC6Wn7j74Gg0HhQZG2u1XEZ6aJfTIMVqtCg61gAGQ0yAQt9kAzy9WTDH5tLD/5+gIPia7amoz4KHMun13nIAyu0ZGl3ZNuS1vgKcjrs+jwgAJPOkF8si3dawvdXGtj/jWBDtiSjfQxH7A/7MGvfWg/TvH8yPaH1zv9YhQd/tkJHPEr6LmuvZVD+rnGg1zn8ulfmVR7tvZPb3dvdN9OeGhA3RKwLV6u0eAP8awetJWhveqgFXCdR5cesx54+OdbzGfOvF5fvwAMa1te89LfPOeEsd7kSe9wvujCkTK7kBInxbZBb2jY2qJrRwHDO56cxYrF4GEPKcfZZZ/J0zkHNqjdWnorhOP4qpYtCitmeZzX/rKfotpX5GSuJa8EuUVF70GHVZKVs0AtsHujxKt/Ajt+blm9AthAOQ6tMho4rj0w6mtggnyo7RNThvbWfm3i0/hmOyCrczZGJ5Cgqz6bS9rQQGMTSV52LTioKz/d5Bds5UkNWqg+ONJDu+XjZUJIbjK0Bc8CM5ptIMADHZr4kO1aOyW2UIYneXgIfui2fNLdOT3Qk6etdPGGBf/x0SKLLjRkReMokaWMXLyaDMlu4kMDZKABeegk5/wLf7zQNKHwTfLkl8glB536yYHaWvtAnWyibR1NgOAcD7bB26LJ4sQHwMgmS3k675IR/MAkHfFdCA9uWurQlVx2uu61L3/ROd3hVY3Hv/nrB8HlBgWkoBE5xmMV2SPbeFXMvp4tn17Lke94nL3ikcPlKK6rW315UB76ZCVPHuDTufwcLB6QrPgfBQMtPUHQ93Cyn+sKLhNH8UxfwM8gwp8+jqC8gWJQGFBW5gaDOrMeWVZbtU9SVx2DsYHU4E2GfDwMUOXxSW4yagt+rqX4SegLqHizO7nq4eFIRvJrOz4g8OGB1q225BwPddStb9dgcF4f+5xWg+6GlOGBFx0ER3XU9bDXVpaP/hTEBCftx0/fOSojN3vQjw7SBFmScrTJrs30x6t+MxnMdtROR3qQVT/iU/vwQz/z0KrnmB7agY4+5JnA2UZ9d40WJCYl7USPF3nxBzKkiVe/5PCb0Wu95bgIXVfMbPu4JY+86+55zW+fu39RAOM3fpuL+2OspwEDSEGjMtJjFdkjJ+GAHMDbCX5kYfWYM0+n2oXsGy8J1Ctf/a4razBseUcT8Mv5wLU60c2BfhTQGwBoOaQHjgJRq7ApA+i2D3hNPZ3Ty9HAmjZoYELn0bpOd9fRVW7wFcgBfXnVKyAEZZPPOviWconNlacvxEuZ/KCcPEd2KyhBdI5SvgL0QQ/40iWZzqX0RUvutAPIRy9P8rDXD0V8kY0+yq1eo6m9rpMlaTvIS0f1q0N27awMbXoBPiBfnWxizKR37dpCWTpKkG7lO6qLp/P0oYNydwsWTv7ArwC75RPv0oTATG/9YcK+e9GZluxCBpucIUi03tWAi0EKblPQ0DrgYrFPxja/dCVxofLR6aBeXfIuuD0zNpNy0my4jy+nyHE5A+SwOUzneKBBG6LpmJwtTTwckxPUKdG7vk939TilCUhQtv9thZbMiclLOgrq124rK0FDamUnqK2DYOiOPrmOWx1cV6cEZEyd8Kl82irsKlcXf7zkO59HqbLa5Biiw09KH8m1NgsijsmfsoKyAqb8ytDJr/346kNH15ActsXbtVRZvARQgSlfSHdwjhbf8msD2Y741w40pXTrLkS9Cdfx3YXJK+CXnWvT1DU4l7+tv4U24yEthOs2hnq3LP35+MU/6a7F66fmZgdfCWwbdFRDjkKG3nbA1Q720FkcUKAyCP181kMHjtwtXc69RfUlDjAdapZl++11jiPPUd608y6aUjx2ga6Cc0lb3MLZU/bE3y/W7G2nS3p1fRQm/RaTT2nLf7ZBmnTStmxL13l8Z7m8MOV2PvlvaeMx68w0y0q76sTbNX8oX0rWPI9eQus6xBcffmhCNZlu5brO9+LZ3rLA2Zs+lSerul1Xtu8anAOfyrdgSxvdRGVbXl1DPGDSVW+WTdotaruxdO8ShO9b7CcYn13q3bHYw+LhjIGNSEOuNGrQxaJZV0P3GeNqhTa5pffzWk/DvTXhp7f6S1tPO6Fm8+OcZxcKzNLFQP0Gj4lGmzxg/LiP+7j1NT060W/XhPOGiNo7++XRhKnPVjfXAo1bcosI+h8HNK2o84PT9PVWn3mNJ972x+cWw6MJ/J8N6Cp1dyg4G+smuXUrQ7rYwQYN2njN622iSI64j3ZfvjThusC8j+ZqQ7bJsTi+4OznrF4l81DQz0JNrPtsyNmlaYtZHshIziyf9ZVbwUjpNWm3aSt7q4dVsj/s+T3f8z3rCsEDTnvoHDXa2nUhyH7Hpdn200K9XTylo3hu60F2K4WjZGzTSWU6P4p28pz01dnqaPugILvVfVsX0PBbx3V1uMjYVW+rR2mWgbrV7xjdFtFGdxKkTwlOy2MLL1uoj99Dy5H9HreMcXcf7o6ve+3LfuucwOxPaD/xLd/2fLULA0EGVQ3Yp3j5GfZSoYYeh5PQXCrsssE++fvsBcoKWF5h8+ClP9Hup66CWk+pBc/qkDWdtP6B5HXND5xLc5Cp7zy+kwds+aRnvPAFT/r9LJ/eJhWrGu89+xnwDPjSPA/JmZjlF4LjeO4qn9gn/zS6XqiMLU7KZx/dUXLUKdX/+aA7Hf1lsrX6myvnjtUFvoWWX1hwWHEry7/CLn3iAcrnNXQ9yyafLX36TWxptqC/h39e6/RDmu3Dvy227Xjdy1+0tp2dTFA+h3FmofGGBsrVvj77qaLtDJ/9vBhQapcxrgTI22fQK63L5UDBDnSmjvXTWFsAHMS5fO8Rc5QcTts5/LTBPJ9lk7/6Xj0KnBHqY/K3eRM9pPF6ET4Gn9WAgevVP79A9L6z4DwHJJ70IX/qeQ2PLOpjaQZmb2UITvrQLbh+F3Dq061vueYHPs2gr/V/i4ltkDxJ/2/97ijQe2Kfjx3Hk96ehxh728B8EngrA9RJB7qx3brXvNhiDcwyLaUf/xZPWitcKGqQ4+wIKM/1zOscZv4Wx5VJu8pgyrhakVNpo0m0IAeCpEFhJS2oth0gH73rbMCpspNjwTWoJ3l53i+6fA0P3ayz67qHGcDZOJdEtqBsf9zqiM7yyWgQo588Z39tB+s1PDKof6R8sRWz4KQv+Zu+45v6TV/rf1CPj/BTR0lAi0b97Tg9ybjNZ04CMuleHbJ3yTiOJx4FZq8KnjYwv+rFv7GOgdosGJPJDo2jdSuDEWVcyhWzowYQ3LGyAoZBKb9VEsWq12BV5rz6lUkgT1nnoXxHRqiuo7rOcxqobvynDlNWYK/y8Y82fbUxubvqAx50IAvQxUddmG0roc9mruNfnrrVA+WTzxaV4Utv9F5d8wK9QRdfjgTpIS/dywvOa4NzPAL+2Vf70y8e8XVUFt/qQHloqusI1S1/yxM6Kkv+GzKy18RJ2ly9eWRH8I0MP83mI21HAL+W6q/y+YOFA+j3dS910YFv5FshGerP/oT47bp2LkU/+zzflodG/IFJfxSS42grQ2D2XRALjuPqTtzz6lccvhJ33u/owx4PLHbwZgb+Z2/90ufd6nUNBTc9/vVfdrsYEIa52bG/LeYnwa51BlnQgK8TOgIjZkCYg0eeWdkL3vIKgKBOxnckQ5lbaoacQUu+8uSkT3UcOZjjzHNr7tz3JOyVcUo8lAHn28VHm9jA1gM96Mc29PJzaHXQQDoG15I6Ehvi0bFzKZpSdY9L2uAI+st7076NAPhol/b4KTZ7kulaWfaGOSizAb6uo3dNV3TZTnKerVznB2S2hwny8XLMZtFWz562AUAWf7G/rY7+QyPftXbU7scSTtNmtNHXn/mIZxwCq37NB5Tnl+U713/GS6tFfdqv6dDov+R0jCckG9CCvPLnMV76Gg/+yy/4ktf02kJBpzy+wfVMeAafJrB96ENNteWkuOuO166vyfF/9XybGe5ZfBSXNe9LvugZt1Ic0Y2Pe/2H7C8GGGuswOlLVPaT/HTT2wTeKlDGSBnE0cBxbNBIzuW3Z9UAlMcp/HTXnqonuwVL7QA6oJOPr873IR8/1tAhOiY91eMgdSY5BQd60oV8kF+A8qs8HeTnw3V6PARg9ciQTxdBglw/FvFamHb5ShfZvkNRuyXIIfGQLgYnqU/v0KDzAxegi6Qd/+yf/bO1XNAuuOJf22u3a0ft1lb5yqXahp98132pzENM1+WzmS+XqefbHPIlfUEG+yqDZBh83/It37Ie9Y/J8Kd+6qdW3r5BLd/H4enXAHms4ULbXL/yAWO7wBw/fcamkvyS6wI1HsaILxPqczzk8wd89CGa+lPSz/V9/c0HAn6u8eFLviVtEmjh1DjkS8Zr/a/MMf3D9po+4WIC852vfdXBzcsqu08u05ld6CnvJhPG//vsZ956/VK4fiz/8ZcuMAPjGBC+3+srTPakfPxdYPItYB8CsVL0HuuP//iPrw1ltOr5QYU/r24w2aOkvGDva2duJTx48EdLf/7nf379TrB3Yj3hF3gBT69jCaAGNCdSZmAK0laqHkKp+/znP38tp/u3f/u3ryt9+nzbt33bKsfgJtNraiYEM78JQVDlWBzMV9bw0y5y5atnVUxn2wPq6GC3P/5SBOfGy+/wyUUjmXDmV7pO0/G7cJL6OTs06DgefSXljvrEn8ZqYrHP6CGOYEd3Xx1Dq636xl87Id+A8kOS7GCyNFn7QplJgLx//I//8Tp52kbBl7Piod8NXv2YHuT4yyzkejsFH/3K0fHW//4qhz4vKPvOtLr6tr+Ucy0wnw7sp+6uwMyeW8jfluHBH/St+n5UxJf0ofGAr/FkLDn3kSxlv/RLv7T2nT71uqUxKS6Y/F3zCb5jQebPqfEzbwDJR8f/lOt7Y4xO/GnXGNte0zlcTGB+4O47Dx46H5TXRcvi42vthQebnFvSGU784JJOw/g41AANZsyv+IqvWL/FbD9KmdnKX7qwFSDPgybX6DXWR9jR+AC7GQ4NheU18Hw21KAVwAV8gV8g1AHKzZ5kC/wSvhxJIHXunWDBAI2OMnmQ4a98uOU1oPH1ZTerW4OcngKAfSWfuNQ5ePplnkAFnMrE4qGZGVqA96DA6tInLAVpOpssBBR6yBN4BCKBg5NoB32AXaTLAf0hxT9HLU8b+Eblzjk9G/v7gD7mzw4NEoGSw/kynkEn8JqETMYGGlrlJkftNcnhqV/1tb4i2/d9BVefGTWwBGvnbIYeH5MkPayM9L2AD/TKdh7MmBT1GzubJLSlLQ5B+RpOh/yhI3QMykowfQxc52vGsUWKsaJf+InJ3xiwINNnrgVV/mFc6lMPp41NCzj9r54xxq/ECmXoLZKKB2KOMYZWfXrUDudHYbZn0jtu01G4fxlT6msrGzhKgvVSefXpM5iYSabRLhRTccCXcT77sz/74K/8lb+yBiurTytbgagBbiVjBjO7obdS7C9KG4iUBoNNntlTIDbLKjdIfelKECGTDmYxt+HodZpgywjaS4b6HMJgFUzJ904tHczggolObDYXNOhpy2GuIsnSDp3uE4B042CSAE0nM747hfd///df/xIxp6G3PAlftM45lneStTkZ0kR2Pk06KaJnR/aW2K3bUH7iWr8ZICYYdx62qgRSdvSdbTrLN7ma3Pw1C33gk6OSSVFyO2lyYm/JKsZdBhv4brc6ePoBCruRkR/oK+/Q+pNk+ohMEwXfoa+7J5OAT5niw8aCvD4Jp7HNYxH5Q6k84AewzY92pl3It/WrfjMmBFB9zL8s1vz1E+OTnwmy7pD9VRR1jE2LOH5pfPI1Y94kLM+naU3MgrtxZ6wbuwIz8JOj4l76lXa1ZV/bjoIHfHNb54blXLzS5mScQSCD4EsNA8jgs4qyohKQKWKmYrzKGb4gQClBySrW7QrD6jQ6aoh3XwUBKy3B3UAWLL0bq0znGXj2JQ1et77qWSk3S+lUNOTpPDpYfdleQUeWYGngW+kJ7H1vmAPgU9B1bYXGjpLZWr4AS5ZJQ/us5l7wghesttBGcgVvAV078KdP/UBHcqZjXG7Qi5zVWRZHCTmLBGhMaiYSf/3kQz/0Q9cBopzO2sGGAq1JyWRs5SzfZJdNBE119A96dV0bmOTLR+cOh41ck4sGb/wEWit1dyX63EC2utYv6PSFoN2kKMgnV7qG0yNfvBgbqqe/C+78vz9YLOAq13fgKF7wJQFaLOEvJn7jTb8br/Ey7iyWHI3T/BkPd6viB/7G9y403ma6lIgfnbKfo1Te2Wc+4/+51QmHv/6Wwz+UeKlAiNmK0ayCzHYe/jGIoKsDBFSrJqsbwcpq1rk6DCvACa72bulokOkUsPKyhSAgmm3NlgZeg97AtVIyUAUQnS+Q04kc9ehghW6bQn3OoZwOgnwrdN8Gli/4o6cLHvGjF5n9Ak8QtyrHp20bjmEViC9ZAo2go5we2o8fPvhJnKpOy/HgYpwFr12Y+fSVrDDYKQdlU7eWgjI7CIom0T6+r1+12WCR507G9hC7WanYsmBrq2p21Sb9r//QGHzy8NH3eNpnNKBcF1jlk6uMTnibwAVqttcn/I/+/IgeVkjqW5UZsPTTB1t71NawvQ777Bi2ddBv+YbjeJ0EW96lrpPR+bzeYp8+8RRULbDYlO/ykerMulveXTsKuCZUY8b4FjCtasUKY8Q4lk8GH3F092OxJo7oU1uKtgmtlvFsQaT/LQD4ofghX56FEJ8xget/PqLe1h7pKa/zoO38zIKuB+CzzbC9nnjw3rvWV+PwuWlp44rzMuStPvmql7zwnM9+XrcUPOEif5J9FLaN24WjGvNIgu4GP/0cW40xYMFSflBWZzF0bX/Y6Et+SR7I3wU0oXP8pHjLL4CfBPvo4idxXqsT++kGiDwDidP//b//99fA7O804iUVvNMFnKNXT6CV75qtDC707gzQmWwF3OpJ2Yq9wSDKrnhKypqI8VaGhqz0IEfbyBCQ7Ukq+5RP+ZR1gnWuXrQlqH+UO6dD19XZh8nHEX3HmXcSXidBssD55E/3zmd+tFtUtkU+ot/4h0BpC09/7vLhybu67M0H8PDWFln+pqC7IMBHqq6ja3Wk6WvlO/KH+jI55dWPQK5+15fZJXnxVQ9f53zLUQL5nmuYRPzAhP9VFrbXE35g4hOf/iAruemnjqN09ulf8P+71R4HXKr3mC8URzXmkYTOqoN1qpWk1YIZ00AXHOpEQFdHZ3D0Vn2uCzDRSvswbTLPcyIJ8Dip/fbRxQvoq51WGgVD0E4rW3chViCcVlsDPQqM6hgAUnmOHFkd5fhZ1YDr7IVOQld959UD/OI15UbnXELvCPjT2ypv1o2ncgG8LS3bKvqcbdCRAeircxLgu+2zeJyW12lALhsnMzscJ3Nf2WwD/3Cnw5Z8+qg6BTpwTi+wWrZCdnfYBJuu+NFXkuc6P+g4gefsy9m385iuzoNrMugoX5/bDjG2XZv0wTk6q3FjvzvKZIbt9cR9d73+VV1HcvDEx92c45l15bIUUuQadoPxMj7n4Uy2YGxlOJffPqjbdLc5ZlO3Xj2s0sG2Vawy7FmjE5Aa9AGvmfbhpHSXEuSwg9WyW8tWuA0aTjsHi+sCUkBXXvwakPLZg73ih64BJ8kvT+CMT7zJd5wJ0JPltT5bLSYXAb/y4HodGIssejQpTF4XgvQ1CAX92gjTPpcSbMnHLCAMeDpcKtC9PtkHbRSEJfJtUwlm9JCnr4yjthSysVQfZJtkZTPID9DmB8YhO8uPl/Ou4zF5qdsYNdnMgKyePOOV/vncxSD5ePt4HP3LX9uxlJ39/577JbcuVyvhTU+4ulfM+wx2sXzVnzzYiiMJJo72O+2J2UN2bjCj4XwGoaRzHcvjQFYbnGA6FgcxoMzQjuhzFEm+Y2UcpXx5BkD1y3OcdFvaEhpHdPbW6SiIcSBlEpnJrc6utK9MfgOWHAn/+o7dJNf0K68+kCbtrkA8E0TfdTJKk5Ze0SdfP0utwGDWOQm0fQaqJoV4nIbXSaGftYV/sTMZzrey0OgDSZnrXfpE1zmftvjwLMU4KLjFy7V2s5vFym233bZeC8bZHT2fYF95rh3xV18K2W7q50iWPOPJ7w4smEzA+ELtwld9MuKrXnYyiXmQbyx7fqL/1bM69vsKi7Cei8iz6NreUQbXeO7CufsPbUQXwK8+sp1z96LPdbe/4sXnKInJpfgr2Y8k9hlia7QrAbqwK+NzRntx880CZRxHsv8qqNse0Pne1uhdXPQcJ+BbO5U5bxA46mRwDq4ltPKi7Vp99smRHA0yqyy6eRiZjHiicV7b8AM81U3e1u5TztaZ46VeOpuQPDD2qlyravUAjy228sKW9qi6yrTHIJHoU2BG4/qkwCtZVooGunbiZYDHb5/ep8Vsl3OytAGSw/fCbDM6fcq+bJ+dJ9ChUY+NvG0j+fuM+Aps3mJC547KwzkBWf95UCswf9qnfdraz2xgC8SDZPW8Uom3H5CQ7y/Z8D8PjvFz7eGu7UCBk194yE4P9f2AqIeDn/7pn/7w1qGHc+rSzzgytvyQhf39EVlvS3mzw+TigfwLXvCC9e/4yfPutFd81fcjOOdW93S3x2zxou18c9uHrum9C7e//CUHN99yy6LPXevDP7/20w51fJvZKnr9iJFCG9EX+3W5Rxr7DLE12uUEHaScl7OZWW1huBUSuEDn6lCDp040W9om4Iy33nrr6kxoODJnja52dlRGFl4FjtnmBln1DULndCtfwkfCA10Dlc6CZOXxqT6UJzlXzxHohdZ1KTkGn+vqoVMGVmQGzxd+4ReutpBqH/ot1N+FLW2yOoeuyZcniFqBabuJ051Q7T8p8Im/drK7ftIOW4hA7j69T4tkgfPaQjaZW92nDfQR3SRt5p9boEsG3oIyX/UADH8Lj6/8yq9cgyabecvCm0b8V6D2AxHvrHs11W8GjAt+BfyFTNt99pstUPywzMKA/iC4exvDa3LyPXSkz/Of//w1OMvzwxH6eHgtkAq83ns2rgRSP1zyZo6Fh/6w8qWvdsgX2AVib29okwDtIbEg7c0Pb3OAt5EuNDDf8YqXrXa+/oZlDCy29t0MNmdTfxh7HRvPfeYX3epE429+4hufr/roxb7GHuXcp3X842TsKt/XMRL7ujXibBIHssfpNR7Xznugxhk4oF9C2fJQXydybo4kNch7MKVMQsfRBZVo8OC0HLGB4FyeMtfVcS2hk2xlRFN9Kz/JeWXqzkSu1UnX6FzTj/M5V18woEf00mwnOW4VvYPcBHGpUH85zr6rz+jqaLLUJ604Q/0bZtk+0D9eBUnHySechN8WWz6u2Rua0ADvLX+0+lKf0JFe2zZCdeVboQpO+gh/Cw+++5SnPGUNbPqdT/NFW2L6128O+JIJ12qZPAEZjfEg6IKJkI/4Va1f4aprov6Tf/JPrvlW4vLVM1a8fimwCux0sxDiQ1bO8j1gVEcAFkxNFPTVFu/hm1S037WJwWpffe3zOiud3dUap2zTq3j7HnxuryfuueP28/Y9XLSg9Gbc2leL7quvvdrrcovTa+CbPfmdDms+irF1lJCz7MJRRtqF4/jsKj+q7CRQT8fgIyBxCJ0G8uPrKHEMP1k12/eakWBSQIF4dg0cQuoc9H8Dt5WuAcaprTrk4VGZNHkmp1kfr5yVjNpRfSspA8fqyWqDzmjwWZ3yPH+8TGgGbDqm8z6kl7poXadzUBa2/Oih3HiQWilX37ny+Md78p9In2xQHdfZXF56soXjlDkRv33YVV4eniHeyiRyC0xsXXBOn6mLc/p7h9iKtFUjn/nmb/7mg6c97WmrbwqggrbVph8gWWVajXp32SrWdp03ZNiYrbORehK9CuhkWr2qL2jadhDc0fjGjMBpVWxV7jcHArxJwPaHrRTvQxszPsAloPNt9peHXsCW7y5AYOafdLaF8Zmf+Zlr4PYGBvl0seXiB3Pa7u5n2gdcZ/fQ9Z2vfMUq+4EHXr/X7U9NWS3LN1GtgVkFA+lyvsd8qbBtbNga5mJwnIxd5RcrH8+ZoIHkeiub4/l2hPeMrUqm/Bl4yt/WnzwLNJPWmyMGHqcW+JUXWINzfKQCGmzptnCbaZB6d5XfWVWrzyGbZLQdP46K1+Q9MeWkCxRQHLf6PDwYFhkzWAE5ktWe5CESHadcvJLlfPKewDt98Ize0bXy9JPXdfwct/qhi088C/BQXWUBzRb4potEruCmrfgJzOkVnMdXXf6hH/mgrQt3WIKuH/voU99LEVTt83ogZ89XoPWGg1/48WG/4hPYXLtbsoom2680+YQ9a3vJftJvf9hnAPgI3+lBnJXwt37rt66Tg+CsrnrejBJc/bhMGd0FYPvDJgSrcfqaUARx2yRkWAyYWNCzC/1NCiYZPxAjU7sFZvvRJ93KyH4P3PE6F8v54Z1uNs3X0a2BuU564ls9eSV4NGPb2LA1zMXgOBm7yi9Wfjx10toxR/BTzqk9xPCR8m1gbuWhX6WJqbtzyWrFkWNwRHU4MGf0LQqDDvKTyYO+q7MtMq1yDOaCmEEuTd3UFfTxf+pTn7qWuyU0kA04To6XwelWksx44Lttz5Z3ummHFK8ZvAwGkDfzIR5kW0GqSz65eCVPwFG3QVmaUCd91GUnOslzjl5Qct5q1eSEL3r1t22ml/rlO1evFaf60pQVZlvjWTlaPBz1hQds+OIJ9bHy2mm1KbAJToIZXmjIiV5iw+SlMz7K8EIvT5n8XT5T/YC/euhD9dVVR3vYic2cy8++2SJ9lJVct/2mvlW0tzK00x0k/dwpXEhg1ub7XvOqdYVsxcwX6YQn3dFo26LXoWJ9rPmRAPm70q6y0wC9xkoau+V1VEK/K+2jSc4sj6ayo/RIX5id3LnjPNdvDQDnlcUDZp1Q3cq2qSDk3JHOnKfyeAAn47wNaAF8fS9+0UEZ5zYoAK/4NvDUKV874idIVQ/wo4Py7Lm147xGV/BN10lbmvkTeKnvWOo62myTvsrjlZ7RTh5opWwjD73zmZc8aSL6ArFrgZQertMBHOmIJ5r6KZ7qqqdcPgiiIF/9ApjyaNSfckCZ6+k/ghp/mEFQ3XihTwe6a399rxwtPupVP5l4uibDuSOgVy8dHenUA1y0ya5uKb3BNZ3YzTaINz2snNGUAl6zTbsgX4p/OpLDBrYvoesz2FDAk8GrCRo40z5MQ2S8Up03UwZzHpxv6826zvfxnLSdR1edkg4p6ZNkb3lJyrftnk4zHQfdrnw8yQJOauZ25MhSzprTo++oXg8E6YPeIDSwDQAJv2jpm+7aWnscybBlYOWBVj3n8Uu+wGKgSJOXFC/JwDbY5eEtb0K75M168ZOiIXcdGws/fFrZ1FaDHQ29BJT6EH186iNl6Y2n+toI+HqwZJWKN9R2euBRku/OAj9yAY08t/zVp6/UNVq6qQfVpxPd60e2IFeZOxnX6aCt9Yv+dS2fHHXVcZxtrzza+gINvmRlCz7gmn3QVbe+iI9r5xCNI9RGusjXfjzx75y90TSGqusYb7TaqI+9WWKrg57y0UwdtAU/id4liDfEv7Fw/dlDm9x4A3+/5eCB+5eFyd33HNxw/TK5+UB+RntDRI6ifdNYjLo1IigrTXQdv1lPWR2ljHOU6gSd1jGn2KapByRniykbtjT0kLZt2AVyc6hdyAmnLs4NaM7P4Tk6GkBDdo5tINTu2gny0lN9+QJaQX3rk67RyUNHNlnbRA6aOYBcTxrX5OOztbt8KBBIXYPy6PHB34BNL5j2CMqjZ7PuLtCCfDLoY+WYzaZugAca7VdePXoq6xhcF5iSVx062IKQBEUQpJXVD2jxkMem6uMlHxxrF53pTrfyKofsjw4fekn44o+OTiHbnwb4m5TxIyN7SMpqi3N2NEadp6M89ZtE0z8b0jXgpa40/du5uvuAhg5nzi4+esYdxqLPQn7jjbZE2Gy5o3zdK158rqeBb/w2b3++6pWFhu1CxtyFDHkU1LUSsBfknCF3Jbw6lrYOpQO3xnbd4EHr6HoflKsjOZ/oOplodGD023peHfLwxRNwT5GrN4FWUjbLy5fIcNRezkIGeMji7QmvJ3FK5WzkaOB1y4mvgW0QVBdNdpCHXp5Elv1lD308DccTDT3wSof6xkBQB9IBrXx61S5H5RBPOqnrGt8J5fqUnnjFxzX+dE4PZekHeKKrjeSyRTKssLyeFd9o8bAKFfAMcmVkqO/omk5o1C0wTqS3B21o8NHO2Xb6SeRJ5aOH7Fl7gH4CEt54CeK1B7387OhaXe/8ei2Oj/AB9bMDnRzVAXpL2QH/2bZ0Bjzomu1LEM0u4K2uyUGA5x/x2KKJTZq60K27LbJc44NfbVHXcxJvTv2JP/En1rbKk8hq4kIvzbYpv+uVr1iPeKcfnU2O9Fn53PnKlz78y783euu3WytfaewzNoWPKtti0jrXcAb84R/+4fW9RQbOQZTP4/Y8Hl3j1bnEZh0DepC/xSzTcQavztOOUh3JoV2TKRVAQnp5wu2VMx1aB08kE2aZ/G2CaPAuMHM85W6VC4R0ok8DmfwGvbraFV+0Jkfg3Og8Bff5T2WcUJCXj1eDuYGSbuCcDtkFbamJwcB0TA/6qudYvkR/PJQ5dyyV3zl90MQvXeisLyVAo60exvpRAptBfKzCbP8IuAJZuuEfXAvMeNmaUFbfKpPvfAbKCWUSutnW7DRp8IP44ulcHcEKf9eTdtYtMH/kR37k2iZ5+hMfNmGffAFPR2VkFbhD/MlEmxzoeBTUZ2O+5BzvbWCOL9CDr0jo2LoyfPi2thS08+/kePjnlTvjI98VXPWx8aDv8StVF+551StX3viyRTZiExQWyutnP88sFTF+i7d/57Xiowk1ZosaO4FWUuaoTQIzB/KTTwbLCOA8yMsRdaDz8idcT9m7yifwgvhK8ahsV1tC/OgzdVKX/hIndDyKz4T625Qu4NrTdityqyFlBWbgzAYAp5LHMR3J57T0iScHbAUYD2Xyk5lzVhef2jpRubrO1WmAS6AMP+XxJTv7uXZMv/JdSyCfDngZaOrjr240gH82V8e191+9DigwF6wgm+EpCLBDch3j45ruBjmZrb6UkyHhpQxttooGHOmCtslTgGkCUS6pX0I/95TRZ1P8J9TF2y/zeitD38pjL/onb9qWHmic44G/63jWN/WbvJMCT3LJkJzTCR+YbSCzoOycD1k00IdM8tmf7fSh/seHDFBuQhKYvU7aogB9iwz18CI32dW3YvbT6yVj5UvX7CTfXzg589B5I1TpakftyCig4Q3g6QCMWVKPwavvOG0yzyfw25XqEDLJk5xLBmXOMBNHmtccu3zn6knOOX4Bg7wLhbZzZE7ajM8O6V07pNqQHmzSYMspJXwkZeoB+myDT21kBwkvtLPttb9kYsUH6qvaXx+mM9tIytDSSxsFRke6wbRd+kmClDbhix85s+2SPqBXQah+0p4t8CSTLvjStbQFfwU6dI5OXbr7qTj7wtR/C3LUV1c7jgI+2lcQ0mZ5HWcK9JFAPhmVZ98JukRDFjnQBJi+sMsuRwFP/NKdHLbKn/W/XyraAnIuT7+hrw3JxEsfKpM37acM/wnl9J7yJq8tlPeyhbazRe3uuxlnCPfRjBz+DQEZkwFzrPKcZ9yO21TnbtM++pnU3dYvT9LhOgKvXZgy0DmWP5N8R4jmJMgOEmfjGJyigURHaAC55ht0kaeePEHIPqqX/K0OZmqCEaTU02YDnp71Acy2SPiWV5r60tMRbTqpU/vRuyZLu1wbfJKtA/na2QAS+NClU/oB3gJFekmQXhI0YEFd1wZWtgrVacAfBXqyn/YWxONH3yaDrW4BrbTts/Rx7Bycpxs4x9sxuvQPsz7Ek+5SdaNz1B5BMZunYxObOvVLfV39k4LefIMfNnnmg+5UypdHVrps5dCFzfRluoQtrevkkqeOVNkW2s1G+KtDBz/JpiM+ys5Q4N57D1+WfzSCfrvSLsjXjsonvXyd4ajxUtczVbZNJ6E5Kqk35RWsJPmzbFe9XbpWtzaeBugFKQOfo5DFqeTnTB0FAvLQyMueEvlT15yr8ugFQw5IZrp2lIeuBMrwiQY65/QGuAEjyZfULSga6BId8KGnQWDSoCPaVsUQ7461jU2mbsmS8C2fXHmTboJO8tDRGdSvjTMF/WvPmn3UabDTDV3yoXqO6VCZetk4ulnPOf3IaMWXrOh2IV4T+GTrrQz68iVlQZl8dbQL6OqOgL/gt0sH9UoQDR7spt/0s2up8YZOHW11TZ98dtpTOd/wfjGbpH/ynE/QmU+iy3aT34Ty+Phehx+bWBynk/Iz192wrAyWQXPvwvgaHlvgsIJXTscpDBqOOgMuJyo4nBQ5LhmcPz6uJ+RJnBH/XY4cKhNcPTzFU55kAANeBhR+8uMfnNNBO+mVzJnQ4I2uVVWBdRfUSd6WT+d4pW+6HgU0TYjqqKtP9FF80zEkSz662ilpg7KjQGaJjJPomcxsxp5NAq63wBMNe21BX/7I//Sh4JxdT4tddehTgCaLTfSv/K2u5NIVnzlBlMCx9gjK9GUHMirfQl47FPi6k/PK8gPnZaTLGYTXL4QPepHuGh4T4DwNJINdADAgOAbwCc4m5XicyHEiPtKEazwafOTEazsAXDchSFteW8QTr4KW86mHNgV5yXRUR7l6yrZtip/2GmhW+t1+7wN6Sd3SRDzTc2uDXaAje5iEtJmeBTz2qo27+KEpoNEdtPso0A1PE153Ttn6KKCTkgmOkvzQeTaYfRS0Q8LLEe1xek+kC0xbz/x0KyVnC/kCrHGRTtKEeiUTCV3x1Dby0Cd3Qo4JYS1bknoSOQ9PahwPivJXGzKYxEDT6K4LCMqdy595j2XktMCZXLPPtCfI6xYXtnaNdia0ghmHja7A6zo4bzVe3ejTJTrXaN3e4z1XP/GNT47Ov8tTv5TOBl42SBbgL1+QYht10E8+ztXpVhfkQfwn6GsSpDOgmXxK5NKdXO2g/yyrPL2h8/RzVJe88qVsAfh1PiEfyHA+dYSO8ifix+azTJ5+4wv01P54xre68iV02i9vtnOL6nU+61dW6lrfOtcf9py7a5x8nGsHnbOZfCmaUjG0PuPn+d8+oFntu/C9f+F/76JTNsHzzDogFyZvKNCoGgcMBIwL8uu0aB6rYAfOwPkMHHZzDZxGQsN2BlOOJi/anImzOwJeVmr2cK06XXP+MG2vf/Au4SOpM/vHOVl0cDQY0k9yjpeEVn16O6KXhy402NDvGngGrLdA2MYYUdeEgBeoo0wbk0Hv2oFf+cmvnvyjUJskvNiuthWsJ00pREdO9bOVI13qK6BfPOgnoUFbvfqldmUzsmonOvI8ZJv9nVxAZyKTvCHRhJ9ebOyc/hKkmxTQZtPK6MPv9Evl8mvD7BNlrpOdfEke1JfZkm7pW3170Hxcm02CbT+lE76hazz9ndXk3LhcLwxXni2Q11r3LU4u8w0BGZaxdFLGYCyGlRgZlD3WkeMIdJzuZ37mZ9YfgMiX2MonFL2zyobBOfv6wUQByWD1MMNrSQZHzomWwyZLHr6tSBw5ef1Uqn8aBJJBYl/O2yBo4qnPJTRgRYLWiheNAUTX+r5VDZ3jQx5ZaFynk8Ei0DgWuApUaNE5B7zwkPhawQwfZUBPPNJli+xWUr+AA3jtAlrItqCOhEe6O6cfnuzi2LiIFuJHX75hTHlVz+dmfecYL2Vk8RF+o41s7qis+mjrR+fsaZvGOZ+R0g29vmPv7DmRfUsTrunJBx3prU3OJedoyOZH+SWZtYU91ENHD7T8hW7K8EHLXtHRU3BOZ2kfVlsvctS7b+HxwMKLDumxniuk3I2L4KsV2jCPjPXzP//z62cJNZRBdYiPW/cXEqJ9rIPjzVneAPET9gKPFaEX6TlnzpbtDEArS/lsbpBzVs6JRn28OTXeZMlHU1BooDQgBXiOWZ5jSf2ChXPoOnr5rRBdV15QFZzJdk6WfDTqF9Ac6a48aGODbvIlBy8/tOBv6uKlvh8h9Jc00MhXX50G+AyEgG+8AW3X6mrfzMNzAi+8rUa1lVx1JGXkyXOOD9Ru0MZsgiY6NpXk+ymybyBro7ra4cdI2RTohVaSjxbf9MCTX8w8PqSNM6m/baPrmdQFPLvTcc4O5JKfDvXFFuTwv/qETvkRGXQxBpro5aF3Pd+vV4ZXQLcF3ujRek3OX8XWBvUc1zHghHHfEFAn1dGch6FBJ7k2q6ErPdag82danWOxVwHUdzf6tohywZMD+vIZ50QvOTeo1OFIHNQX0qxkrUR8iNyf0CqgJ6u6+iFaqb0+ZfRJln4kH1yTpdwgC3jLp4960awOvtRxjrcBRA6dXScz3eQ3sOkt0RFfQBM/vNlMO7QbTPrpKsgIYNkHDzaStFc9shrou5CPkoc+WonOW8hDS38/C9cHHuZpYwEQD9d0cqyvJGXahA4vqb7TDgmNP6/kWy3RFFDJrN86gnP1tJdcRzLkk8d+9HDO5rOtQMaEeCXxDYguudql3RI5QC6+/NgRrRRv5+rpb+1Qlx3pNvXNRvqltqBzjmby3Ac0gr861+njxWfkzQnkjMK1kecd6moHo2iTv5hgpQcabQUBOv6kBnysgU38DUIrLWAndmvg7LOXfE7L7gJAQUAenlKIVnn9sA9NDvFGKw/knRQzwBlYBcv0OwrJjlaaebVVsGIrwUK+Ow0DzCBP9+rNJG/aNV0l+dUrnQTVy77qzX7ZBTTKJOdTpwllvk/MRyx60Gu3QCbg7QIastVle+db/ieVD7VpS8Nm7O+IhhxBVNLv6aDsKP7KdpWXh0fBWh55p4H6ktV7k5qfYtP9jRY7rjpG1Ex/tUPjGN6v0qySGY4z2HMys+mkDLzL+I9lcLBWTuzIkdnNKrrBNNMW00Enzb582MUnqGcFUX39GvhsvE6SogfHfYMz+hKQnw7lqy/Jdy0wt5XD3+zFWgSw5aw363a9RfIm7Uz7kI7RTd5dT5mdb8uqL20hj48IKPrGKtMCqDuLyUeCjhDfLV35u8qkiYL3pA1d7+LnfAb/WSbBrnrS9lr97H1anFnm1+sW0+LBZvj4XhEZd5z3oXUrQ0L0aAJl021XUl4KGUwyo2m0WcnKxK2X25gMcTVjtn2mi4H67Mo+Vj8CsjyTG7txGsgxd6Gyyi9Wt3jFI76O+rjy4xJUvwFW3i7MuujnoEyXCeUmfUFYwDLw/bXmVsvV2SVvV16yOj8OR/Euf55P/rClkWZ559G1VWBs8RlHE1N08Z/1SrsQ7bTzzIdZv/xZDtu8LX3YxWuivJlmfvXjcVpYBGOJl0k8H5OKw+vDP4lDPRpBt/Zd5uopZCypxjk3SDiPp8eu1bXyM1BcX8P/6ZSOnEJQsSKyP9r+8q5b1OoelXK00wTRUnX1F51cw+xj6SSI17ZevCRoLMwE1ZEmPXSOP3+zenRuK4O/OU9/Kdkw+W35b2lDdPvKtrxq94XwjEf1Ojd5m6w97HRnwE62u7LXRPXoMXXZygJ5Mx2Fo2gqS868nklemPS7UP6WznFfnX1A3wLzusUm3mOODxute8ycxhsZfib4aEWNOAkyEidxe2XlJ8CY1ec2xjX83+BwHOPJT37yuofoT7ab4B4LdsvHpILyrkBzFDzXcGfG59iS/zWIH832007tNgkf12blLXLcTfGR9nG19RqOh8XG4hCHPrHY/YYlBrOpsSdvncgZev3U3JIeraDwXDUdhfbKNdDA8GDCzO72y57fNewHX2A3t+XOvWXwSAdlsme6HCgYOXZ+IWgLKH+znVawuxi+lxuCcq+WOT8K+sB4tGJWxyuBVstt2VzD8bCH7JvLYlo298ewxTc2tBg6w3EQeJ8uB3q0GJgTUHbVb0kNTLOLtGuGb9ZRzy05un/zb/7N+jBQwMmxLtfsPm0409UAtmIfthZkBGZ7h25dm/DCbBvHOi6dFJOvtM27VMBr6qbdzvMr58mMbptg0tjyEYwFK4sC+4dsOelK+7Clm/KOqncx0HZ9LLgaF653IX3YRzv5iOBsnF2IbrVrH7JBKTif9pg0le1L1blYsIEAeyH81FF3MfR6Lh5ZGNvSYH/bymf8HHsddJdI4UsFzrErTWzznE/H4jz+uq33lzlPwX1b72rDbMNMJwFHmCk4zz4GKXv501UGn/xtvYtNJwG6GSgvB8hY/X9BkzqZU8dp3/SXGugNeisd20AvetGL1vNddS5FutSgZ+PmqMAcotNWf7KNj1xsW4+rO8vhOB33YfKM12lB9lZ+ebvSFvyMjz2wBGfl+ZE/KbUG7AVnzj24OPxS8OD5jKsB24ZLuyDAcBwBRqC5huMHTgHwnd7pnda/Z+aWVT4bTzrBrFRgmuVHpZMC7eR7uRB/ScAxEZFrkDQxlCbtFlac7jC8C+7HNWyW/o77+GzTpNsm5ZcDJ72LJF+70Grju77ru67bXdpXeUneNs1yaVtnVwrO4+GYTTqvv5K1K+3ie6Xx4AOLrc4tcWuxITvSi++0MLjp5psPrvudF/3vc+v+0FLhiW/5toc1F+wLdheKaYgM02DfgpHtvUhTj+qBBuUgE9HH3+34L//yL69/MLK3CxgC9smHyip3LdC3qiR31p30zqXy5/GkmHJzqF08pg7sxjG3dK7Lw8u5etlhnoNyf4iV7T7ogz5o3S+FbI1+myC+89xRPTxyPCnM8wl16aRN6peOwuQ19di2TVnl+Hfutjx56OLXEV308UTbteQtoF/4hV9Y/1aiOzZl0eAT75Cc2oZOCvIlflddx2iqFybvicnzNKhees3b9//8n//zOrZM4J7fiCPJd6xO5/rfkZ0c2TJMeqk2SrM8VFZeAZmdTBS2kdJHvqPUBKReeRPb6wl8QF1/rNjP7T/mYz5mjStH1dvi1S/+rVUPOtNx+iD94brXvuy31r+STdk3fpu3XzMvBxLsSJ6gSzmNTTE/Bf71X//19XsNHtr5ZZEOFxBnw9UryY83zHPwNgY+BolGJxvdlF3Hxq/raMDqER+3qe/yLu+y7iN68EEPDjt1Yk/H9O54UtBBwof8dAOy5IP9KK8seeDkFTeva9GvDsYDqqtd1WWbeDt2jia+3sXd2qZEhoBrENRuiA4/fae+wWKf3yrL9hI7qoMuW1W3+mQ6up40+zDLp71qF2RPSfv4mz/Wi5b/0TVfod+Um05+TiuIu0YTtLXyBqv6JbTx1Ifo8228Ah7oek/YHV8rcdsG6kePLv0cO99i8g9b2myEVpp6OSr3AR5bg+xm4v5v/+2/Hfz+3//7V5vBtNsEe8c3+0t4StvVbrTVhXwtm0XL3vRyzs/Ake/+gT/wB1Z/MybSC7/OswFZ83oX8Ae0FxOYX/uyl6xflCtm1Bbtx3tt36te/BvnFNhrfqO3evL5qpceGdlRYKQEuVYYGmj2ZRi30AypExjTUWfPhjufKd6w69xRw3MW5/ImT9eVO69unQHOBSyOSWcDWbB5r/d6r4Pf83t+z8NO2Uvj6QdT1kmQDvjkxK7xoYPJ6z/+x/+4fjyGExqwJor+Dp+ZeCL58YDaliwykjdttYt+6hMtyIPar59biTbxgkmOzX7v7/29q73wzn7qpVOYMvYhPSG9HflburObu4E+LsRWbse9/kVHg6KVVvVD7U7OVkdlUNuDc3SOyqqnvVvfrkzymqeJ1it4fE6/29f9fb/v961jhK6QbRz32Qm/LaZcqK2OknLBA+jgT/a/8IUvXPPf+Z3feV2UsJ9xygeTrzzejngVdLflMNucnrM+u6rLVsnY0sZbHp31uS8iSmKMLc0/+kf/6PpKIxTcpx753j6QAWRcTGC+/eUvPXzZYuGHZ+0A7zXfu/TzdXf+zsvO3eNkYfymb/uO54svPRLuyNAGq8b99E//9Gqsd3u3d1udTiPrhBw9I07g83806Hy5vEnrvE5zdO28ATZpwXW8O4fy8DBD60Tv+lpt+XP1eH7oh37owTu+4zuuZa4n/62c45C8dG0is/p3q/xf/+t/XQcFu1lRWbEoz3bqhXSB2Z4J5dsyvIB8bZJmPXxdRxfkxY/e0+H1u1fKfCLSZOyO6AM/8APX1aB+Ltgkp3onwaStr+lukBqsv/Zrv7YmgeTd3/3dH7Zb7UK/7bf0CNv87Ow6mduyMMvCLj75JjjHl91a4WuDFfT7vM/7rG1QN5/bygxbuZCMMPsbvWt3rr7UyM9NBlagZLMhmMTQkuu45RnwBOWlrtOtvKnrLJ82gvSd+ZWxB98jV2CmP7t51vRhH/ZhD9/pppcxM/10F5JHxsUGZr8b8bllvtnCxPGB5eh533WveelvntMwSj3uzd/mfNWLxzSSIyMFtx3f+73fux4/+IM/+OEV8tbwoMGnaTTsok+fbdlJeavLeHVOemmXlZe9NgHz/d7v/Q7e8z3fczVyq1Z06mtf9XahdidrggPZqjCRKfuAD/iAdYDErz7ch2TinZyw1Uf5zOt6X73K5zVUR6Jz53R1NOgFZw5u1foe7/Ee64Cfso5q00T0U6bEblbqP/mTP7kOgj/+x//4eleWr6FvcDYwj+qn+G+xK29X/TDLtnWzFb2co6UTP5MvSPuErdXge7/3e6+TcxPz5Duvd+kXKiOLHAsP5yaBX/zFX1zvxt73fd93/ZBV41SduQBwLXUN8aVD5V1D1xNTf5jX8ZnY8gzy61dtce4OxDj9jd/4jYM/9sf+2MEf/IN/cNVXO9Q/TWD+1V/91dV3P/7jP35dXBxVb4u7XvmKNW7g18TmR34CtYD9muWu7uyXPffZtyqg3PW3XL4fYFDCwPBT1R//8R9fDfWn/tSfWmd8yjVjMdRMGvxoSBOuZyfSU5C08tc2A8gXuNBos7ay8WzPSYBOXUlw+c7v/M51ZenBUj8vb3AcZ6uJaGFLty9Fe5ycfWnWS19B2NaLFYfbZAOHHSF7SacB/nxNfedW5z/6oz+6yvKQyh63fsnX0qe8mb8rJeOk+fvSxK5yCbIBveQ5CgR8TTD+iZ/4iZWulXP1tsfjwGbR8llbFj/2Yz+2Bi93NIIzGnc0W/vAPA+up06wPVe+PQ/R6suJXflbvsoqZ7OO7Mbffu7nfm4dV709E83E5Anxk2882mZin1139Efh3jtuX7eObWUYw+ztjo4+AvYtS/+efe4zv+jWjHfDLYcb+JcDGiUoCy5uJz7iIz5iNRCDkO94msYdhdPwOS2tlL2kOotB3R7ZN7X3q+MEz1aAOV11jwO+DZYGyR/+w394XbnYz5s84u/4SKZ9UJZ+0w7l2W82QNwe2h5it3WhcH4lc1pwcLazL/o93/M96x3ZU57ylIcfUBkM+d02XYi8fbhQXtVznHp1Do4ebtk6c6dmUjNpz+BROg7q5G/goZ6/UuLuworcKhmfuc2UHs6PklFZuiSnepXLKzA5AppJD5MPuvhMVC7RE0/gT/reYoCP/ezP/ux6zf92+dr2Oh3A3asPVV1IYL7vrjsP7l7uetSxQq69+bz3mc/cf9+SeW5R/v7/89b5QpFBJAYt2Rt1G84IbiMyREqhgepl9K4dK+98H6I5LW26Jm97vQX9a0MD3a8Lbc/oOLforZiP67h0mOBQbvfN7m6/PbzY5wTVn6n8sC0vTZwkf186CrM8/dk1Gwoq7GYSsmef3Y/DVnbXArw/d+S5xR/5I3/k4buLVkbJLUF1j0oXiqP4bMskOvEnR9dQMCxfym4eaPpuRTY9Lfiouh6O8jcP97rVT9bUD9DPa8f6TZqILlqI3hF/siTX9LGKbCUZbfQzxWueB/S1wbkx5WhS8yqoLSGLqOpPPvtwUrp9sFK2YOOTztcxfb7dtpHWePK8Zz3zVpl+hXLLG73x+aoXh5RmgIzqZ6r2dtostwdLIamgVl2dQUHGZMiMKsF0lpn2obJ99GTmmM7JLMlznOWQDo4GvHzlzq1o3TLZ17RKM3iSV2DYh+jwsiVia8StKydybEJzzGZAR3ZTlp61C2YeHVwD+ujqq5mCc3XSf1t2HKofLbmSNtT/9jD5A18xcNyBRLcrTeCbDMlqyIp5151ZbZjYxXMXTkITjqI9jk/ljvR2nOeOErAbW/G3+SC4dBzYC529a9s+7OUZRn6dPMf6MDtP3fgPP4RZL8ibiF/1twkvfaUePtHCrNd1dBPKGwMw+VgkarM7XBORQBkNxDukv3yvp9rK8NrsvsXSPjx4z+HfISRnjS2LPr7HjIfE7me/5Iu+8NYzy4lAef0th+8AXioQwgiW/FYvHozZxmAASknbBml8ycNB2x8ClJTSNeCkOA2tTqSzlYNVF13V1wYgf+qQrtpSPgii+HjP0600BzuJ7pXRw8rRA4aP/uiPfvgpcnabIId97KeSq7x2uMVlQw5QPTKU0xuNMomjaXOTZbS1sXY6qp+u6uIz02yj6/TZljmf1+44tIXdTG78krwt3RZo8Ha06rYtYvvCbWt2U7/jheI0dY+iPY7PaeRon+DsrQ1vu9hOkycdx2f2JV/z+uVHfdRHrWX8jy0tqAQwCw6v7f3UT/3UGvz1FXuyuztifqDvlPN1+9JQ3wSyShOu0dEHLwHzX/7Lf7ne9Vhh4pk8NHRSRzvzEcfO0Tl6zdBDP88x+IOtmeDanYY7U5NadXf5ibLQHvOFBOb77rxjPeJHx/ab/eJvyVwXWOtfMPE3pxRcahDMgAaJRrsdZ+CTQGD8hm/4hoO//tf/+sHXfM3XHHzFV3zF+tqODrscyLCOvnXwT//pPz349m//9nUrwhPYv/23//bqpOTPDoI6MkM3ILxp4MjZHZWdFGZUt6duw61gjgKd7Av+3b/7d9dXg9gcOM83fuM3Hnz5l3/5wdd+7deuQTfQJ3B4zvtN3/RNK49e1gdt2pXUJ4cTweQHkxaUR4N3/Msv0YXd6NCt+eSzD9mf3ay4vR9tQIP+UC69oaF2sRtfEZz1ez5wHNiMjQU5gRkP4Pvf+q3fuo5DvsX/f/iHf3jtk7/zd/7OulWnv4wPE/83f/M3r3+QVoA2Tvk8vvQoodU/pbYp5Avo8qZv8GV68Fuy0KNzNHH/vb/391Y9+H9+4lyKL79Gb+waC9qZP/ELQdWrk/S1sLkSoGsxwvvMizLr9b1L+0HeZf8LJmYige4P/aE/tM6yHKiBsg+MZoXogRDH8DSdgc3EBqzbCM7CkDpKx6GTb2Vb5zjXcTlBSR0OTDedx5lckyHddtttq00+4zM+Y9VVp3oQ0o9I6HcUlDO6Scg+nZmf8+5qM9qcSuJQjhzFuRlZvcpLoBzoaEVg28OgqE+1VZDzwLBfZ6nrFj+7uGYP7bbCoSewy7QnfuCcrdVnNzqo471qqzX10Ogbg8BR/6jvaGAX+Eu1ST1HE5EfUbAb3chIh2gn5Gc3eulLdtNXIF9/VHfKVq8jGfGZtDPvUmHKuBjM+m7NvQ3EF7LlPhm1C5Tnb95TZvdv+7ZvO/isz/qsdex5JcxE90M/9EOrT7sr8yqdiVwwF0A9P/KeMN9A6x17d2smyX/xL/7Fw3u5P/IjP7JuM/3gD/7guiLng8ayh9uSvgN9Z7zxBXpZqePjYS6fpK+7cEdl3/Vd37UG3gK1Ovqc//3AD/zA2ibXwAfRW6wot2jUJs+E9o3RXTbchWiPSosiq370JG++gijR8uxzvviLbq2Tbn7iGx1yv0g0CPD0YrcB6ddxKSChyVAT8lJSh5kZvadp1W0FJAjpoF/5lV9Zb03sRZpVdSrHsbr19oLV5vOf//z1dSLbEZ7C4skRfuZnfubgW77lW1Zn0SmcxOoAb45gpS6ocAydTrbgzNnw6dZlm+iNR3CNlsMaNHSNdhfk6wsB1eAyOQmo9Md3l93Y2GAgw+2sgeLhqrayk/bjx4mtDPSFQWf1I4i6lWM39kNDlodJytlFsGcjuuNpQJq4DBA2sjX1D//hP1z7GR/l3YLS2WAxAbKb8xe84AVrQBcA2ibSrtpSG9U1cL11YNDU5tpfAnqxG5ggtEtbDe7okoE2ekk+ufLQOcpzBDTy45/Mjkdh0szzeIddvPbxr+62XL5k68e48Es3vnwUn8oECG92eFWRzxtb/EFg5lPsIYDZwzbJ8wn9box5UGirju/Y2jD5G0uO+H7/93//6n/2rgXsf/SP/tE6BunIT4xV/sQX0NguMSnTTcAn03duBGzy+Bg5ePicrx/ZOLf4s3DT93jip87Xf/3Xr33Hn/D7kA/5kHXsuzb+tc0kDuKNtrSVt7Wd6/JMMhY4F/JWxh2vftXBzUs77VJcv8hhH7aiM5B9+BdMzityqUGgxupwMk6DGmolJ/B45/mTPumT1hlXkPvTf/pPr8HI6kvwBDQGsxlREKhdHEmHgYBnplT//d///ddye5mMokwn6nhOpD4nI48jWxUYxCcB/fHioOrbp2twHwX1rDSsCqx+GnBScI4XWufabOAIds4FJwOU3dFZ9YCgaXJ0u+powpEMDLZjE3YQvL/7u797DYocxuToSJbB7sGQSVJdzm5l7V1XNvYQxeC1ktFu/WcvTl36mWgMZsEaaoPEFw0UfWIiMBFmN/kQrbytPQ1Qq3ZBaQZl9PqNfhK/lAetyOnpHOIvv0HjWl3n8l3H46RIjy3f0/BBu03APtqsz/mvhcTWPhPTNsaQlaYJWB1JH9BTOTqTKV/mH/K9S/8X/sJfWIOTVbS7W6/W+ZEQoLNIEnzxs43JHywEvF3EX/ipACeok8Pf+SV6MtKvNvIJ5WR2zp+MUzT6jz+qC+KC4OtZw4d/+IeverK5xQv74FF76M9/LDbIPQ5Tr9PCQsOv+8gGfOim/+J55r777j247syytH7o4vdut8rqcB2qw0+KeEg6iMJ+SSe4cDiG44QZGY1ZVmPNdo7Q7bktFDMuI+Ap6NDLjG+2NXO7/VcuIOpswFOHm4nxsgr1hL+O3AcycnqgnwDXA7jaBh0DWnn0IJuOM4hA9SV6aItbMLahGwfzDipZDVYBTjl6QdFqSD7e7MkhIfkCEDsZiFZNAi2ob3KyGlafPLw5uNtTKw/2ZkPy2UA70JoU6IVHbSJvYtoNbxOmgIEWanfXoTr5W2/BlMiU2MMqyoRudUUnfaseP7BHOvtIHUd5BrJAIy87nSZVx3FODheSYJ7XThBQ+YCJeqtn6Dz7s4k+4yPKTKBWrcYF/9AHAiw/MO7ozs7yTQRW1XiRaczRxbVArP8tgDzAVlc+Gxpf+phv8B++ZmHgTgcNHvoGrbHzHd/xHauexgT7KTO5k2lVLsDThf7qO+LJHn3CgG58XT7f+nN/7s+tE4S2W3CIHQJ7PjOB364UttdHQcxdaqzpgQfuP3jo3OJTS7rr7jsPzl5/dj0/+8xn/D+3KoRbnnj4FPVioWGUZEgrHlsR3VZJR0E9RjEruo2xAhLYJB1pJWYQMT6nsXqz0lXHgLSnJUDoALRuoXW8Mp1kkFnptXeqwwQ2K0wdLbhbYXMcwVhHGcD2X00wnI0zGeT72jLz0XEIq063PeTsq5fTkqeOdmgzvaftcgIDRHvp+8mf/MnrStjtnls8juduRTlnd65NBpRzbaebNpKHzsqXDradrDb0HX2sjrWbTE7eCppu+sV+HV4GjH5jJxOAlbK7FwOB0+snOhhUfMLqKTuWyAj1oVU4Opi0XQeTqAFqwhUQKsun+I0HV3Q02OltQmE3D6/YQV32Bis5d2j6TXusviwSlNOnAMAWUB50TLajpF/dSgsofE1ZNlAe8JSnHK/O41Oii2Py0GkbO7jrqy3ypV1o+yf/FGj1K5/gS7Y2rEyf9rSnrX3Oh/iG80/4hE9Yx5bFhLEC/FKf8y20+pDu5PMJE4CkjL35lp9+6xfnEn34sgUCf9JG/PGlnwUAPzIWjXFjF091bceYBLQdvRUyXW0NapdJR5vl80H6K+f/ePar3XxuF4wPMYQefO00ePDeJQCftV3mTvCwX4rBDz10/i7lzle+9BxDepf5Yr8ul7MQpCMEAAP5Yz/2Y08cmDkYpxTUBUyGEli7ZWEQs7dO5dgGLSfB12yq83QOQ3Mo+jBe+9P4CSxWQDrFis+A1pECvdUGvenLUTk5BxVY3KahN8Pita8t2QG0x+Rir/cTP/ET1wCfjWZ9eQ1CAYGjWek3CTTA4o2WnfBmE7rSy2pQQOOs+rUAYOB0FyBYclLlytS3XcRuAgcb4M95DdS+xUAeOgONrV3ja99PwGJ7ge65z33u2j/q6gdtYE92JoOdrW7Ykg3mACgIOZLDbh4+sZv8Bsy0HWiLwG+v+1M/9VP/D3vhRaY3C+j7nOc8Z22/Zw1/7a/9tXWP3Gpe0LClgze73HbbbWswRiNAGLhui9nIoGZLq0s2FgiBjT1w1Qe+ZYGnvjHY6c3Wz3rWs1Zf+rN/9s+u5ewsmJhM9R8d2Uw9ftlEaIIVsFyDIGOLQBsDGVb2fFYg5bfaU4J8yDW7uXvQPv5GXv6lDezmmm/xAfn0U0+e9uJDL2X0dmR/CR37A38w/pQ7xx+PaMiRj6drdlaGjzK8HZPtyL9AvkSXfE65vOQ7Zx9l9KBzAVy+WMUOtmn0rbzqSQE/viY+ZeMt6DHrTNzx2y9Zj+S6W6OvXwDab852193+ihevHzFipDd78jutFS4UNYBSBHA4wfGpT33qKlx+jd0HjeaEnUvqOtbYEhnKHF0zOP5oGX1e45mx0QZ1laNNb9do0OZcjlJ8VuMt9LuQfoCXgCXA2AopoMUvoEdLluDGKdFHt6vtjvLVSxf52uIoz3n2jId2VW/mu572zFbJoUd10OCrXW4lObNJQkD+83/+z6/tjGf6OGc7UBamHdCQBSYQDyFN7CZRoNMu6G+rWrbmb1N3PN12/9W/+lfXfVDbMwakwP+85z1vvaXlq1bHbtcF6b/4F//iOuF7ov+5n/u5a8AUfP/G3/gbB//sn/2zh+u7TXfUZ97cEbCf8YxnrHUtIMBkduutt642Uf4lX/Ila+D/tE/7tLWuCcIA/eIv/uJ1IhB4BdYv+7IvWwOjPCvXL/iCL1iDoucIVsMCuYdZ7FWfOmoLnu6irCLllyCboNWH7kz1mz4U8Oob9M7R5U/q1UfZ13nyqwvlzT6FzuVD9UqQz8R/+p4j3socQ3VBHW2LLh2id14iR75Y5a7p4z7u49YJQhlMvoBeYNZPfI0vRBtcb+uFu1/18nWcoyG3dmkzP1719l9KX0pQivBpxJOCLjqCoo7q4iG5ljqvcQyJTnuggFSj0XSuTrOp5NqRwfEUnJIhTzDJUZTJPw3UVYc+tWVi6lFfSJBu8qMLtWnyI0sd+kMOAOg6n3LKg6ljNHhUJk8ih128wSGIWb25dRWUrUbZSl281HPOdrUB/6nPLpBRO46iC/GjX3bqmK+4XZanTVZNAp+VIFj1f/qnf/oaNAVMKzcrUs83rILRqW+F6TbWKt6gbEX8KZ/yKStvZQK5Oy82ag+WTHd/6tmm6i5OnoAr38QhkNsiaAsQHd2tttHj69afjfF1JNc55G8gPxtsIR/f7LZN4Fj98us78lxPefRz3lHd6EP8yo9vvNSdfehcwJrtQxNdUD+5JeX5n2s88+PqyAd82TJ7hnSTV5r1TgvyuxuYfaeN/lr2GmO6vbhUoHBI8WmE46BOHc3IHJuiszOcyze7K9MG+RlLQx3JnQ1nCMndAVoGCsmVlHWOtyP+5FV+UqCVyKcHxG8LutJjOseUlU0k7Z5HmDynvMkHjXbjzxbo0lGZRL9koesabSld2cQ2k+0it9oFZTKkdEjOtk3JnmnCtbqd70I8o6UXRE8ft5t0tNq0sjcwPGvQxgIffQVqwVZw1m6Ql63kWfnap/ycz/mcdWsjW9ZW9OTRQ1AX7K1c1UUj2aqyQvNKorsBfibP3QedTBJWZFbsVvsmPjp64+QzP/MzV3p75vq/tgPe5M68LeSTAekz62inPNA25+VHY/JwV5AvSQEvdaKHeARlkFyId6Aj/u5U2CZd1JUP2zqVS+rXh+rbNtLv6Yqmc/XQ00f+5LkLyrPhPqTbNqn3xMUfxLBk6UfIHmef9YV/5VYEHOtxb/Sma+HFIEEaan+WU3EmjpRilwtkgk4j23u8bofpYO9R4//5P//naye5DTSAZoBjFHDcOsw8hpO0hU72y90iWSW1J7cLaJVZEZk87DvSTV5pH9idznhov/0yD7QESvvNtQ3cNnuf2O2u1V4BIxrnUjwBT/tv6tmf7wEJndBoo/fJ3RKThxYP/Y4PTN+QdrVLfkc82YL/zL3SEJ+SfrbyZOctLR/3PMIixLaD/UF7w4ImXyBLoLM/a7Xq2yQCtH1xbZJAcLc/bptCWQFV2/QXO8lz9yB48Tt9KZDLpydd1Gl/mO9J6NSxx89/+Yp8/aUf9ZNxaq/b6t0bBSYV9p9txdvkww5kZYtoyAwCE1qy2Sdb1vf1HTrnjtptO8eWiVW9yTlUl6x4sYmjuo7K0DiHgmMy0lNfGTf2+NmBLGXTT5MDzuPlnK3IduTrX/RFX7ROuPqbLeMD6GyD8dvGRHqE5DjyNT4z38ef2F5PPHD3nWt5v7Z2Hr1f//nl33V3/PZL1od/8CZPeof1eKGgMMPWoQaVQWCvtCfw0xj7MA0w0XWNmOX46hTJIPJ6jVtKv/s34Die1c2XfumXrm9y2E/zQxIPYKz4BBk6p38dLF+Co4w9y+iVbvhYWdi3tOfXQ9CJ6NGSb0+R7nQ0mHfJr06JY2V3ya30V33VV63bDN4bnXVMSNpuv9OeqdUcH+BgE2iTSTf7av7AgWDGIckBNILH933f961BRUD4B//gH6zvnXvIpW5BfK4S5G39oTJ1DEoPQr1GJTChnfTJp6dzwVbysLCAJB8v4ANuFx3J1l72NQjRCOr4ty+LL1/CS7kkWIPAiVbwZDtleOkHwF9gya62M9IHjZWbgEYffLJ1+qo/7V8+WvXpLDjPPkMPJg2rcQ+myMBDvXhlr3jZFhHse9hMjgkCXe01ifFdbbztttvWYP75n//56wNc9JLJU3tt9+gv9OppIz3QOscbrTxy1UXvToSOEtl8SgzhS2KI9qhr5Wvy10/aAPHVL3yQj6vLRgKx86c//elrkPfWEbna3mci9BU78A1/4USfxzu7OmY79jXp2o/OxhPb64nf/s1fX+2IRtvpgS/bewjoRYyzf/XLnnerL8shuvkJF/91OQIyLOdjEIZiePlHKbwLlGZ0QcT7swKOwSDYGrQe+BiMXqlpALn1ef7zn792ilWAWZAhBGABUh6H/rqv+7r1IYpOtG8ogKrvaboJxeqJ0afD7MO+Mp3ICczGZnw6blFdNjMg6aNOela+leFaHTZyZ+C1OTYRBNjIAyOvgllV0YPTuZX3LrLBq54PS2mvFYUHTtorAGs/W1t5m1QFLc7IeQQrrxihMQFaOXnbwmC1T0pngZ/90QnmnN57wq7pV6CYbZ/QD1bmBppAj+cMLpCvAXrtM1jc9hdQspGEh8Q2UhNDiY9ovzaqp9y1PpOcQzzIkO/aefzxmjTqyUtf/MnC3zH+JXXKx0d91/Klglr6Zzu8JWNOoDF5RlPZLvA3tuZv/MSdlh9hGRPq8gF97dpY9h48f9Y+eV7/4yvGqQeo/AQ9n3DXanVpoaEt7rgsPKy6+bhyK3wPed1V8A19abwrMzkb316rE6jp5v1qPurupcnAnbBtID7GVn4YZlLwC1UrW/HBg2p//k1blftJuXz+YizQ235/e//TXtkYnGt/K+b8ZWKfreHBe+49WKbKhej8HyhZ0ipPPy3ldy3j68xrl1mm2fNSYCpUgDDD5ZQnAboSqM+QBqlO4SgCsqAg+NuH6xUidXQUoxmoZlF1BCz5GUFHcHwOLKhxRHztO+ows73gr8PRxDudTgrt5njtMUJ8tilnYDftEgzV1z+76pUHgiXHNyAEZHWUaWf1vReqnb3XTR+6sS152m+AefDl57HK+0GJZMC723CO1kRgwuXcZOkDid3JFETUF/Dd2jsa1PlCuk8YlHSWDKxefVRnV715LlipbyImvzp8u37X550X/JxL5EjKO1bWuWM6JLvA5yipi7YyaZ5P2smrfEeY11v6SRe0Od/nb3TY0oTsAyZQY4sP6TOBybWHmWxqUtXHxqFgarUqmHkLxUSMl+0fY83ihv8Kxh5W8gf9KM9Ch097ndEeugBt28CPT9DxPbwkCyhHtFa12mvMC9QWSo6CPRpHMUDQdQdsoiHbnZPtHmPapAH4aAs/toK3useDz6pnEaKPs81Etu88lD/TUXho8VEy0TnydTItkEk12Zy5eekIBQvVYa1LCI6hExmOjOMU3gfBwwxrwNkjssdnwLpF8SqV4MCRDEoyOAuj+828p9zKNVwyaHSSwMsJ3daYqTmj16gMVLOhlTRZHLGAcCEwUDhJgXAf8E8GfU1o9JiDcR9aYfQmgSBbvvbGAz+TkL1Qdw/04ZD0Y2PB0yBgW6snA8+1gSUJ6GzObgYxPiY9qyAOph6eBiH7Wk3gSwcDmT9YVe9y+kBP+mqDgc5u6u0KMl3XP4IRHclgdzqBMvWzQ/xK8h2VSa5nKn9btotP+ZPuQhIebLnllazyt7pZVRpvbR0GNpoJqsNubTvgq78EZG+i0EFf2+d/9rOfvQZU/Wuc8DU+ZoIzXhwtYviWV/vk2YIwhrzrzv+UmwiMYdDP+kmiCx7Om2CUG69SAcybQF4l5H/aQgeJL5MpcAuy8cZTOf7ihJW4RYpxpm140A2tuDFtdDnA7tpBRn2Qfvad71/aeYZr+0OA+4f9hUMHN9MWOOsE6aSN5yQawGkEC0FDB6uvA8jRCTqOjFa4nJRc1/KdcyiyGQZPt770U65jBQKBx8yv09y6kXsc6szaBo6ci44C3HGoPh3JNRlp13F2026rCbM/kOdceww2dXQ6hzUbexPAbRs6vDgje7g1TE/1Oa9B6EGYuraIBHY8XAvS9s0FQ7Ymj67AhrZLBOv2CuUZ7HQJsy30BHlWXK7ZQT/twszHE3/6CwRzwEt4lkDd6nfEYysruhKa0syHKWPSXco0ZSY3sL0+QtddzJYG5PFpR7YxvixM+LwVrSDFp2xRsacy7zrzGZMe3zA2bDG0L69/BUq8bDOgazFl4SNYe95AP9tcfMs7465N7hZRtvq0gW624PBAa/waR/0q00e43LHxK9d8DL1fcnquok0eTgvA2mR1bIybSMjDz3YGfzWJ8ReyjAO+vc9u+U593PlpQWcTDbutn/hcjtpt3ONH8nWve/mLVs4I3/ztfpfTC0YKa5QjYQa/2VLnMp4AIOUYuwwQ8GBkPGxF6EArAatcTmNFpXPd1ugc52ZHne4WWvAw0/fwz2yK1kypk92SC+ro3FYJQB6U2e/ifFbeOpXD0ZcBt6DjRDoDB8CXnlYOdKvdu5DNHDmL2346GRzqhS0Pg8jWA6fTudokWFpBW7UaEGQLVgI4Z1XuWntNWAaelZOPvbC1AeFW0A8YTIQGhv1Eg8EgM4gEeNfK3V0YqIKjQea2lY4Ccd/p5fj6iF2n/uzKZtruyG76AL098NWBz/vMrj6A6lqh21fUv70NBOqRuc/2VyPytXxQENQnJkx3P/xga+cJ9fI5vmNriq+YjI25JmB9L1jrNz5iLOGFv5WtpN/RC3SCNR6u6USGa0HbhKu+8aqcn+tvvK2i6yc0dNLneONp0dTdszHBP+gA/BAv12IEuwi+Vucmd/4nxtG/1bcyupNlb5yviREwfS37BvayPSLOeDAt4J/Gr1770hev8s9ef/jwr0Vi9oT1l3+c1/L5cW/21mvmhaIG1OGM08zroZMgZ2tDoyUKHYV4MKRzSmuAeslgPEdQhq/GSp3j4bxj9ZSBfHnKBDYBCy9JmQ5EX0dNJDu4xteRY3io5tbLYFGfDHx3QR3ylHMWdQ0Kf46LUyerjoyPfHauruuOZEYHtbVycE4e4HPbbbet+33PfOYz15VXwU3dgG/XtWleZ1v5eMJsvxTipY5BauCZWE0SBlX97Yh2F5LHR+yxu1Mw0Ax4MquX7Cn/agNb1I/anf3s4ZsQvQ1j8bG11fZa/XgZY2xuZSnYNDYFCzT1abKADcsrX55z+eq5nvUhevnQuEYTb+XgOj7phN755Oecn9E32fw2mvToKF+9Fn3O3Y2bBJKTDukZ1DU+Cszq4HtSvO5lh9ujZ5a11npc5PhhidXzQ0sbTCJnCDH4bTxfLKZyszFWnAaI4JwiGegkQM/gghNjO9eJgmhlrhnUEW9HUMZwaNV1nE7nGl95znWu+skxG54G2iQJMNprVhdcTtrWQH8PRgRMAT6HhS0v19MO0wbZob7Rzq29JO11tHqW71aQg8grsG75Z7+uK6NP54CflA71f2nCQOH0VuHty6OP11HACz270d3dUbZy3NrtakTtKLGNMWxlyt+sJK0Kwz47b4EPu7G/7T2oD2e/o2NjeY78pj5qbDlXHo165M88NPKUqVddRzTJNTYrqx2uK8cnHgVVdZzPMsfaFH+wCLCN4c5SW7LrcfZKl9JpkM1Mhsa1/rO3LCjDqu//99zn3LpwXpRdAtHj/u+PcVwIpqIMIHEWt7qUcRtTgygFjLgP8UOjQfgxXp2lcc5B/uww+WQ4Ryvfsc5xPus41pHbOlJQh9xS7ZCvjbYwBDm3lG7Z8NryQTsxr53rQHU9FbdqtwrapUd55TuSFb8pN3p5UL7gK89DIFtF3d2wBRtGv23HlAEzX170MOtNOon93Kl4q4TdWr2oHy9QZxfSI77sxW5uobUp/9BXYdbZh2jCUbQnxZbnLmzlVGfq71y/uY23RcVWtr66u2KzafMJ5VL+i47N2MudmoXULn/LT8ovbfMAf+f0Ks85pB90LG/ycJRXfrSdx3vW6xzyH9fGNrjWDgtSdwm23jxfKQZEv4X8jrZs3JXZ1ovvSXHP7YdvW910y00H9y+xgo4FafnS2Wc+/em3XnfdMus+cGn+gknG2SZBpsFiwAnU8mEadaK8OmDS1SGVd5xpSzvpKqt8mxePmb9FHZWzMqwVrj1t+7te1bHqUzb13cULZnl1DBCrP9tB9s6a1cExXrNuaat/efNaCqtDnLdFwXgX/Uz7aHblBXKkgoKgnN04vA8Dmbxnv4R5voUy9Hh2F+TWnr+xo/zo0iF+R/GdOCndxWLKSddspqxyk5mtG3bzPEA7le2y3S5M3uqYxPib1bftN3eM8gOes2/n+XHpOFpyduVv0z4+sCu/xHbZUFA1AVl8WIgIrpM2XruAhz13PDzY5Gf7aHfBH2O94QYLhUO7k02nFpCC9NnnPeuZ65+WMuAv1Yp5Fyhg9WcFZk+HAh4sUKqOP03jJjJmKWzzT5OqfxS0qY5G24rPraB3Kj3w1GnT4eA4voAvB1TfysUtpknNwDN4JqajngZkwNRrl74Tp5WxC+wFJrRWfIILu9mPt69NB+3aNQj3QVlt4me9LdIPZ6wG45cOp7XdSekuFls5+Vl622e14vPQSiD1azX+1lg6rl0z33n05BiXjh62sxufcy1w7OK3T8YuHEV7Gj4nAZ0lYDfnjrYvetjtzqw7jOn3R+mCR4G5FfNpdLdifuihRd71h6tzY4C/6gO8Hc8++wufcas/m43xaQNzjd5il5IEytfpAo2BqHGu2w+CfTxPAnWn7HidxmgnBd7xr6NsX3idzMrFakOQq12BLifVJ5vhYWb3ZNorS/K6PVd22vZN+q29jyq7GMTLkQxJcPGU3hslJjVBuSfz2q5927Ztr8PMr748e/yu/WBBYBGs8U2P4+x3Ke2jrjq76sV3V1l1tAkcPXfwFoVBLSh3Z4bOMRzFF5SXAG9Bwrj0nMRrafqGHeM96XdBWTrvw1FlF4PJ17k+1ya+ZovMq3xWyp5h2K6zWKSvdk27HQV828qwYj5tYL7rtYffVvGxfEf8xOD7FnvT4Ubx+HUve8m5Ivbj3/J0b2XsM24dswvyLdW92mLlbNa3v2Ofp5Ug5dBNg+1qOJqtnOg66hhIp8mn83jMMgaD6kVT58WX/n7SLChbsVgpzyfi6k++sJW7C9sy+hgoXnWzctZfbOaHG2b85O2z1ZS5le9YasXVNdpJj3/OtMVWrutJ6zq7eVjlNToP+jwcthfPbq1aakftOgmmTsklj39bjRuQBpFXwsh0lyiRgXbqV175Wz2SpQyinfVmHXRSZZ1Dx1B5510bN17j7FUtbbDtI7hoF3nVC5PPFtsyNtN+CS/+5sdH9mHZ0KuOApqFlLrJ6xifLd+uYZaRFybNxDa/ejN/yk8mmvgLyCYy7eBfvp9jAVBAVT8eEI8tymcf7+h7uOwPKxh/Wz2Pgrcy0D907vB3F4Iy+X4RyM5r+1770hefc+JVjSdcwsC8xaQl3AxGKS+m21v0mo7Zx/uwBmh7qXQ76XuCa4MWuq2Rncdrlk2aEG1585rekv1Q7yYb7B5oWq14NUtgpuuUAc7n9UkwdQK6d2QrdhPU2Mn7ulboJjbX25X6lI3vLl3k481xHfWNPHziVTuUS87RxLPrgMa1gAIGuvdQTWSehLuV9B61NwkMkiaFeJUuBGR37NwtP5v1PQXvWHtjxq06m9EBmhzSP8jrWtlWv+gnXcBz5m3LJ6+OaIwT21gWAIKLgMxuVnvenDFBQz5X3S228mDKqTx7KePr9ObrnnG4W6OPPuNvxml3NRIe8SwPyu86zGvn6MjetqUycOwc4l2+RG++ZhvLnSy9+82DRaAtrYLyNsXzKGwDM1+q7klw9+8cfqLigQfvW+tpM32z5dr+V7/4t9b3mB9aCB//Fod/JeKk2NeAXUpOWg0zWNHJpxgD+r28h2auKekWyjn9JtRLhkY0kCTXM48jSb32Ft3UZzXS0pl0ohuZaEKGo4+B0AMRs64fzbg9Vo/OynOsie31cdjaNp3IoYtr7TJg3H1YSdG/W/eAj3rJV6/yrQ3kZwvH+iiZ8SEXnOOHlqMX3BxBPUlgaVWvjoDiRX4TGnupz57QMaC/EOAZ0pF8fagt7OZn7CYKOgja6Mh3BO3MVlaJEtp0SoY2Ome32sxntds5ng06cMwWHec5WkldelkIsB9/81qXIz2ii+c8bjHtEaJVJrl2JJcu1alcoGM323UWB60U2VOd6kv0k9hSPr+ofWHSs51k9R+v4Fpf4FWSVx1JHj71kXJ2N1bdWfI3ZWibgKftoSM+RwHviwnMt7/88Icz9z9w79oudlz1Ot+n3tS47u5XvfLcg+cb9sS3ftL5qifDvgbsUnLSZliGyaDOIUMLChyB4vhVHh95kmtJQ6ehnUtWtVaX3pAoOE/ELz4SncpLBp3I0Ak6XidrA0PKz1FmALoYkDnRdboAOXRlI/IN4OyafPS1Zwtlk++k7dVGDze0SVm2JZ+cWadytgB5rtPFGzn4tFKZ/ZXM8moXON8F8rbAaxemjtqEJ5vVbwKo/NpUHe0sIOhnuqsTv+Q5l9S3wPCw0Wtr64LnfN1oO+LhfOZLdCOHjyXL+eyDXUEuO828CXW3iFZZvLsGugPezuU3HrONI9sJzqAMnTZL6slji3SEKUPibyZJb0hkLzSl0PnMA9f4ZD/js/6S8Js2qr5zaWLLO5Svn7214s5PYCZry+MovG4JzNdfb5wc2sZigW74Oq7tt5VBccZ90ye//WHNqxS7DGqbxCzvFzqCwz4D7qq7j5YDbLGlPU1HnRZ03aUDKCP7NPLVkTiGes49nLUP7MGSQSWP08TXdZjnsNVN+T590CrDe/I/DluZsK9utI4zkS01cCFdToLqxE+Qspr0UM7X1mw51C4JTegcj5kP5ZWmPlfCXlukx5y4QnqcFvGpD2wveZjmGY2JaAu6lva1JR2Da/npeCF6TtCzo8AsrvhVrsB8Gt6vecmL1u8T2VO2mFL3FovGRV+TnfYveYez4cUq/VjCdJLSlQR5rQR2JX251e+ohF5qlROfk2LLb+oixXdfmvpeLjSYyUqnuTLNBrMdx6UttuXxjK+jwGG/WBCHxt4u2vScZemajCuBZCV/rtgvVZoorzZPOmmLWUa/0uXyrQI+GReM85OIPzG1bmWcvxOxnQFnOIbbkLOLsa9WMNRMM2+eb9PVCrrrt13ptO2KPufteq6OTsvztEg2kDXTNu9CMetOXsme6UKx5TMDi74BR7fsnqVYLYXowi4+0ZSuNJLPdo4C04XqURtKMPtktnm2u/KZgvNtveoeh3xipjCvO+J5oYHZYgAfR6/IPbj4BF4ma+PuzrvuOjhDwLp/tWRczch4HL8GNhjAuTxl7RteKNis9Ehh6rBNx5WXott3ZKOuTwK0+9I+HDd4GggXi6lH5zNtB/JJ08TMi9eEthiAtobsT9qPnn57krZOHa8ktu1Nj3S52BR2lW3TlD112IXo95WfFNu+sRrfxpiTAqdtvfuWmAQ+ZrQEZTovSi/pYgLVow05e9ApAnJ52rwFmm06CXbVky4ndsnbppPgKHp5BYutU8KsW7rUIJfzS1sdTiNfWYNzX7pYHMeHfG1A4yG0ge2Bl/eEW0hIlwvpN9OFQDuy5aXEVq/Jf+Yfhei26VJh8qs/4bQy/MFVdSV9v35A7jyv+5cV9PqAei1cCuwbvSGgBksCi9Uxh2fI1QjnB0G017Af2fCRhL5qUr2Ug+xyocG7T1d+6GGR7574Jacfi3hgqJ3Z+2po5zVcONwxteIWd+eevTyvDJ4Rna2Yzy3pagIn3pU0zusn3sbwlLcGC9DeW/XxbXnxuIb/E9kke4ZHKliQmy5Tn+Mw6+xKlwN0laZ/beU5t7coMNtC5Kt+NFJwjmbWuRDE46j0aMNcBDwa9dtlt9PoOetbbASxKdjqWh9a+kutN964rJYffD3h1YKtobr1Bj9d9hI8GCxe1Lc68c5qQabjNRyCPaY9e7hTeiRAB4Fsq9tpkJ+ULida8U5fnCjfqkhgFoy9lmhbw6/TZnB6LIFNmpgejZj+38QLF+JPD5zzY5LDd7wl/i0YL0JWGwjaZ3xI48EH7z94YElXOxhM0lAf/bF/545AQz0Jd8vgV3oZ+XIP0qsN2WUet+lyY5fM0tWCfbrK55+O9pl92pRvmnx8z8Fdnl+TeVujLbjHSqA2Fpu0HgnkYzOFed1x6luALR3XhrvvvefguiUw44WeD6w/0jn/TvMamDmAk6nI1QRGyBC1gaP7ua/3RbXPILCt4VsSzhnjNEjGUelyYJ+MbX7pUmHL81LzPw306UxTt3Sa57uw5XG5sU8Xsg287gIEZqtm/mjFxFfd0c3BrU7tK4Vt/kyPBpxGr235rDPzT4Mtj5Okk2JXXSnsygv6/K477lzP+QIKX5SLdl1g+jXc1Yw54HJiDfPZwmYig6A/rsoQpw3MjzT2dfDlxFbelZYP276V4ELssYvPpcTU5yS6ofERIIsF/uobJ77p8C7v8i4P39ry1cuh66MR7HG520rGNl0qiCkzruA9J9gJd0Jnzh7e2YPX47yNwQ+AHc54Mrz+EcCrLFityptZRpIncei+tGb/TnD23Q0PXNDl8NLVhEvtTMcheex0JeWeBvucv/69kv1MD/61HaQwdXSu3D6zv7P3nu/5nmtAVncdtMsR9rXtSoL8bbpcaAxfLWCL9N1lm21bpi+ee+jQB8BRvwvUbODn2mcEr3vuvnsNVm8IyDjaZRVipez20LVbx/WJ51XmAKHO3+UElwNXUtaFgF6Ppn1Y+vAv+vSkXd5WP76HzjMPn4r12VO+aW+5B4DZ/NFgezrMdLXjYse++vrIHTkUT6Rs1LW0hb4Xj9a95KVuNs2X171mmfY8LjVS8EIS5Uq7ymfa0k3j+DyiOwJPvK2grVAm74nqSGHmlaasMMtPk7bYRbMvHYeT0M+yLZ3z2grTrjPBrvzSFiehmdhFP9OuvoQt3cS2bFsOu8q3eaXg3ALHMZ0mXSmwqUHqKEh7YG0Rsd1n3tbflbLDNn+LmX9SurCPNlS+TduyfdjSzOtLkdhH8CsAzrJd8iZ2XeMB+q/gLM+kLJGzrQdo7rzrcI85XfiNO/v4nFHNyeVGDSlRyIzRsf1gybn3O6XZuMmjc+VehROA5yoF7CnL85ocp28Q1N7Jd5vKx19KVkZPj3Shc/Tlzev4dL0P6sQXOp/8HPchOqm621T5FvLm3QTa6RvVm/U7Tszy06B627Rts+uwpS1tMcu0C3b1ReWTvrRFeZWzlSMb8jXnVsFbm6ObdgbnFkhuZ72hAdWRZpsn0p//Ceh8s/E0ZQZykjvLJ922Tpj0+5A+6Go3bG0atvoEefN6W3dex9txyokuzPjCnh239PN6i1me3jDb4dtDxaJdOLfoaCL282sfLbJ6hnVSX450Wtzj7EJ5Zlk+H/6VicuJGus4HScDZdgaORs7oU70HNy1AeAI6ii3SvYQ0ErZa3Jt16gXkinFM72m/K6VF5iTF+Shke881Nb4xXNC+UzqJ4NewXWDepsC+qNSvCd/x8nDdXC+rQPq1XdbVGdX3eoH1+kVP8dp562PxCOdlZWUx2NbryQ/XaLdlhfkXO+C/GTiQ5f6Jj5b2ei215A+PhUqwPYOPuCXDHAsTZgM8vH02soB5/IA78rkVU8Cx+gnr23erjJHcA676uyiB9f17ZYunSpzPfupejDP2UZAbNKE2i85n6n8aB3JSA5s68Acn7vgCcLZheW5cxagdxw8+ND9BzfdcuNS4LOf96x/2WThcfjR8JtuunTbGbNBM6UsI1oNC6ZWB1a8dPCATspJJUaYPCTlveupHE8/c80pQWeZibw2568XePvEbEluH/WGeM7OLQ/wxtdRfTLZTELrGr/a5TrHkeRpY/o2m+5qlyRfUo+uzfJ4piM62NYt/yjQswT4tYrYx8s5ncifek99tvRdz+OuNMvwDmwkQNVu52Rln2hrxy7b4JGtZ0KrzclUT5JfffX4ZTLLn0ATH3qoP/nxG69n8pXqO0poo3edPwkcfLVXPaPNBxxn4iNk5ZNTh85LyVfPOHN0HZxX1zHZ1Xde2yZ/dCWItkSOtkRfmvVmGfpZT55xo638wAP92q3cufYYY8msrGs8lKMjT984koH3jCfy06WUnvN8m4Af4F3M2IXrz17/sD+jgzsXvbydYdLQj9f9zm+98PBPSy0CT/sXTPYh5cFRg1OSIgyLhtM6dwvX/i+FbUsYFB6EwKro+fr4Recon3Gduw3MIK6d+4KXP1fu75QpVya1rTGhzlx1OJJHPug8PKzCJWWMCyYGejRAJPwkNGyMHxrHOiBwHqh96KQGtsSOyumgfvRblIePNrquvuOsm/OmU/T+cKm/BOwPDAgW8cx+kN1rW/ny0E9a15PHtlwderimY5O1IKXM4GvyNZDoJFV38lPfMZtuET96q+caL/VC+sY320iV69fqd86fv/u7v/vgYz/2Y9cHe+k66zlHT14y5Wkvm5LlJ9otLLSZvsbJ1AE9Oxk7fAJvCU9l6KYMfOhq7PBl9uRfgDY75tP0pn88pj3RoU8n1+WjU5b8+lUCeoCyZP7sz/7sepfgD6UqZwNtpoO2xc+xH4vRXV020xZ6S3SSnzzneGozmcrRpR+e7AX4QnVB/Y7q0c2fwfODIP3sbwgGvLQXX3TqOJ949Ute+HB/xY88iR7ozz7vWc+8dRW7EN30hMO/Un2xILDGUFTnOgLhOV+GQesbFj/xEz9x8PM///Prn4PygxB/y64VtWDN6R3l6RxHSQBndB0ZjTrKgONyRqk6aMyenauHp2MDpDroovG3vvy1XX/BgFE5x+zMOkZ9+c611XmdxUlmZ2k/uhAP/HXg5K+u5Hxi2pts/LN50A/q0WFCHnno8cbL94LZ0B+vXB3lvM7JTV5tqmxfih5ck1Ve5fowOekqOAW2UAbpqa8c2WjqyAbyk1G9QBa6+kfd9AD08oKykjqSczTZDsj1ly28/sbv4o9fvCev8ivDR1u0lW8KOAU/+dVBV3/FH9Jn2tJRPSBHHl5sW73KHfHFA632yJPkxQ/Ynp6Td3rBlA+VoUfbESye9Lm//K09U0/jgOzaoUw+umwiDx3+2iVPfUdwLqkD8cx26eW6uunrHOS7RiM+iVn+9Nr0UYjXrDdx/113rEc61A62VG/9yybq3/nbLz/nD7H6Mydv9DZvu1a4WGAsAaUaPBTQ0XO14i/YCnby/JVsf2zSi/cpLMUHfefx1/hmwjqHMzM6qI+3cg7eCgD/+NFPPeWrURb+6nXe7Y/Vm/pgdjfL+2vPVjX+/L6/HIwe0NdhyZuIDtDiOx1Pci6PfjkmPWewRgfZHJ32ttKWh5aNOlcf1M1O8anOv/pX/2q9nf7ET/zEVa58SDc0jumofLY9fuVFX75rUK92mfw8F6jPKnfOPh7muk6uc+1Cvx0c6NEoQwfJdsRTGcy68Q6upzxHuuoT13iwoXx0Jvfv+q7vWldSnmvw94KXNscHj2zgGB9880MfN1LXX46ffZAOUro7J1//qqv96qqXbsnDZ3uNTh44qkMffOOhLbU5f+JnruOXP6EvKZMff/TaSVfl6vlTZu5uP/zDP/xhGeRpX7KboOq79FKfnupJ+OI/2xM/UE4fNhIrwBgniwz0+OBRf0B64GXF7G87tmImH6qXHuVN3P6KF69//JqX0d1DwEXoKje7rB/K95RQIy81CAUNkcgCDqMTvv3bv339W1/v/d7vffBn/syfOfiQD/mQ9e0JAbDG0EtyXX18nUs5pMRoDC4ffR3XcdJBNAxRx3E4NBlannPl5OpAHeo29alPferB533e561/KfvHfuzHDr7ne75nXeWQhSfeMGXPJB+6Bnm1lTxJm2oXOnnRh/IlzkZfwEtdHc7u5e+Cuugc1QtTvwn61IajMOs6r8/qV/rJo7dr59ndIETroRjd2Z6OyS741Ha0ElopW251zScc8ZvtnnTzHPBGQ64y9abPOabHhLbMhAaq41jSRu3uB1F8Lnq08a6tyvKRdMkm7OiuD7/K6Cw/3ePVMX7GAprK0lVdOqV3SG4+pp3xrz+Uy8MD1AEyayNkC7R0SFcpHfGnYz4izzGZ6pdXGzqXlLO11HilTzq5Liinm3rpUHKtPRKdZpm0BV5+O6KETWrXIvjhBdXZ5z7zi2/12c/VoLf8339F+kJRAyXKUYZwR3+1WiCz0rSn5PaFAcxY9GCkgggl4+O8hK6EXt1mvAKtMrTOy5MazJU7yqcnHZXLrx3xRcNwrsG1ScTKyANGq2czv8mllV+6Q3Yor3xH8urIrtNvtqc068Osk1zXkvOj6oXK1HFrafC5JS8/2o4wy2Z+2NKmU/qUzy6u01cbtFteR2XyS+jK39rOUQrz2lH9WVee8+rKg8pKMK9nAkHCasqdHx+IJzgm01GiRzR4VC6ZqNhFUNquTJOHHtIhPqUgnx1nXnbcBTIkdRoP1TVG5Ncv5W9lOp/tmeWuye7a2Mnf0rPj1CMe2UJQda0MDdqAJvmO0sxDH50xnT7KwLGkjrLqumN+2cte9rC+0cyUrtLEA3ffuequ3jrxLTrXr46rzHvvv3f9stw9973+749dLLYKOSbY/tsv/MIvHLzP+7zPetvi9lQZGgpRtrquO595NbxzBnXumHFnih6qs+XtWvC1MtPJ+NClgB998pQly9HDQLc17/qu77pOOtrJ6JCzJGuivHScuk0dp3znQV5H+cqrU5KvTZWFympPbZoyop/H6kUX7UR0oWtJvamLYzzYyjU9JH0ipX/58ZoJj135UtiVH8/Zjlk+zyfQZ7NkT7iunbVZQluC6krGAlSvB81o2Cb7RBO98uqsq6/zebVNgmnf0NisHuBVsEueI576w4LE0XXAJ32ilWZ9Ce/4zgTVKaUHffFGl69K+Qe6aZ/a5zy7bPlKBeQt0O9K6qgPtbf8rRzn+2CitZ1x83KsPj0cl4yDM8sa9uDMDQvTG3fPnBcDAlOOwazCBGVvSAhgBTw4qhFXAtOhMvbUf5bP/HnkKO/7vu+7tk87zahubbRxduC+Tpsdui0vb6awq2ybwnFlOVftnZh1pq7HYdbb0nfNKZ1bcbadlIwpa1+adLCLZlfa8t5i0p40wdaHpoxdKahnb9+nBAo00N0mf3LLbD/efna34vLYzgNz52jZ0Zs1aPGNh/N4e8DrQZZz5cok+uqTac9pq3g4TlQ/+tq3K+1D5fGZekDnjoI2GnZp9ZxccNymkD0k9U+KLR+Y/LdpC3rqq7vvuuvgzttvX8cc+enyoJihYh1yKVDHdF7nCVIeKAlaPtySMinuWF36TKN13jG+pa5nnfLiOWmkrif9NlW25VtZx8CBBGeTjgCtvQaG+rOd03Em4j3ThDq76oXKZ4Itz6PKSrVvYvKdaUu3C9s6W5Tv9t2E7XzaFqK5XKm2T+yiK0F1Zr2t3mHW2cUHDNq/+3f/7sFXfdVXrQGW7zi6+1LmmYxXGf01Hm8xKcNDfQH2+77v+9a3h4wtzzs89/AGUW8YoVeGL34evnvW4zwdHDvPD6a+M02ak2LWVS97TR7yGqcQ/awHLSSMPX5ToFbfMfpdUHemfSBrm6YeydmXtuhO5I3f5E0OHr/ceaBp8pHWBStCmd12XwpQlmFKeHMODzM8KCOYYgahI6Oow2E4jnc47Tn5KyQeEnKaOskRP8ms41oip/rzOifMsb2K59sZVu8+pG/VQTcyOS6a5JXiGT+8KqtjMmq3ee/2bu+2bosYSNHu6qSJOnKmS4GjeB5VNnGhZSdBspvYHPkEe54U8bgYTB6dn4Ynn8tHT1IPbQnU54cgyPJPQfaHfuiHDr7lW77l4Hu/93sPfvmXf3kNvoIuO/3Ij/zIut/puY23OHwMib/+8A//8Pp2SK91WiT8/b//9w9uu+221ffx+bqv+7qVhgzI3mw/7QBTz+C6NkPjIrs1BuU7h/igUxYNOFcvfvFx7Tj9oTLIX4ol6GYbdqH6Eno8HF2nY3psQU+00XeU4Lj6dNNH9y/J31ut3fiwhTudMxQ6isnFglD7rRzNK2XkUSLD1Rhw7gEA5/lLf+kvHXzjN37jwXOe85zVIecT4uqkew4Bypx3Owx0YAivt331V3/1ukrgkBxToP7SL/3Sg+/4ju9YgzSHNhkwkPqOeOIhucZfSpeZQD4n+YAP+ID1ltRAUCY/nbbY8tmVwq4yaReOojtN2T7sopl527ItdtHOdKWwS/ZMu1D+LN+Vt0VlfIFP5Ut81itY7/zO77y+IveLv/iL68pYcHWXacHgmYyv0annbsz75r4F83M/93PrFsj/+B//Yw266rzXe73Xytv4EHzxFLzx5OfeUfehL/XoNHWeY4qsGVyDcosj+RL96Rjk5fP5fTKMIwlNedMuxmsLIki/SbvrfMpLZnrAtvwkKSQD0h227dzW26I2C8RTt/idD/pnVgNMoRNbYbvSLsgnSGf96q/+6ups3vdL+LZe9Fab3gfmCF5H85K+/Vp7YVYFHK8/+S7oCaJW1/LU5xjO/YkeQT5wIM74Du/wDgfv937vt34DV3q7t3u7hz925IVxkwE56tp+wZ8cE0urEitrqP3bBOzpfWxPbbV/duTVgvMOsp7Ptl3tmH11qds1eR3FuzI+kV9YGPg1mX1iPmfRwP8ET295WNh4A8jbHgKW9B7v8R5rEOavfgdgQYCP4P2O7/iOazDmi8aNIG5BpB7ZxoIfSPD/AkVxoECcjvxXvcrlozG+5aNxJyyF+JXU6YhfoFNQBq2C878togPn+xLd1tXpouu27Ki69cuuMmg8a8+WLnvMvJm0SXmLR9f6DS9tdn4GE1sK9j0uJQiW/CpPIBOYKVAnUGgLimmwzuVothwEWoHUmw5/7+/9vYNv/dZvPXj2s5+9Ou1XfMVXHHzZl33ZwT/4B//g4K/9tb+2Bmir62/+5m9eb9te8IIXrAFdp1gxcE4/ZpEE6e///u9fZQK9ODR9bT8of/rTn37w5V/+5Qc/+ZM/ufJ7/vOff/CVX/mV6xFP7dnlOPK0D2+Dxa2moJ+sqwHd2l3D6dFgOwnQSsahCVy9v/yX//LBM57xjDU4838r45/6qZ86+KZv+qa1jmuD2hix6m27wvfH+bt37OXxW6tp2x7GoiDNFy0y+OK//tf/er2LJCMdIP0dG8ezbOZZSIkdxo/jjCN4kKNs+j4eUnlbGkflkJzq7IJ8dLO8vFbeXePFVtrsevIvgMtD4xyiQ1OiryNdJTwKtFNfaRe8lQG2PtOh3QS6nbl5Cco62Lt0F4sUwZziOuaFL3zhwZOe9KTVaeRFtwXl0Lc9QWErBVsaVgr20qxuP/7jP35dEQv23oOW9zEf8zHrCtnqQkAVXK0s+hAMWHmjxesDP/AD19UsByczB+pVud6s0Dmf9mmftjqfn4o/7WlPWx/seehSB0oT+HTUXqsR+34mhVlnX4c90sge9dU1nAz6m93mGJhwPVPomk/w94/7uI9b/dDd5Sd8wiesgZfP8WWvmLoWeI0nWxVo/TjrIz7iI1af9grqu7/7u693gxYjH/mRH7nW98wDD/7snXt3o/S04iazoJA/NyZCetY2xybvxpjzjtHEL17ywHX0aJzHGwQqcO28QBqcy590pQnlFnp0xSM+dI6vlF5Al4K3YO1uG9C4VkYOPrVRXjzUM0FOnhN4kEEv53TD475Fp7PLahnOnLv/gYObb7zp4KGF8aVAymRQwY/DGejylEtbA3aNzszjWkC34jS7CJh1QkEDjTKJYZrxOOsnfdInHXzyJ3/yejeQTuo5Zwi0dZDr9CIbndsJwVxQXd85XGjl06P3Jk8CHWBrxmSRjDr0Gt5wUN/OdBT4rsQ/8jd/88/CwTW/fcpTnrIGWB+S+tzP/dz1aCx9xmd8xvorWQsMdB/8wR+8Bmz++v7v//7rQ3ZB/bM/+7PXQGyl7Kf1X/AFX7AGbvUE68/5nM9ZFxtkFGRD+k09HY3BghY/lvaBDba+7jx+EM/gGk2BM7nytnzogS7axj+ZyqC4IY+NJTTp4VqAdM4GbD/rO6qvvGvlU6f4qy/fORlQvQkyrrtu6fczNxzceMPNa3qICR5aFnPXLUF6OT/jU3M3UujMpVshpawZu9UrTCU7Rwtd206wJcG53IYpt2IVZK2UPaH+oA/6oHXFoCPaqrDCFVQ5GjrbDa1SGcJtIcNZVVtdM7B9OA8C7dkxJsf283APXWx3uPYrLvvEH/ZhH7ZujWgPGXjSTb3aAPM8aIt29aBkF82jBRejm7oz1VbpasVsz3HtqHwet3kTfF7gKbme40LQKK9yflcQFXQ6j055NFJ8nMtHI2/yBOMhHeMVnFe3ayBfSk/1dyXoGCav/MQRnM+ASHcy6LvlKaFRVp561QfnM1DSuWCsTHKujeqYdNBbgJHbtgOQQ59dkI+PyVLsgHSdkHfvvfescsUwR7K135saq61f9ZIXnmMiF098qycf1hzYxXgLykC0Gcdq+Qd/8AfXX8T166VdQE8pfBjEQzd5AqZbOvmMZVsE8NJ4t2ZghewlenmMaD9Xg624GYjB7LOh107bC7ZCGKTbifIFXrrjRWavv6lvb861iUaHhdWQGxuANkkmA6842YYxodS5++zxSIL+kq0bE5w7D9d01cbauQvVLcFJ6l1ppNvEPv22tFu62V59bQHgOchnfuZnrndb6Ovn42Q4RtP5zLsQbHkG5xLfD+j4Mt/UFuPAuXFSOShTV1k85xgI6ivX/unr6ht/yrob/aVf+qV1fFuAyTeejTHjcCtDSj/HeKfntLdzbXTEb9Irr/3igHxj3gIPrQAebTq00PP8ywLuUz/1U9c2VA5o8MYTnE/c+cqXLjyWIH7m+oO77rhjlRPf2nhGFSeT8YSy41LY5jcTTIOWtmAAOjjaQ3P7L1CqK09A9ATZ02nBTcC1ZywJ4OgNBB35u3/3715fL6q+zhBcrZDRq2sV67ZQkHd0zdF850JAt18nnyyGw9veHDlkoC1t2zZTuutoK+byH+24GB0NGHcy2ssH2P/RhPpgpkuF7Tg6Ce904Cvb85l3IWnLs+vklsc/t+M02o4z35hwLqAUgF1PRLutD2QB35DkJx+9MUYGvrt4A7kF4yBPwkObjE8BsiCLT/XwRSOB61kvmfRDrx6g2R7RohPoW/TBLr3RnTm7TBjLJKD8zNLu9FN/LT9Pu5PBhSBDgobgWyeUPzHzViUX5WqoY/yic0xXxxJZW1oNhORnWJh8wuQHaPAohfgfh3TR0QzfzD35n5TXlUI6bfU6jZ7amMOzvevHAvTrxdjtJKhvZgpHlW2Rn+eb+mn2lTLXHVuERCcftkHMsYTX9PcgrztRdSH6aGcwnTIrj4cA7pwezi26rGBdR6tuvMnDd7ZZCs6Vqa8OqDd5ZNfKXct3Ha+j+gDve+5aFi3LpEYfARrEJ+12t7Dwury31fhmoH2gkJm3Wca5QCi/o7IZJMtHm2EygjL0Vmxuj7x1Ig+iyWiSsvIFT7ejbmfwhymvlL6z7lGo47Jzsh+tuBjdtJGDNegeze281NDWyzWWLiW2fZJvpnv+CmhL8htrygWZGcQgmvh1HSoLBT3+Mus6Kqt81oH0Ue44EZ9dkB//eV7ZlJd8unWEbR3X0bimG3ScWO+cz7xebzQ+aHTjMrHcswRp27dnDKCCzaVEDSS0gDtRo6Cgia43MsqbDWuZj24GRkf6O/a02Ll3n//JP/kna6B1nREk9clydNvtXF374n4d6Ect6ign1zm+yZ158ZTI2LZNPv2mfOnRhqkTXTkbdDwO1ZGmM5+0/qMR9WfpKChnwwacdlfnuLpXEnSpX2b/yJ+pPDTRuZ71Jl1pH7Y0jnhI7Oa64yyLHirblnc99Zo0M1VWgi3NxJbOeXJK0UgmqgI4zDJJXe1UT1xA6w+V3LcE7OuXspW34LIaYyG61FgFLoFJwDsOFKSHIOlcPcFPnhnGuYbUoAIr3uoo9+aDugVND+v8LNr+sXpWzvIck4cHPavnNsh7oPaYyXBb4ejhH5BtD0m+OuAYvy10hDL13HpN1FGPRtD30arboxHZ6prNLg7G0K5xdLVAULWdYsG7zxfuv99C8nBx2DhrAbfGvIXm7DP+8l+8FTPB45YnvslhzUsEQc8v9DzM8yBuizqAUoLld37nd66/RrLS9UDPK2/OvSEgeaBnX4ryvg3w9V//9evPTP3az/FHf/RH1188eUjoVbtf+7VfW7cyPDDszQh8fHFLkJTnV4LOyfZ6H1v4lZU3L/C87bbb1o/f+5aGWwyzofpf+7Vfu77B4VU6dYCBSzkYu5LDDt5T1WGgQ6RHK7zZYvJhyxystl3DfvBjr1h6r9gkD5fbbkfxvhr6yzgxRiyw8rfT2uxStrO4dBS84eWn82KSmJB8dafuO8f4Er/8pWyLR/vZ4h96cUiwvmUJ7GcElfUJ6GY1dylg5hBgbQ8IpnNlKVEoCKCCMEW9OuPDP+pZLQtovlFhRUxxhhAkfX3OT70FEEHSb/8Fdh1MrmuvtXj97sd//MdXej/vFrwZFS9BmC7/f/b+PPi27K7r/z99u9OdhAABlBAgIIgDYSYQIEAYAgIBZBAEqdLyH8upCr8av8rXH0OqsLRKrUKqtBwKSkuBMBvAMCTMEJAhUqCFTEUYkpAEMkCmnvt3Hvve5+XNcp/z+dzb93Y6oV9V789a673e03qvtdfeZ5999sdPVS0OG7+XLjnA5Mbm7tlmJxfPPJP1dAa/4u3nrvh7MF5X2K7KkQl4OF+NNjfFKP5HcDE0pw/XuX24Yeapi8Njx9HDCR0j1wsXrMheIweONXuDT//2tjcd9q9L2y592Lm9tPlGgxOPmdkYJX1uxDAnxgZnM/RvprwLw09InTBcuTqLdmbp6tSVp+eXPQLX43N+JYhvo3ZV6wpYAum5AjRWj8fZtNVt7uy2IPDYZMumra7fJuwxOsmzuT/nOc/Z4u2WSdibLGN0kjEO9rWjhxvEJFfRHM/DMd6HG+bcPpKv05g5qt6xuqL+U/TmwJ7fi8RlH7EZ25ztH/ZJ+wx5ObCvXFKxKR8zcr1gTwCeCbZR2nTnZf0aeM8U+0GKq1xf2LkfbFOzwdoobYripaduc/TrPgPhA4FfDroidsVtop0YbK69vKj7xTZmm79fE9Jx1e1q2VU6v24/2LRdSfMhHnb1uQrGE2eLSWxRcBbk3/jk4+GOOSdzPJP/CB7BjYb1ZZ3tbcxvjegCsw3a/igH9hsXhre87pUvfUAD3v5dnrSVDwYdyF1x2VSf97znbfdi/T5fQAJokyLDP/KScJuyq2wbqXu87NjUbIiujP14xGDcx7PxkjUoZxwvNfJqTrcdesibXXquVt2WcHb6t//2324vbvEiF/4khgyw45aJEmzifLBDzr1yGzQ7xtbVdCedSnEjm7tfCPHno4vxk5GDh9tm19wZq9s2bi8985nP/CP3xa8nZjavBcd87Nm50Tk8L9bVXzkDfX4t6TsPa8uFRvyLxnmtuYJsX6vuteidkj02tovIdpy4aPKqhE//9E8/+cXZQ4E1bm3xxHd8uCD07my/5vVdwszPebG/9mUv2faBOw570tUfmRyOrTcd9pfbD/vKZuNNr3mllbVd/b3dE979iur1ocCVgkeS7iC3yXoDlg0StUGtyMZMxFqH6WuVS2ZCLDZqCf3Kr/zK7QUxf/Wv/tVtgxVLJ4psZBNmfQ+NIzmlcdvUvYnOAerlNHzNzW0vzjcnxAxzY/ZfzM2XMXVSvVacl78Vx3zs2bnROTwWa/w9f1PHBcRb88ZsjZA/NaZTdlcd9qw3G7NPwd6G18Z8zP7NQvFWznGox7ePOIk4RrxYqo151TuG17/y5Vdqf/gz8vaf2pe87tOmfN+Vg/JGQGAFZzNytcyxK9Z1Q0420tfmdaw+25NWfrIRWATe3eGNW66ASzra04mPxL5HU5Z9xK6rd7dXfEO/F9PDFWITa3i4x/tQwrxGK+I1zzcLzcc6L3u8mwV7RvdIT+XkPMyYHTdvbsyxnBoT/prr2a6+R05GyN7oJHT7gewj9kg8ti9JbowbgQYiAAtU220BX+C5avYlnKD0g/6L0sTkNeCwJ6/f4D065+PH05/+9KuPv3Ug7dmMoP5TRNb43Fd2RnX7hp9TNo7x0cSpvrDKROFY3yzF2sZsLLPvFF0EU/aYXvxTcmvf2h9O9e1htbe24Vg7XnN9DFN+6q24iMwpTJ1jdvZkZn0lY1NaF0F7YspflNi1yc/1Fqbcitm3yqy8tR0mH4mhC6w5ztDxkay4fQem7KJs0op777377P4HDrL333P2+jf4ncThBHeo33PvXQfj3qOxndwv/5sTvzy5EWhRKruatPF7xAx5PM3m3EAqS8acnJmcSbMPsaEsCfWHYgIxOVE4U6kXI3lf+k3/YdbJJRPFQ2Tdg/bfIzyu59OCHF/N8xX5aXNF8U8fySu1rwXpTDsrJp/czNm1+jsPxaM8Fs8e0pvAK1cTyUbXgjWm1ZZ5XudwT+fBgo25rq4XYt3LUWC7sU0/6mu7cW9XeofjyLpekR4qX74E1z4GctZcesdQPyrelU7hWP/K155704Qx2zfkon5lefZpoj1p1YU7Hn3H9tCBfqV/VuICUZvetl/cetg0/U57L8HXComNNuNXBqBtc/YfFzyl4flfTzYIItkGAg0SX78kGeCciPTUS4R6qI8dRJeOeCRBfdr2ycFtB+UesoN8sUiOXrHmyz1GP3TxSJ77yhLPz4x/RX3ZJ0MH1Itx6ieL4tc3kS65Ys1WhJf+KToP2Vpjmr6y40AVz3mYNsyxuVavD+Y6uQjtxRgF9WIGX/Q25+JA9U+968WMYdoUpzzlC5I5NY6Irlyv6zq7ZGZ72ptrMN948g142pP2IFcuerIdQXFC85id2Tcx4znWv/L32ig7E8WQzjouOnjWonGpy117kFzrOwZ99hCge+fBxkFxGz/b3jZ3aftW8CCwBn4jwTmnzrL+w4KnGDwW59ZGi46MTZNcm3nJW2GC6yNn01dnJ1tRg00+nckDNmyi3dIhM1Fs2aUvwfG0fSPvF4K+LPMyf2V2+CnuiWKgv8akLT8QP9I37a39E2JEsMqtfmtPfuV5yMZ5BN1Cqn0MU88cIPUZ3zGC5muvH8EpnhyD9YHKpTggechXdFHkK1rHNdd7dN7YUWunT4jFpC9UL7flNz4//CvbuKE6OXanzgo285/cSnM8F5FTwowPH6Z8pD+Zyau+Qt8c44ppQ7zble+V470+dbSCXS8sArmxruwlyu2TyOHYuPX/94/+4faTbA5uf5u3vepMGfaM72HqQHYaIHJAesSMTb/G8xywb689u9ezyHTIqtNFzvrsOStpixmSdZbqjFW89Tmrpd/CI6sv+XKgzPYctz5ERxL1IXb80tAtGuPxy0L/6sfBQJZMGxB9ED9e9vVN0keXXXFr04H8zvaKlccme/xnv/HkM7CLPIrouW63n8pZvlG5iB+yi5dtbYhHzxUDvsUIycK0NyHv8tEnnjmHkB9t68E41PHLt/bUgWSqJ5NeJQJ+QV5mrOqexPErVT/VdZCxtcqEYmA/v1AJ+sSSr/TxG98c27Q/40wG6FZno3zgQ7bwzRNSN1f66JgL8tPu6l8byIulE9vqB7m9aS9ovUH65PmPsgfi6HicsUC2WycRkGM3H5A85EMsxUO+mPtNg3luQ6ZDVr+xquPPmDbce9fZA4c44ou7/Fjf+NtKs3ExxnEBKUvg9aABFhjneGxr+2Wf/0PmGWRXmf7Zqo0g+T42OgjplVCBG3BJJmtAzli9m8BENRlAXl8Hij628cUF2tlUn225YFNM2iXficO7N/7Tf/pP28LypaJ/mClmMdmcxQd0EEy7/EDjnjLq4i6WKRuyIx6ltvokYKvFAo2RrZkDNrJffGywO22rz1s6Uw7Usyd36WrzV46Sm7bDbCfXhg7FLV76NkXrIz28/Gs376CvdU5HPR9IHfgod+rlCy+ZdCble44rCupTPuIDT796BPHZdtzWPgb2IF/Tp3r9SjxjUxa7cTpubD4z3+YPkckG0KOPV50e2YC3h/IrLtR8IW3Qbz6rO8bmvW5y+AiKBcQQX5lNyF9rpf6OF3xU7NYDaOeb/ZmjY+DntoOs/Gw5OvDyx4b+W17zst98wMA49a+lSgRBQZWsi2AdaG3O1RsYf3jsC8Km5jlGtwL48gMRG5Ig/bgDr+SST78k6VPvQBdzcfNRWZ82mnLZIcd+/VDsDnxnSuQk4orWm+ucNT11Qr7Y1IsnNGbEFyJTPIGO8SiThTaH+qA86CPHjnq5Id84AJ+MPEIx4uljQ949PO/Kr+c09bEjHnV+bWj0jTkbjZEsXrGnx6+DHD8ZemsdyGdDHZkDPwYiQzaQMR82kRZ3PpR4xabOFj4b5QA68ZMx5/q0s9UYixG0yelz1ffc5z53+6GEHzwlp2/GC3xGxaPMVrr4eCCm4ndSlPvyXXyQ3SAf5PSzl09l40ds60fJk1N3IuAP8LM1c0QWn611LRRjscSn8/M///Pbs8GemxdDcSQH5PCal3KS7WJSb2yIDj7IWWtEfMkrxWWMfS/kImD7Fd6hbl2wae3y65fCP/zDP3z2yZ/8ydseQAYBG+yTy/bEYc/dvvAzDo8rT12xbjq/99u/vm3MBvC4P/muVwcDhPcMH0N6lSVHAkCS2eLcoCVAv4PNQAzIhueXdz5K+8IFukqiywYCdpA+kAhtNskiuh5de8/3fM9tQuZY1PlNFuaCwVM2BpPDhmegfYlpg9Dmnx165SsSD5BpQSJtZXL0kgM8fqEy28UG5YAtJb46X9D4Avva9ZPtAGqhs+NFT3616EDBJ9NVk35tNhq3mOpjC/GF8Gu38ZFjVyzqkK1Anl1zCOR9wvJKVjaAfnL5BmtJnzWmf6J4yZPRLs65MRtjMepXTn+BHHk8L8PyFkMnNLfo0tMPUw9qKyPyoCxWEK+TjzE5Zh3YjZecerp0Gre6cdEpfnPHXscEHirO6RfUm+9Q3vLbPFZHrSn6+HRab4i+Po+WWm9+hIZvQ8x2+pX47ABbQI6v4s4un6AuHjkz5uJQ0q1tjPrJt0eB9cSmixR+/ErZxize+c+m0dyY40286VWvOHvTYT4ec7D1xsPe5zlmuP++w7huPcRz2+GYfdVLXvyAQEzcO77bn9oCWrEaPoZ0VxsGVGng+iXIgS4ZSAwG1MDJ4islSPIMVixibeD6taEkl2h+3Af68R//8e3MJoElao2VnRYS2+mLAV/bwm5y2UgnebrpgbI6OfLFrV0sCGZcQEa+gF3U2IA98dHBh/wgvK5w8KH42OWPDNl8q4vPFbMDxY9xyLjScLDkhyya4wX6eI1RfDBjBnwy0BjNfXJAlg35Bn1kHSzqYlbyTw4Vn3j1W2PABjn95mCCn4gNcdVOtjGWM/Ej/rXTcRHgfSyf8zmfsz2Zw6++DvZ1voDP7DQObaTOZ/MzN1h141NPXh3IFvMcF+CX02wBucaWTbLFnI9pm1xj4WOF/nJJVwyrLX0/93M/t10x2+jkvA1x1ddubtnKjvYE+fwoxaZEzWkygFedLevMuPmgy2fzaLyumH/0R390i9eFAuAjuVWW7zW2O1/9e9ue5ifZtx7iI7+t68P6v+/gUyyXHAw2RAMARla6KPZk8UqcsoANcAvgwKtukTQ4bbHhKb1nApkw8nhIuz5tfRYryi7Uxx6qzj9SJys2/ot5xm3iZrxKdtNNR5lO9pRk1Mns+YF0s1NM8aAFpT1tzHp66oj8XIjJzrhqV1bXZ4z0IV56iGyl/uTIFAtiJx1x4TVf6YXG1Fyqm28lWf1TbtrO7+wvDm362VDq19e6UCc/+5WQ7lonC2TzyQ6CeCvh50dpjurLvrq4Wm940y6amPZg2kp31Z/ywZzXl41pS594W4+tL33sr34hXr4qG/fM++wL7OqLR2bShE21TVkfvU407EwdfQjwxBHPumvt0e0klHyQr3V8K7zNE/zPPxs0P31CYPcW+n6K3aK/mSgBkiEQPg1QvQPKomuxAPm5GLUNODlteutGjH9RzCTykV3Ax2ObnAmVPHyUbvrHSD+70/ZFQJaPaWuifmNOjo82F7wgBjAGIFdOo2y06MxPV7MWJZ0ZT6g9cwK140VrjOLH6wAKbKZfvHOsawzTR+tBXV+67Ozp4c9+ZbxJ7JBXtw75mPYaKygb4+pHPSKTX7JsZmcdM7nsGKMy2RlHyKb+Cbw9PXW8SXwU49o3iT1yq2x5089+tAfzn1xgI3v4bMlRedwDufyjxur4tab5IYOPVuDxifjJF72Oj/T1kdPO7ymIgTxbxeSK3NWycd13iO+Sw4AxIHiMbgSyMwfQgAQXP0qeXDz12lAZklHSZ7cxRPFW2WytssXWgpt66VSfupOmTJh9YY8HYpgLAsgVX+2w2hAv2JjbnJNZY9Lmi5w6XfzGHNQjMZBJH6nHn9A3baUzcxqtuhBvlZ0U1KfdeJPYOy9GmPKgH6ZuOvLXiWb2185WVJ/6arf+EJ9c/laZiWwmV3vVnX2zXvuYzEqhsc5xzP6Jyd+zPXlhbYf49VmDbvu4M2BTnpusMtsTq42g3Wau3vpWn7bSa+wT/PvyzyZsT/GDEjw64rvr7rsPV8yHigOQwRuFAiu46gZT4MoGh+YEQvxoDrryGIExsdempTRo/HglVBzzjDftTKz9aMbSGBpH5XlY9cKej8mfOKY7dYxxWwgHexPygSxeT8j0ZRvgex+1L2j56OQA0/4a48Qc2xrnxFwf2am+R2v/Hs7rF0991c/TWftax7D2qTem2rM/xF9pD/XNXB7L67R1jJJrXShnXR/7EUz9SRPH+HAs9vPsHKMV8RuLtW/zmxdXxzBtii078ctNfcnOcuVNuIVB117kWPM6jGzao/zAZHtRPsK4ESioYzQHOOGAtwlMfnLHeMfIzXSP3/hlYQc7+ILBY3ltzLCnvxKUJ3RMJrTR8RutMjB12T0GMtNOOtXpdnWW7JQL+PLRRqI9wYbXlHoLoG//9Xs0sF9pdmLrpBfyNal+eaCnXXygri8+WrHa3KNj2JNZeflt7V0E08ak+tbyGE3s9U9aZeBU3q4Hx3zFK0/lqrk7hRljdui1Vqd+9sitfTBjuSiysa77eBe1N31XzviqV5Lp2Ep3krE6JtT9lySvxaCr7Zah4+tSZw+NNyfEYENt0q4XdE2Aqz8v01dKkjOTzQX4ulYfLcbzQMam5rEuOb3IePSvMtpzsRpDk72CHF/Jr6AfnbLjasKztx758jEL2Zg9XeDZcmtlXeDH0JgswB41mvEpJ2/SzUZ++DY/Ynyw6+6hwoz9ocjdtC1HyFpzT7QTbpiySHzruqSD1tjLf+tq9qFszWNq0p5OBPMYwGNjL397RA5lB/bk0IxTew/b8XMoxbCtvStjmlfyh2P0cJl/uHTGvJFYA44EviYWBCTINueSVlLSqY2apNrZMxb/C9Az0T1x4qO4xeSRueSaJASrnYgPsfF3TCYaid3qtdMJ6vGyr914wrSbrXjRzMN5yAakH8TsGW0nFic0ff2XGE+9QPpKPrOB+G9MEL+8TV78vb5pp7Zy4jxZFGqv/HLaXE3sya+of/osL3jHZNDsW2lirx+xl03+movKY7ozjmOY8hNsm681Z9kMUz++khydyQ/1T2hnW2lvcAy3ZrJTHSpBfeYDxA3pnMoXGTQxZffGr+6iTKzxVmwvjjvI3XrbLYe999azu++58+wQyVbec+/dB97h4mkTPOzgN3pjXtFAlW3AyjYkMcynL6ZcdVe9NozsaNtEstWk6fNsoW+t/Ztxdl0Fei+yfw1lcsiww0ZXdHj02VK2AMRTfrT5E0exA5mofJp0/cpkW9yT2BK7/giU9KavcoHEEQ/lv3a2+CyW+NnFTxfkxxzYkI3Dyc2PaXoyBdIvBjnMjj5j0mbTfT0fz1b/oF+elPWh5hOPHnvaSrzVDhn9xRBN2YnZ5tu4Gv8xHZg2k0muOlvFGy9KbuYCqTfOyZ8E9YF4y5tjoDVcDtQn9uyuMntIFrLt+DFOdbzGEyUP5TWe9dA6gsbRMQnZnfGRsVboT9kJOq1JJR2+2OkYAnmuzY5+uuVfmf85l3iRdrEjII/EF28P9xzi08/2vfde/tGZOjzwwOX8XTKpbzxQAzlGNwIl08DaFCQRqQuOjAkwQAc8nk3LWUiM5IJ2duZVHrKR+FjuByb0/dsaH8fx2S4WSYRisMC9A0OdDB/klW2eYiKXDjklPjk2UbL66henq3cnDONrU9NHfqLc4xcDn5AvfBMrZ40llIuILH2xG4s6yjcZty38xNQXfl7Nim9jBnVEfs4He0pjw2e7Ex4Yg7kpZ8Wu5JNu8cTHKyb1DqTJR2T5klMlG2ytsivSR3NcaOqIfcqsxJdxr7J851+ZL3WxIdiznSya2JMDMWevNaC/GOa4YNquFPsp6LfOkPoqn83sQXKTxDDHP/sCG8WaDjIG44HaysZMb64TJRnron0ivnWi3njoaivptBbNb1fAfOlHdJJ37KVHZo5lD2TEI2468+kMjy87Tg71w0F9OAv5FcqNQIFH8Qq4wQjE2U/boBtM/ekKvkQHbf1tSMA+m9ol3u0MB+wv/uIvbjwvrqfHZv6U1fXxoz8ZCcQXqytvfiSz+MnRwSc37Wo3biDrxLA9q3jQEauryXgzDgRkGiO/xkEuHpQH9tPlN8IPdMXN5xxP/ozLez88neGfyPpHuGIk1+KeNuhO+2LRxx5Zpdj4YqcY2ahOx/jnmEL+UOMpVr7Ns5gbC+qgyv8e8o/4ReLIzwp20Iwh2+mhUN1BJm+BrriKLRvpTxsT+cx/wGsN0W0u8PkA8nKC5GzaUq71SVDZOivGVTaCOZ4IxMcOglUnpCNepN58IfGaY2XjxO9YknN9eNYGsi5bi750S479uVaKiay11fxCccHUUc8feSXUP0Hfr/z0qeffrwDF6OLokoEI4Eb9BxMQYCR5qCus7Qr9cAYTeINogG2s6eKTwZNEsNDZajDZKYG1we0Mi/bHfuzHtl/WmAw6JZcNsTgr0imJ/AFZMZMRt/oaC156bLBLT/z4+mGOh4xSuz6oD4rNwik2fcWmHulHIV/KbNNnkxwbqzw7dMi5neG2D3knN+MlU87V6dOxkMA4zQEqH80HHf3ki0kMjaWxJcPmXBdsaJNXkgl0iie/Yii+kN8IyFcnW7xTb8WUBzHSmdBHrvjjVfJT3kJjXG2FcoSSyaZ2Y171p9/ybR7ZQ2KE2mFt53ti+pp5Bbrk13ig+Z2Y9pX6EZudUOKzmX56xaueLLl4iK3Grg0dn3gQP3tQLPVlN6gXqz5zUa7T+b9w0MlOMXh++baDne2KWadvBQV8I8FhSeCjM7rSGQssCpOEV5B0kD7yBmvQLbwmqo++Nq6ojx3IRkr2T//pP719eeVLreQNPH3+UZPPl0RpFx+/2vgtZLHp40PcoMS3kRU7XTbJmqxk5IAcvnYTj+hUkk8HqYtjjjmykbeZzzySR/Fqk4P8KMNTnvKUs2c84xnbi3jogHjNg5gRzPE1RuSEKF66zWHgC0/f6rd2NueGMymQ4489BHTEqo89OdDX3CUbNfdkZ/5X4IlJf2OQQ/fjleznSz9ZX5q29rMh3pkPvFMUaucfiXuuzcaQ3NTTr+RfeR6yr6TbuoHsZ3tSmLEEeWJj5UO8+OnLFV/y2rotLmicoG7+XXXK/5Rha841kov0mxNl88wfHb7lgK46FCuevuyoI8j/BJ/4fLClbb0++sq+oe+W33/FSx4QiH9v8k7v/l5XVK8fjDYIC9a/WfLfojvA+OIcqhfMFtChLmAJYWfKlxh2yGiXJLrxs6VtE/Zcrn9rlZ3ktNWBLXU8vvltEpRXzmJXfeY3WXrF32RX1w/axQf4+qE+Zcgen/Hxaqs3yfVFgVxxJw9TTikWi8O42tyd4Fw561e3+ZPTZnPGq10fMt/a7LHx8R//8dsTMeSKOXtkQYyQLZj5pjfjl3v94lBnT91JoVjMnZJcssrsN4/a+i6C7NG1LrwF0QmMvi9LvfbTy23cBiKDv+a9+UNgzFA+Q/0h3Y4DcajzoY304yunH31kkw/GnhyUV/Ktb3VrQumiYsZVnY3KeOVZG7Ghv/0AT468NOtXf/VXzz7rsz5rmz+8GTs7YsHXTrfcJpceGAMqBtA3bWjHQ2TpJJsNPuQN+PR2OS9H+4zP+Iyrn8SLo/yi7E94idE99xxOEPdd/rTtxE1H3UnASWV7u5wkMfz27/KkK6rXj5LDnmdgv/zLv3x7ntjH4wZfoGShtuBKDkgcpAdkZz0bQV8JhOJxK8OGk3yJIyvWePr5bYIkO/8SqH/61V87IovXxLOjDBaYPpSOfpMC8aHxpK+veMgkK168xhLoNUay5Ta/dECfAy675LLd+oD8sIuyM/Mw+21U5v6f/bN/tv3nGvpTNmjT43Ptm3wE+sWkZLO6fvYDHmpt1ZetdKL6QB/Ul634jbP4oI3Z2wx92Qxk9sY1baU/MeXVZzvfxo3KaTRzljyQVSfPlv58F491qCSTnXIM6ivymw0E0/aENjtKPvY2ZmgMCC87dLXrC/FgxjtlIDsrP9Sfz/wBHW/Ce+ELX7htzG6ZNgfKmXdlOQhv+L1XXH4Ps/Hfd+/ZnYeT1XYX4eDyvvsvz+clm5GzWIHcSDQoVxUmu4OD4/qSA4NvwQD+7CvBBtrgZxLoadtI2CkhyjY9MSC3Olzp2KyLi0xXXsWrLj9iJqvdrRB8djzF0VMB8VFy+cweH2I1nmLmX8yRecEvJ0o8dVe23VaoP1kE4kXlEmZe0kP4nXQC3fJSvPKcXX3K5sd4jU3e8JD+YuVH/MU35y7SXoFXzGQmGgc0ntohnfIMk5fv1fZ5yN4aXz7qi0++vJSz5NPZw7HY0lHK6yqztotDKd7Jm9C2HsyZXLbm8KMVk5fMnm2Y/Sumjvoqk178tR8mrzWxZyfag7mC/LGz6pCZhK8kj6bsivsOV8p33vWms3vvdlvo0tkdtz/67P77+Dzo3OoYOcznK37jVx9wUFosj3/ie2yK14sZqIPSpvXTP/3T2391YF+gM0kzcAlsAQAblXTXdpuCNp34bRhTb+ogqA9KZJOoPjdGbfLaxZ8uVC92IDcXxezLvkfmnHnf7/3eb9sYQ7FVNlZ62mh+rKuMtBun+OOtJ6zALrkV9Ip76sSP9CmLkQ/jiaftX275xwLJXxSr3zDr54EsKk9QHHux6JuonZ1pY+1zsv/2b//2s0/5lE/ZHjOcMpDunt/6wqq7Ip8Tq/zqe8ofs33MZvlbY7+oHVhlybDritkvc73/ex4LYdWrvedjxV589E7pHtOpdHXvVoZ/iOCKmfxKYdbhDb/3O5dtPXD5gtFe4Hj2ZBwPsnvLH7ziJQeZy1dvb/MnLj+ver1gJ5Jsm4ONEvY2BHKVgte/DgKSC7OtHkFJmXZmf5jtqasudrFE8UEfaMdbxwVrDNkgywbybLX/Gfipn/qpV/+FFmS3EmYMldP+5E1Z9XWTPqZXfWKV1S4H5SbdTiAzZ7NtDeDVvgim3F58F0F6xR3YjibIT94aQ7Tqse/T07d927ddvcc8cwTHdIO+QBcuIntRTJ1jdk/horHDRezTkbcXvehF28bsVkYb8yn9+i6Sgz1Z9bUdyJf7idYPWf9EonvM81+dRRNr+7DnbpvxG99w53bbhq53NLtwcgz5AcolDzXDDOzBoMA4sxH4SMR5V2uTBIf0KcnTi2Ae7PVX8qOeDb5WO+r5m/V842Vj8pNrPOnyE/GnTI8MZHPGCuzIM/niM776m4PyFyVfqV990oxLuxhQYyqWlSY/341ZnT1tBMlG6ZArJ/UVA0ouGC8yv3PRzzzsYZW5KOW7Nqx2rgVi7qQ3Y2osYbWtTrZxo/lJb9pcbU1kd7V/I7DajuSw+kVwUVljnbYn3UiUUyW4YnUbLl78i2DGKPbiPw/NM3lXyuigePYHh09bb3j96y/bcsAS6sr2wWANsk2jgI9RKDGRZLkC8YWK+5fa5OvrfiZkK98gAcZFfiKf+pM1OTNhiC5+KK5pL7/x5nghebaQeN2LNhnZxtPX7QmUPWVjBHnwhESxTuSL/zbVmZPqxTz7JsV3K8q9823hHIA37a6xTb6SbJv6xKqnbTyTtwf9iPy10Ip49fMdFUO+ILnpH8jLjTKZ5E5Bf+shG9n1vUTt5mFi+llpYo8HbEanMO2uFKatSWFPJ8Q3zsY+Me3sYbV7zBY79U0+aMu3da7e+q7vFNhjuzVfvPSm7t44XLiQ6YJpkznYc6z4tLBd2LThrQvgoUTBW6QWa4OTpIJvACUElZSJkoLfiYGd5LINTYI+9rUjsPGXn/RO0QSbqD42xWJ8Xj/qp+LagOefUbrfTKe5UKennBDrxPQTHUOyxlQ7VDcPQKb50Kc98z+pmFf/+oxh9rM/cwo2o3wdw/QD6V+UYMYMxdHY0BofOhaz9aFvyk6ZY1jHWkzzYmMPq49JxV+cF8Vq5zw6Bf1rHBehKbtiyl2E8p1u7ekjsp76lCn/eCtWnWTW+vSTrz24IHNCsG7459daclxrq3seatuljxm5EWgABV8561Omg6bFK9gODMA7BrrkDN7VnqvLedXLDrvzIwyeuoTgK/kwWT6as0mneKJ0ySfjCt8ZuKvifKUPYvJfqPEtCpP0C7/wC5u9nhKhKyb1Sj756cQRGjMqtlCbTO1sil07PdAnLn0eMfQDCf7KUXEgvEi8XX0kh59s/svZ9Ank481xTAK6/JhbmLLqKPsrgTiOxYJfbuLNkuyUtz7MXyfPGQNoo2Ogw0YHJNuw2lsx/eRDvXWmvuZgxpFOelNmttEc7zFMe8m39ldd9WzPvtrHkP0o3Sis7RBffBF0QeYEO0+ykA4ylohv85U97Wk3mWPgr3UjT+z4T9nKNuqD9Utnd99179nhcL+idnPAqWAL2gbU5iC4NgPB6i/goC7gUF05+enww2Z9DbpFj5JVLyH0Sm518bAlXjpNorp+pC5mBxqiQx7mGVnpeV4buA0avPlOXF4epGQr2+UCARuVLQ4QazmbRF+feiXqjK0+x8BuPuhGfIldqU0+n8UpJzPneGxWkmvx4814jLvx4JNB9Qe2y0dxZKt66wqp6yuGSlCXh06m+U7eWPRPHcjOXr86qn4MrTegW7xQH1KfyE9jnaVxiEldno1Du3WxIt1k0pOz+OVSm42VQvUZt7JcQjLssYvikVnllIgdKA7E7uznzxqK1rwF/OwDW8UMjXnKgP58JQvsFY/46CNtWO3AvQ8cfN522IcOId5+h99S0HnTwclhPGeHdXD/4YqZUWcNRm8k1gEIULAlxsbc5tCgG5wSSfDc1KKSQba4py91usbl00DyLbLsdtaacvnAj+rv6rnJ0wdsNgFs4BdPbSWI4wlPeMJmTw7E4F/ee7TK1SnbxdoEs9/BlS/21WuvFNTJZlMpn8UOxdr8eNhdP1m8gMcfeXV5YSsZ8XeFrQ+RzT7Uxw/7xYe0lfqOHRyV7MiPeEBdjsSCksmHeptOORN7/51YGx8PQfEA23yIDY+8cVgT6mT10U0m3T2QR8UC6UP6x2wYo5iqkzNv1hM7Ab82P/lS4svL9DVjKR4lfrGWrxXJdNEFc5zKkG9lvlewlz+YMsU34y6uCNLhP0oHicEY2wu6cEgvaPPXMQSNS/7TmV9+rzZCb5Hztvw3vOH1hw36sp62uNm7RFlFUDcT/MxFoF5bMBa5zQpPGx864NYJVK6DnxOiT8I7oMhVb4LIKiVYfzFFbAAZetmWeLZrAxt09AFd7Rkf0LMZ2Jz9rNNC8IrN93zP97yqQ8aTLORMGF6LzhjEA+YN1QfKSSAGMhZVBzPQJTPHOe2piy87yaI5LvGKEQEdtxpmzspvBwDC088fsKtdjGvupqz1It5O7jDzJ3Ygh0ePXPlLRz/ZckEWWnd4Uf7Iii1/2XbVrU89W+sYAv4ktsQtP8d0oD5+xFcMfDYPgE82nniaV6Bfm25jan6mLFtkGld99U+QZUNe1VFIh31xFRu/qJinbLEpyc5YZhxIO9IOMw+Vq0ywBzn2oLhQ9osRsdP6ypa6vuyrr8DfcnmQSdbjcvhOalvedBBqQ7kWMHQehQZS3abTVSpM2TnYJnC12YD3+LXZZsvYqiMykqFEJRuKZ078THJ2mwBEtjpM/5OnrgSvIHWl7HlI/H6MYCOmxyeyKCHdDigHJSo2Y+yAyGc2qkP+y6nYYfKh/G8L6FDSZ3fmzyY1P8qLp3i1y2XxKMsJHbLTL5/ZMpb0Qjpi4suJxu0g9UAnPfJkmx/2+Y+HurJT51dJpriUjUmM4io3Nm99bMvLOl6oTj6b0HjzFWVD7OViorbNY/sZ7wF8RI1JOX1D+Zt5nH4qi63jBcRVbDOmdAKf6eOjLoYCGf3JgHrxrkimWMmhyU93+gEy0x+QLw/GpBRjJ9bmJD8Ij7588GHNKad9pfZ6HKxEjp3adL1VDr3t273ddr95e47ZL05aoDcbBigwG5Dg1JtIdVDvwGxx1DfLKNRu8NlVavOpnuwsQ4vPZDXh6bJlArXVmxyxNnF889GtjyYZBfoeSveLoR/90R+9+mpN9uYm0wSz3y0CB2Nn9OmzxeZqdcauH4nJy1Y6GbLBJ5DDQ+oItPsUo14eAa+rC/Mz/Wi3gdE7Bf3p5Tvd2vlMlt98eOGLUrv+dKcO4KnzFeHJaZucg1Pu2JSf5n2Oid4cFxvabOibc72H4qCjnn51dJ4N+gjI8yvGoA+/tQBszs0kn8aFoHUThZmvyd8D+1HyxRBWG2zDnu3Gwl7t5hvW8ZwHcs3ltI3P7mpDn7w5vuyTynSD+IunXEExr2AjP/TkZzs5XPne6ZK3yr3pcPl8zMCNgAD2SEAG14Bqz74GGT+o1zf5sPZNYndS/PSmXAs23lzk4kH6bRT6telBOhF+Y5BrOh/wAR+wbcq+DLQBdOuCjNKBTq5FNE8CFlAb1PSnT4x8aNOrXh7JqNNtgeNXJws2XRtfcYMSFUOxgXabmdjItK7SC3TYz3akvfIitsRNT66crLy5jt/GU1yTxx5+cSXHpjo77JGXu2TLNb56NuMVB34xBjIhfjKToDFPKr5kwtRF5CJtsXTynjaSLX5y+Wpc6sZJds9XNO1OzP6IbbGwX/+kqbfHm7aiKZtM9Zm7Y9BPLh2xmW9zafwrsqvP+kHa0RqTMZO1Xlv/E/rowKOuyBXThkP7lt9/+csecK8D83Hv/C6XOy6IPacXRRscCEq7gUG2lcnWV2mjUp+JiY8abPxsaqujqRdv9gH/7PnW21Ws9yH4CN1ZT6nfx/oWOEzboM6ufjbZ8Dzz+77v+26Tqc8CyS5bwVgaZ9BPhy02xeBNbq6MTX4HA5mgnQ38+iY/1LcnM22CtviguZx6sy9Z5dTbw4yJLhQH3ezlQz0kUz1MGcgO+MRhLuQST17buAJ+MQQ2kB9Dff3Xf/3Z537u5263p8S0xrViry/b0wdcxI4S8du4qhe3/ukj3bXvwaA4wvRXXUxkvCvDc/yf8zmfs+X7vJxNzHjT0T6mv9c3bcCsg/50lH4+/hM/8RPbuzIcb+RX/fYgNPEHr/qds/vuve/sMYdjvX9Q4mrZJn3poLd9Kn/NS3/rAYlAtz/+nTahi2Id3LViTQZor3bXdjp7BwiQz/baB3jJhKkjobUdqF5b6qUl7gnbOPEdqNu/gLmSdLxuB+U3WiHX0EmjjTy7weaqv1jmYhUj1CfOl770pZu82ySuxP2LKFeUbKarf10ox5CvvTHUN7EnF+pb9YrpGGbf1MXXbuPRvogdOmsMEK9SfrMpXzNnZLK32rUx/5f/8l/OPu/zPu+6N+b87mHKVlcifujNnITJh/pWP8mt/Iljfes4iov81Jn1ZLwrw8b8l/7SX7p6XBzD2rf6DZNffc7jRP1sqx/zrw/ZmL0rw7s92gembnVYbf3eS3/j7FGHY/KO2+/YLuYed9B3cewYvuNwzN9j7Xkfs42C8uP+5LteUX3rRwkueZXOVhaGd0n7NZ4NWX5scq5sfez1UTH5DrwwbcLaBrm2+Dv40yc3belrUrMzeYDXJm1i3SP1Nj9x+799Fs1HfuRHXn03sLF0JT19wRrnPMBPyRYbkJvxnYfV54pTtqZfWGM8hnTm+PDWdidMwLtILNezMe/hmK9pJ59tpFOn+uSRW2WVp+Z2D9PmxKlYsrnqktfXFbNPGm3Myc54Jn/FXtyr7nkgs2cH8Ovzzz/8y7rP/uzP/iMXaPk4Zed1r3zpJu/3I100gVyE7X/+TYd/3GDcEuL2gU3ZGcyv8r7xG79x2+A+6ZM+6eyLvuiLzj7mYz5m+w8c7pd1RR3K37EcSnzUxPHZokR8NzHJTVlX4x5BaxOun6yFjNwj85a6P/Nn/szZM5/5zO0Viv6zxvd93/ed/fAP//B26yS/e5jjQKdkV6w5eTijvIKYzb1xznzfzLGU30nXC3lHYlcaS/bmOEFbX+NbaQ8XlZsgUyzFt6eXvdbYsfi0s4EuCrL0+pI+/UkXxarjuJu8vrhvLKcgL49+zOUviu2/zZ1PyMorm/VlB/PqYGI6P0anoF8gJackI5uRkkyTkc5FiV660cTsV+Y7xJMc8fh44kmJT/iETzj7/M///O1/BkoetHA6o6+Tg5IL1ZXpIMmfXzAVV3JRaOLzAfq16U9Zdsi6jfGJn/iJ2307737+zu/8zu3Z6Q4Yuo1/5imoT7lKBLM+5dC0A6f6AG+NQ1nfMb0VU3ZSfXs8uZKTgFduJ2ZsQb04YfbFX3VW6Fv7sxvVP3kwdZObvIn01v74aK89ZY/podlnLl1MoPpQdeXEPJbWdYDMj3IP+MmuwDe/9SvjJ7/yq4c9u5NHXsznHQPhsYcLqHvvufzJ/LDQtrFZb+3B2pd6oFl5IyGoAqtewAbAeT9CmBMxB3gtyAdiG2XTxHRFGunHA223AX7kR35k+7GHG/puW9g82RNPm5/k4XXgolB9jwdz84SpPxdPG8XMA/82cjx9Frz4XeGTh+Jrgumo+zGLe2F+xPKCF7xg+8Kx8bOXvw4OvGLNP6gjcULxAnk2aiebPJuRdqQ/PhuTpxQju8VYP5pIRj9kP8rvqgdu7zSvII58pFNfdf7WeFC+yl/jwJ80kU4xzjYK8Y1TyS4/xZuMtaE/eeWEeW49hxl/9fgT2Td2mHp8xW/tyW3ryjFWzopLDMVDRrv+MNvFk9/ZnqjNLqzzG2VjEn9RuU4PtGf80Bi00z2Ge6+sU7LsV7oN2UXgJQETctDfDBioyTApBtPAoUGFU4M5BjayU2IN0uKpjaZv8g74Dnr8n/qpn9o2LLcu+ieaSJ8NesaaPT72/DRpc1LDjFc//yY0e/rw2nDbPJE6GX3yqd5ih2yz19V4OdX+0A/90O2E48rZ+znYo18uyLJVTlYUd2MtP8XckypiTeY8Im88LgzKgVjY0pYD/dpIO90JsdAL5b550Ne4UGNpDFC/nLhooBeRA3r5Itc88EUfsoMvZmV+6a75SSc/sw8/+9Haj0ePvnjyoV5ME8YwKR6wuQKPTQT5yi8UT3Jzo8I3hn7AETUepJ1e9tLFz/6kfKE5Fu1sNk/p1D/tTEo3u9YlG/Xr09YX8ruH4pokilsO42Tj1kPp5GVDVuJttzJUCHF6ozFtOgFMCPDKvZStbqIdgOIpCdeK9CyCbLErkTYppcUBfPespy/5PHnhH2i6umTDBIhrnvEjMB4yiA+LQB8dSOcUig+aGHbELl7Y5udg0xeOHsvx5SPZ8pa/CXb4bkGRxaP7lKc85ex93ud9tvvOFh2+XCAoX/zugT19URBTT4DsxVSsaNrQNg9I3biVTiTibjMWu1yb2z2Yjy4uxE+ug5+f1hrfeCEZfHW+5UQ85aa123jJsCVWRI4MIt+6Ek8/Omm8fCD+omxWTtJvPHRa02v/tMFv62PKnkI+ygvd1XZ5yl7jqb8yv43T3OnDkxc5Mg7IVkReHOW9cevLftAWD5lOQOkrIbts1RaHmIo9gur0leT4MKbWSHNsbsUZ0r0I7hPnlZOtf8gq/pl/cW4/yT5Y1NqYNxKb7QNatNolcCamiQRtckoHV1cAySYfL8SDubAaLKSPJx5ybl3YmD258C7v8i4bj0yxs9lm0KKzsDzLLGZyeI1JSV6iQT9/+pQm+7Wvfe0mUyzIZIsJTLq2fr6Kx0nFI3t0bQhkiolMcto2XfUWjz769D7qoz5q0/1f/+t/bXz29NEDNhH9Ygp4+qCSHj6bwCZe9vQFdUQG2Ei+nM0DRy5Q8wXZ1S939LJbX7lB6vTR6r9NgBw/2awf5lyGbJPjM790k0sGr35jK05zm3z9xaZdHG201lZ5yAdetyHjI/XGmz1QRviIH2sAL/ns47cG2UxeHRVjPhHgNdZIrvU3H/lQtnbEkF15ZwOyC/oaA7DFX2PKLtCrrV7+Kskjvoy1OPGgC6bs0BOrev4hOxPxVvK88m0HMnf3HHwCe8YF9rxttJvCcDJB4Tzaw+w3EIMrgTYH6GqjAXaAlIQJettArhy0oclosuh1MKvzyYe6ks8m3YLzz2Jd6fmHqG0AJT+fCDozs/UzP/MzZ8961rPOvvzLv/zsq7/6q8++6qu+avtijU1gH60f0X0J90//6T89e/7zn/9HxqKfXIumsWjzyc73fu/3nv29v/f3tkfhisnCAbbw2BA33fKpDuXWeJ/2tKdt74D27DN/zYkcVId0pw3yfBQjmnOgHupfEX/2F6sS2FFvHGJTr48/0JcOnjyQE2d9+MUH+UkO3/zg6cs2vjp/qFgr8Rozv0pgJx3EBwr5yw9dbbIzhmwjwC+mGVv8Nlj2uhIDNmdJHlk31qx6fezhs41f7KjYQH/+If/FIwaoH/JDrzZkf7bbH6bPSshW6yMCPifFg2SKH/QVL3tsi6G9Y9rWJm+89SlR/bO9wo9KbMj02AC+ZpyHvj96Rr+ZMPCSoV4yLAIQXIOsLTGhZKTT4mlAMzHsXBngVZvxW0CeVX7lK1959iEf8iGbr5Cd/IEyO0r3aj0n7CrbM6uuuPEtcuSK2lUoGw4O9yxdKYNN0dMe5PW5ty0ebc/B0mfbLw1tRsbLlg3VmOkg8aerLcbyYcNuTI29j9j63Uf3bLNPCzb97unSQWyRmzShP1r79sAv8EGnmIpXCTaT4oB84JFPthyoJzNBlk8lNIa9WJOrb8YqN/j6s5VtUM48Q31TDzXu1m3UmLuYaLxzTGzNk1JlJ1K5sE7Mu7Vi7ajrYxOUYlXG0yaHihvyT5+PxsgnuWw4PvGMwRoSQ7bb4FCb5wq6iP1iA/6rs1k8eOygqTNjmtAv/j1kQ2zGma0o++LbQ77KCYI1hhXGgryjaPNx8C+G5mDjfdmX/KNnM7ydnR77uCuqNwcC7gykFAAIqiQ0OIGD9pyQZGZdX/1RuvWRVZZE9t1X5vuDP/iDt7K+Yok6OWSXnM3QFaxkpiuH//Jf/svtP1+7h/ubv/mb2/swPO3hCvmHfuiHtgXsyQjPHPv5tJ/v/vzP//z25aOXGrn6/h//439sj+251SA2D98/73nP2x5q94ujZzzjGduG7Es8j/bZzP0Ahn8wTjEXrzaUg/Ii9l/8xV88e6/3eq/teWeoD4xJ7uPFB7xJ9U8ZdX3sxO/ALRZIv5hbD6COslUdmh/t+pPJ5sSUq0/ZvKfHplzigzwlt+dv8qyL//2///fZk5/85O2HB1NWyQf5xmHTqG+1nWw8lB7Sl1xtcW/H8iGXc0PKB1IP6jOeSfGgXGjnt3r6fCLt9OtPfuqpZ9dFiy+k/+yf/bN/RC+KRxfoZguU0eyrDZM3+epQ7CEZMaYD2k58/su9eaaXbHLV93D3G153+Vi9st/7GTZZJ1fYLtJuO0zebQfDNxMFWnJn4tXRnFCIn54ySsjQakwAALC9SURBVBdp06mtjtKJH7Jvg/Ax3iNknanqa7HAakMfHvLFjqtbC8pG78s594D9HPpTPuVTtlsO+r7jO77j7AM/8AO354lNJN82U5vsz/7sz24/of6lX/ql7YrD5Lia/diP/djtl1CutL/7u7972zj9S3w+XXE5KfDl4HdbpaurYm08jUmJF7T9YMZVODvaM0/Z4Kt8zLwkn83s53/2Qbrm2dyQBzKo+Z/znr1klfkhk4/KGUM6oI4Xzb4JuhNkfcqY8QQ2stPY9Kvv8fGUbBa7uSyefCQXaUdkgE56ZOSuDbk+m3I62pB89RXxlHSSBbxJ+ooBajcO9XlMT0oGpr413DrGx8sWUs8GzPUIUyeKR38P2Uo+m9NH9aAtzsaW/fydB+O/n5+DrOPLfoDw7cV8XrrLFweHyjrIGwWBrtQA1jo6prNHp2SP2ZVAC8aGatPzFAYe2hJzZdFMXTSTbvN05Uvfvekv/MIv3N4QZ3O2yXuCwKYn2T4Ku6+M7+qXP2gRyruN/Iu/+IvPnvSkJ20HlM3SCYM//W5ZFCOe0q8SjcFm/Tf+xt/YDkqyyVyE6NjwX/KSl2y6a78xi5vNiVUOneIH7b3cRmGPF651nU5be7SHYzLH5EP9e3pruzKaeQnqct+6XNdmMhelUH2vL+zJnKJkK/f69iiY144HWOXWdTOxtifO0znVv8rMGM2Luo1VOeXSC5Nf3z2HPcSTGY8+nPi9f/nQsdmxZ7B9iZPuUb61o8QiH50kye2E+MmENZlKC8QBYrO0sbkV8C3f8i1n3/7t377VJdXHHDm1KaOnPvWpZ//5P//ns6/92q/dXtZiQyXj59NsfMM3fMPGd+Xa/WX6rtbUbehuWfzAD/zAtmm72vaLPjJue5ARt/gax3kgaxw2ZrFYEMa2gkw5QNeDqX+enVVOTJExNj/1TdmJyV/7Vqyyp+hGYLVpzSD11mLzeREKx/gPBtNWx04oVvRg/WYLHoydiWmHbT7QRZF+NorRBVjjLuZrsW2ub7/9ju0e81UfV/p8Mbithd9/+W8f7F02+vgnvseV7gePiwYpqGOys2+VWQ9UaJBh1UleYt0H9FTCF3zBF2yb47SXXgc+pAc2MZuozdkJTZ8rXfeNXR2r+8eqv/Vbv3X27u/+7psdtyVstO4jdwXtyzd2XLG6wnYLQ5u+TduG68QhPjJuWzhD25zZcg/bVbuX5bjanrdkIgunOjS2xuNetZexuPXCVxtEMuydh9XHHvTle8WpPqivA6EYp96e73h7tmefPJS36aux48++FZNvTXzrt37r9ktLJz167Mw8TvnsosaXfH5R0F97L54pC2sbpt70TVZuVyRfuWfzlJ/ZV72+xuw/+fguxa9ue/Y7JBvMFztIH5Kv6W/W2Qc8uj4x782HPrJdjEyQicg4brx/Rry9xCjSX3yw2nr9775s+59/9997+V/qgYusbv24nXHL61/5sgdsNBw+/l0f+o0Zkl0HoF3fTK7BJ7unu/ZN4LHlizX3gL0dap0IMtrkUO3sKefiSB8fic+Vr7zarIEd/GzR12/TTbeDIjuhev60s2ejNqnstZj127ht8FMXamfDUynf//3fv/3i8dhGEvigl1/ER4srHyvKFd3sT9RXTBPTppw6EfZC83QguSl/DOnAWkfiMzdi6aQd5ryTnXWwMf+3//bfzj7jMz5jOwnrkx/21Dup5Auq184mvyh5UGqLDWknB/quBfTZMS42rKF8hHwXRzra+Z1Id+qFta9xOBY9ISRv3Xs/Bfpyaj2QtQ7jr/6K13HiFqTvgsprIKPPmnbstKYD2WIFG7Mv89eNedoMK+8Nv/c7h9jvO3v0HY/Z7jXfdfBLxlozD3xc4ufWW+3UN/cLwGMoaco9NKhZrjrKaILsJKCnXonSxTPZtfWVbARKC0ESO8PNvhZqi6aYktFf7Optdqsd7em7mIrbAaQfWZQWhwWlXVyr7z3oKwawMPmAfE4COvkutolVh718IKBXXPrLSeNDdMTTJmlMxsYvXnO12oB8XYT4YSto889PMtkH7cp8zvFUrw910Af9/LRGEH/NW7LZIIuKY/LUj0HfzNVKUNxh9ucvn6DeOtmTifYw+6+Fgvrqp/51HHIzx00Pkptxw1zT+VBPNzuTz4d6NuMlv4fL9i//Yw33mqct60HMhzgOB/LhwK7zGN0orHbXAUdTFsQnVsCjhyyQrqRWvZWaKHpKZ1D6+tJzAG0Ju7Lw6OAhz4fSybe+SHv6snHbKPOJZwzabIhXuxiq44M26OPXExs9tYGX3RZTdXEo6c+YJuJFxQ/lJ53swxwn+50cjiH7gU7ykw/J5qPxzXjk1O0akCt96ZGJtKG+2qE4Im22mndtxFZgQ0zNEXntaT+9PX3IV3z6+Zt5QfihcSXPN9jEESRTLNlB9GasKHnY8x/U+ctverM+Kf1szHZ2kHiST25tV6KpO+WOxc6+48atPjowZfHYXONQRx1n1X1XpMwHW8p02UJk2o/0QToROfM2467O7nZcuZR+4+GAx7jZKDBBlxQlTP9kSogDocGTT2dOkkHRVy/RdBEZNrKTHyXZYtKXrZWH3JP+yq/8yu0Z5SagPraLB78YEHvK+nxx9zVf8zVn3/zN37xt9vobk8lvbGQtLLpi/bmf+7mzf/fv/t32pSUZOuSUbdz0QexArzo0rsaWDXU8djvY6580r8TZnotpYvpAdOYmnu3kEDR2fcaCn0+6cmLRx8/e1IP8atPJftBHB+U/ooMP2U+//ikLjT9+enPMjWHmCs84wBoyZoTv43yy/IgZ2FTnx9iKFc96qi8UTzmiky282c5fMYd17thBbKerPo/VeNrTvrEgdf6RenFWn3bJy4u+1ca0v8JJfD6SmG650AY50AY8cbS++NefP0QfihOPjPHTmfnag3726dHZLjau+L39UGf/ktAwOL6RaBBRUOevwI/JBINfS4ORCPUGqaSHl70OBlA2QWToNBnGLsH4rsrcGmCPPNLGf+ELX7htgmyQFwOQZUNcTbo2XWUTi+/ZafCkRnp0nNn5B3J0IjK+8PMYXmgjJsuOWxnstJmrlwslXjGoNzb26Rtj45SrDrLG6aAHfeW3OlSGfKLakdgmH/IjJvGYH3X9xsn/zC3oD+WRjezHy1fIF2KPjPj5NH4l4Bcf8Nf9R7Zn36yDdnlC5So+4JVr4zNuhMdXcnQmNX4ojgiqGxsCNo3bmOhM26AdD6orpww7ctRtM33sRhP65Dg++caorzmdY1CXDxRfSZZ/eWGnvuyGGXfxkRWDtrnTh5rfZLKfrlJf/PywhReyi8glO2Um6N91yAsZJw647aAjV16Nsdn5//7hs5596YqhRz328hdVezjm5FohKAkBPiP2IyjpJTS+ssU7+cBu8iWPHYsTr6Trc+XZL3fYw8suO+TSR5Lmhx7+k4mF+U3f9E3blzzqnq6g54uf5zznOds/afTDEeTbZr/a84WDhHu8zS8OfYH1Hu/xHtsPSzwV4VE4X4B4OsOjcb/yK7+y/az7u77ru7YfoHhCwxMbvqDzZZ0vHtj3iJ6fd9vwn/vc526/MvRECGpRoWABihXp934PT4l4Hlt8DoAWVwusHGjDtJf9yYN4+ZLf5qbNQr4BH087nwiyk29zQw51MIH+qY+fT+PKHhgLJMcmvalTDNlXRvRtHPrzR0efk4j59Qa/npIho3/PTrEoyc9YpyzKj3jJtTmp69cup/h9jO9CI/6MGbQhP2RQcYB2Y0xfHQ/h8REfgT48/fFCskrP5XuhmF/+JVtcxmVd9ilC7h2Pc75DPsQLtWcpH+mwXd7iVbKRHj/FI/9i8KSV/xbUBRO91QZkI/jln434zjv/8BOGUhzsbmtA+BzpuNHIIfsWSMnCy5+gk1NOHRQvWQNWlqgmB68EGGB66QI+m9AVps2PP1eakkK+CVC3AIpD2SbvwHMQ2lTbzCwcP5v2ja0fkvjptfjwugViE/Vt/fd8z/dscn6S7TE1fI8LiYW8p0bamNkXn1/48e0xPBu+R/H8AtC/wjI2Pm30fIm73JYbJE688s+HDQGfH3b0ibt5SFaJ6K9YedoRG+JB8jfnB8TlBMcn1K9060JcE2LQl5ycoOKDuSbyE/RZ/Eg9360tmLYmZsxTHvTVP3Xx+IHiXmNly/pr0yED2Zs5DPTEnUz5C+bV2IpLf2NOB9jm19xExdk4EYi5PsBvbGTRHBv/9QN+/tSzXx+IM71sqouLjDod9caWLtmQLpApv2LXFodjWE6nr8aX/eIvN2Twg7p44ldHeyCjj5yTBPudxH0S8e6M7UX5fn3incw3EgVucHOgAuK8QJKZAwVy+E3CRINHMwHayZtcdSV/ypIBznI2SFei+NoWg3q6YCL4Q3gm0RWRd1mADRPESt+Gb2w2WlfJzqg2TPZdnf7gD/7gtjjApuhxNVfJ+vm1ubttwRZ9wPNLQP7VPePs14JevgQ2L+/bsKGLvzxD420MEzY8Vyqen+6AbZOmH4lrO4uPfEenQD4dC7A5n/nVl4z4stkY9BUTkqdiqYTGlj5kbx13bT7yE4+9GQ+oZ1ep35oyR/mvhHTLo3p21eexgKfMlj5rLN+V+uhABzOSAxuMPnW2sssmWX3sQjEBmezWz5+2MgJycw2wM/uzGRpj8hMzFgRkspdOdWNwLBhnF0HdSgFyq4/Q2PJlLZFFxsOOT6/WJHvFM8eFp48dbXmF/CujbKNjYE8/n+JDjuEDc+P7DyeX7rnHmcuZ6A8/vu/R9UKwAmjh7dmOQjqSOBdbMtMOKA2WDlIvmcklG9+EuJXghxsSTm/Kq5uc4nZP1ybt46EvAl2xOoAslhah5GojG55F5JYJn9puO9Alh9jmy8uI3JawYefbj1/criDnhyRuVfDvROKXer5EVJJ1K8KVe//PD3+b6IHGVW7UxebE4lYMnnw7COQClPKPxEpmzROC2V4pn4itfOibuuwmwx85B00b84xHfVI66tnNl3Ji9ZftlZr77KWX7mxHbCnbLNa+GWdUn1ideBF+0K9dX+PJrr69eBoXf3RmH3l99bOrRPKtpB+m7mqDrLKxo1lHAZ99RGfGnb09XTz5oUcO4U3/eCHd+vXRZaMTxuzDI88mXjbzL3/2DPpkoL58RWFtB2uDv8Pfs3vuPVzB23sPJm+5xYn3cDF62yEnr/iNX32AM3j7d3nSVt5IXA1iZ6EGfRBv6qAmob5APplQfc8Pm9OuTc5b3z76oz96u7cFU4eMTdcm53aB+76ufi1i98O88tMG6Q1yrmJtdG5B8EFG26/y6LNjA7TBmmCb7J//839+20xtvDZXT158xVd8xba5ugJm0+be1TRdV7d4Tgp+7WfDZ49997jJ2cy8u8OVt9yhxtXYxeReNl/+8axFW45PIX222L0IyJ/CzPdE7enzWIxyDo0zxJ+xZpdctidql7cVU2ftN+deWuUn8+a7eNY4Vp9QPBOr/ekbsh+qn7Kz2pggV99qG47pTZ1rQbE4vqx/v5j0qTPfaPqUx/hBf+1k5Tnb2ag8ZmPqwOyH+ug7/n0v5F01jvFrwZte/Yqr6wG2XwFeuTh0PG4nhFe95MUP2ERcrd2sjTlqoGtSViQ/MQ+siT3ZsPqRjCaFjs3MPVrwb6U6Q3ZAkpk6NgU6SDuZ5CEe0Ftj004Wsvff//t/3+47f9mXfdl2JY/HX7L00q3O795iimZcE+Jyn9ptFe+Gdr/c2CFb2YBpY/UF/FwU6cJebLN/re/5yYYxgXY8OtGxDb3+PWTrWP8KMfhE5UthJzsnztXGjG3iPH44r/+Ynel/7YNpZ8qu9iemnT2dPT8T+pG8/Z//83+2X/79xb/4F//IxpwcaKuvffTjrbKznk6Iv8pF2unMPv5cJPlE61UGLtAm0gnkEV2467W/e/XYdZGldEVuU6brkbntf/6tH3tvJDji2IFRMGvgK9KZdAx7stHqB6/NrrqnEdzr9QrObuwHdUTOxkVHAn3C6ONOH3mi7CKyU25tI1eq5sBV8Ud8xEdcvWfNB3k2p70oe8UWrxiKvXoLyhh94eG2iqc9XNXVhzpRIO0V0+b1oLiO6c/+SXyegv69uNLtoFppyqw0bZHdy0fIFr0w9afNPX/n8ff6tVfMcU3En/3T7jHs2YJjtmDyLwry6a8xzXbl9FEups/matWbSH7aVGfPcaVcUX/QLpZJe4gvNhfCjkXHrbY6KO88HJ+XHMiMC+SPEyTJuG1MPRHRe5Vnck3C3gRdD/iblB+3Hp7+9Kef/fW//te3Wyr8JQNzk8QrppXSmbqNQ8mOifeR0Rn/wz/8w7cTgDWg32KxaSNn8lMb0cMdxtOC78u0SB5cncycHsPUQ6cw+8+TvRmYcUbGaLyNeU8Gpd9aQ/FX4CeT3DG6KJLdm4vV5h4FdeNEtY9R/eXGWjGe2uXiFFabewTG1WbfBZXyUYcLMxdUW//hOLQXwPbPWLtqu5EoqCZvTvgeTdnaK29S/ZNO9UUTYrIpuWr2hIb//+deb3b2MPnZW+3L6bpR1gZy0w6+Oeiqd+pC8mj6CfFWPky+xebJDffK/SssV8x8WZBk5pW3DZv/9KcdpVjkb+UV4zHoiyD5Pd0pN+sTeOlOxHeC8Ykw20jcxR6ls9ZXWmOE+oK8rXLJrLIQj86Mc22jKb/SHvDZ6Phb5eqv75QsxFNOirfamjIrrYg3111Qn/amn/pn35SpfUrGmPsy3/Fw7OKEDsxjMworj6zjLGLfsaZ80+tfv8nw42VGXUkf5C4/P5mjGwmBcdhgI20+51MNZJUtioiMA0upfWzRJIuyF60w1oieTdEXgNr+JZSryWxF4iQr/ulfqT2pMTVePG12jFsdisEc2BCV2WMDAX5y+hpXMUywHRUP4rd/YWVT9hhfn5LYYR8sGKSdrz2w31jykd81NvVk9kh/dpTlr3b2pk2IN/Wypyxv2nJPBsXPRmWUPSUC8uw7WNeYIqhcscefuseo8aCJtb2H9IwXsiV++dBunhvnxJojqJ7NclGey1u6F8X0UTzZVu/YKW7IVxT4trbjZ7u9h1660y+d4rYx16+kl+wsER0yYmsNKvlLFsih1p/Sce+1GHx3MWQ/2q6YBcnQzYLgClyw+dPmvwFCyUDklO67krVB+3KFTKAfyGd/2lyBzwaiLyk+Qvh3Tu71+iLO43DzrMl/xH5xZ49fffmPikNd39yYgZ2InyY0X+pIHzv617lKH1+OPC6XH/F7csTjdH51+EEf9EFXv+xr8Vog6sqILX3ZnyWQbwPni/zMx4Q2W41LTKifldM3x8o2PvKzrF5ME+xnm1xIR5zqYhRvdXoz5ogtsbAnPm06YsOjW36mnnZ98aavFenMvPAL+Gjm/BjIoHxmd8aSPXUxTcKbfswtSlYZkmML8lvb2pk8+gE/CtP2RPHSb32pl6PsNzeQX3OG1B0PdMlZb9rqePQbq/w7bpTxofnmAz+/SgTa9iX2ySNx5mNiG/8hR/hy5YmM4s/mdgzarWeibgYaQB+RHSjOCqhEQIEhMeHrt1l6JIy+M8zElGdXf0ldkwJk8esj24S6neHxF/+fz6Nknlpwa2NOTHraFohSIgN72squgovN2I1Zvbgnsp0+PaReG1Y9iKfkg7zF4irZf0hx+8K7pz2ip48P/mb+Gx8/c0zH0NiuRw/NnIoDzLG2nLOHyFnoDih9e3mbvuunp86mnDRn2Y3IRPw6qJXmCTr42WdL/mDqTX2k3tj2Yk5eHzTH5UWccqJ+DPT15zM/qy9jZLtjDxkHfjr8zjjZK98T5YtffeU8ufqQ+FG8NsQ1VrQHttMVrz3AONhJT11MkOyMGa/xWwPsOC4RvjxbW80tyi+d5AL7M35onnrOGV9/tlbcf+lwEXUwSeZW/Qd5NtlAYrr0qMMkzc3sRqPg2UcFrTRgdQSCCsnhzcEdGyxbxqEf8hHtId9NnJL+h33Yh20v7Jag//pf/+v2nwo8nzoXRJOjbAGKVVncQDY/kb7J11a2AFrAUGyQHkpHudbF7fGjb/u2b9veq+ELxc/7vM/bHuthqxjlsVxq89tCr50/qAR1cqiDfc4LfZROvrJdXbzlLll1V9Da2RQLvYlsyZX+MGOb64VMVzJ8ZI98vo2jiwA8awpP6bHSPm6G/PCRXMdTfmHqBPbFkm/y6Sjp6OukpB6JvbHL31wv+VK2drKbr1mu9mDGnkwEbBcjvfIpzmzIYccj5GP6W20jyDZqbaHyW3zkyfDPN775Q+qNP1vNizpd64yeOOnEF5t660fbuIpbH37U2sifePD3YDM2htsOtslliy47cMvrf/dlDzSgt3vCu2/MG4GSXPILoIAlG1ydaHdFo25joSd4yVDS9TFEXQLI4e2BHfpgsOSiYiqu+BPFizxK58rZLwTd7uDfi4T8RHTq0eFLvB1E9edTucaNV8l2sogsgvTWWB2UDlx8OXV/XE7lyA9f3vd933eLlb0WGR0lX8ZIj75FSsZcuP1hLL4gFBfsxQ3Z0V+8oI30K8XApjaf5pken2J2YOjzkRD8QIZe8+CTU4s/u8Bm48i/vvLYwWJ89IwH3zjJJwdk2ULZopMNdpF+vNYx4PuU4oT4cR/3cdvP6MUGfM7cABv62dFn3SCyeMUiN80LNLYZC316Yp0yQV1f44XqbUzmwzFmnetj1/iKL7CTjfwDOXykXnwzJnbST1fp8U0/zvKprmNr6qnLlRjVxWUdi91mNm2Tay3oj0/eOItNn9yWV+32FvPYZivGcswuOT9O8xzzM5/5zO2TdvkA/WJo/dKbeMVLfv1yXs8OeTjY5YO8/wF45yH/W4z/79//4mcTpnzH21x+N8ONhMCA4xLcRKuX0HhIAiVCwuJrmxQDQnSzvYJNRBdOya5ITklf0hxgNrn3eq/32t5r0RlZfMgBIZlK8uq1twk42FHvwImM0xvlyJIzvsjkonLW4tAG9XIK4vFLQVfH/nmrL/j8IolvfWTLpUWUTXxxAb/6tfNbvgPeHtgB+mSSmyWb+QZ1MRSTuj55cVDgq+MhuW0MgZ48gTjFkU3+yk/xzfEo2WUjOXrlRV/+iiFKdsYC4vVpxY9LOtHwk42J6VMM8k/fetBnXPjFPH2xlf81xonJSydMfX3GXS7Uj8Wurq/4s0u3OaytHgE+kDM+fP79gtV7Y9xqs/70Qzb5yk7jLa5ixldntz58vIhtffjsaiPzLffFp20eatMFNum5ePB2OcebPUA/HVSsra9shDvf8Aebz9tuOVzdH06C23/MPhCe+8/b2nPFzNDBwtnj/sS1/bTwIjCIBgUCLVj8JkBbXXJLZgMi38D1G0D8PZAtOYGtbZwH4KuvhD/7QEzq9IsNby7YdPGnH5h1MoCHXJV6CsQTITb/6T+5UF9jQ/xN/tQttngO+q4Mym12km1By++037izN5GN2Y+0obqyOeQD+NPHPl5jADxtJNeV9QMefTZB/7aoDzLpoMaabrGQKU5tyG/8cgOTV332IVda/mO6L5JtzsDPtBPSqS7ffMt/MRSnuCZmDFD8+DD7QD//+rNdTOnyD/rSF0s2J6YMG0ju2SKfn3wA+fzxlT4ZJzPvh/HLP1fs+lt37MoBop8esIXw8rXGMP0qs1s7O8nx53jpkwOUm/q9GdJtQvH6BF1M5FqDLiTor3P3mle+5PKxdv8fnkz82pFPG/N9B/3tqQxfAHqj0c2AwEpqC6zBKk08wq8k11WkdjxkEOg8kDH4KWusKKiXOGV98ZA4uiouDrypU6mv9h5Nf6iJA30IpmxUf7p8dXWuXXzV9avTVXYFivTFV4KFhY8gX/Uri+8YWpzHwEZxVp/zXNxK/ah49K8oR8Wtzh792afMJ2psIVkEU37FlNnLhxwg/eJoLHuy+a3kU7yt2XjZBLLHbE1+7WjGsLbV81UM8oiSCTOW9JJJr5xX6o+mrv7ygz9l0xWPda69gg7ZbKVfHbKRjDqQi1+fWPCMwW0z/OLRl131GW/2smP+bNDae9h8HcgxyRefrpjR9ma5gx7L2w59s9DALkIN9BgvexP1rVTfxCozaUvGFV+dzdf+vfqDoelzxSp7irJjgtGezB7B3ATQiuTC1IXax/izPnlQuxzs9VeufbDXHx3jT0qmsnpYebVXuQl91s66fs6jdJE5bBOZ87LKTxzjh9lf/aI00djCnvweJVu5EkzbezKovolV5nopqK9rMgqzPfvpdRweg/9S4p+TQLdP2shvP5yEtqtp9zcK4uGOBn0RJNvYTLhNaC6qiTW5Nzof2T6GuSivF/m4Fmqse6QPyt0prPIXyfO10sSMaa8fpu6NovOQzHn5WrH6ieQ0erig+T01zyuMpTKa0J721v6HE8RYvHvz3KeG5FbcchjifXe5Or7/7DDDBzlX+YdPerfdcXbv3fedPfZxb3d2ibJ7Gxfd8B4s+GtAzhJKFH+VQc4g7tuABTqTMnUjIDMpnNJDkPzKP4Ypt9KKvT7+tI3RWLtiX+XW9opTfWseQLuTV9iTCflf40gmfrmdvD3QW/1N+b1y9oc9O/FWOoVsT/npE811E2Y9JHOM9tYgTN97BOmns2K1eQxTLtm1vcaIWp+w9kV7fWAMsz3roXHuYU93nZPqe0R2yoTZro725mhij+94clzFTybyb6WSueOOR5/deunWs3vuvufqHnznG954eWN2P+VUMm40ZpAX2ZxtVkiMBtRGUn+y0ZRrXJVTpzLEi9a+YxSqK+k3thXpian+xgT1Q3GfApkI8h9lL8Lr4Jq66et3kki3vnSVe8CfdIwH6tlSVo/4V4ZVBmbME8lM2dne81d7yh7D7F9jwGdrxfQ5sSeb/ekjrPrHZGtP+Sk7+SvWdZtsY3AsThvT1uTtUSgXk9cxO3kh2VWni7bW89pfu9jDlJ0EbLX+Jr/6nI+OW7xi3+4VL+t3Qsxi8Wiii2L+3MJQ7x71wdaVby6vKD1UEDS/BoQadIOZg3ez3ceDkgAlYupm6xTSg23ci1+Ydmb/Hq2YvL3+FWTEAXzWjrRXO/FOEVzLOCbRaV3MBb/GU732ivrWsaBiy0fl1IP4ycSHxjYx/azy8dlaD+Zpf7XRhYH6tBOFU7zpD8ReH7tRvElrf7GCdrbxlDDtT0pG/RimPGRrxjD7J6bfCe1VVxvoHIt30uoflOmjeJPyE/BCMjD18wPnxQbKqaN0DNWe6FPq277922866m4pv83hAvnqdwseCTGxbw4I2iLpDLMmQ8Bzg5jA65tM9Ysgf/liG/AceMWRryaK7CT9yr2k50PZBJwCf/zSIctn8XRG3fOzB3LiYpP+mtPQOI710e3XZnOs6VwUdNLPRtA2Ps+DdtVg7Hi94Y9/pN7BQW6NOeAnk9/4lcWB5Idv+c/+mrf4kfjIhOJsDrXTBSU+mwj09wtE/WLwQwc20gvZm3bp0U++eMXRvCUbhWKZvBWtw2xmD2/m4xj0kZ/jVi8/oDTuNdZTyCYydro2snw0rmxbW9ZSv+6DdJMN6UFjT47OGl9txBfKJqJfrlbI73ZlfJDvyYzHHvZhcd51iJPeJQZtIH6BktE9Y9cKNpoISSlxBc95G5cS4YUZSwNkiz57tVHy1fOLp05eWfKQukTgmwAHRnrp0rPQtdXrK87kIlCy3QtN0sGvBL5g8uvTFqOckIviV+enuOjWV770i0E9neT0aU/CB/rlDJ+s/IB2Jwy5yceMI8omOwFPmx47wB+5bBcH+34Kry2f5gumbWXU2Mq7Nl+NQ4x4+snha08SV3U65NJT95yyenFUkg2NF6848qne+LWh3FUvXjrVUfXss4Vaj/iNfW7c+HzhJ8tP8YRs56e+bOBBMsBGffUDnQi/MZJVh74gKw/JTnl5otO6iPSnm446eX1sIz/y8bidcSdDD4q7NuC1J80TFD5Mef3ATzrlt7495Fcs5Fsbdxw26HuvzN8lg8j5jUZBljDlXGwGaAAGViL2BsROpL+Sjeyg6pWw9vHjDOX2SPEVT/zZh6+uj26TMHXzBfrIZEe7frbku0nWn11oXNr6lA6wDjKYY6teTulbwHjsAN6keHTpoLlJqOvzwLuSb32IXWQM5LKJp78rk+zilavpG09/8bNlw8PT52ACeZzPejcv2aZfyY48dALJB4Jih+zKPWpOxS7n5MSD+IvXsUK2NjRfE2SQPgRiKQ7PxvOrDuoI2JV38nTZAaWxIrJ8GnO6ZOcaxktHntgrJvatFX2hPqVxosbZGiG/yrCV/gTd8lW7kg0xZmvaU8cnx2d+8RtnRJ6dxg3k8yHP9Iyh/MuZtWr8jUtf81kM2dSmpwR9xVhM5VibLMJLZ0U++AUXxvS3MbHPsd9oN6ibAQN0IHBacgQFAjwW/IoGG03MvgYLJQnhIzJ8igdKLplQ4pJZ7Z4CPflsjPmHLfEH2y0efoFsuZg+5U7bz1W9ttNBgG9BZZMtG1L60xaCYpg+vf/Df+f2H038926/RJwwZ8g/efW/Ef3TWP69qe5HfuRHthjAIvfLLf+eyz/V9EY7V7ogZ2LgV9yRMbHtxf0/8zM/czW35Yc8ntL4pg1+/TNM7yr4pV/6patzqnRwkUPqdKG5VCL98lCu0oH08NlVkjUXThp0+HKAd8CXi0CPDX2oE0H+yeOri6txA776pOJLVp1cG4c6njrfMMcG2ULGMceSjHr65PRPHxEZZBwz5xO1yzt5vBnHJDJR+cju7Iepl934q45+MQO7Nmu3cM2Jsc2cWt/mjU7z11xBPouDjj458KmudVOs6iv4In//A3xcvlV0zz13n91yq3XpBHTQZ/RNV+5v3SzwETVgmMlfgUe2pCsNQOLEylYJ0B+Rg3RXkIESps1GGyl+MVXnt3uAbDYOoAP5R7Nfe6K2sdNt8qGYlPqbZH69I/qrvuqrzn75l39549vMvvM7v3OLqwNn+tLOHvt0sic2m/G/+Tf/ZvuXWl4Q5B+I2mzJlFOlDfBbv/Vbt02crs3ba0RtqGTEZmP24p6v/uqv3jbmH//xH9/eZw1tRlB8/Dd+L67x9r74eErENh2bItIG4xWnN/958X/5xudPe5K+xq/dOlKH8tQvPB2w3furT4laJ+JqDOp8QGNMXn+kXX/t6lC82nwbczyx0532yfFrPNCJBqYvcdaXrYniKOed/PGLQZu+Nn/k8Mni5S+fE/ryAdNfSGb2ZY/fYrdJTr0JuuSUxQvq5UAZtTbZbTzarY/8zzHN+Mgj/c2XuvyyoW8vVlfql+0cYrztcBK67fCJ/I5Hnd115xvPHv1Yr004xPslz/r720uMCN7xuD98iVEBPBisNgzaANpI1v7ZLiENXJ8BG2gLgb2Sn71J6ZGpxKvNjnoTpl5f+vx3NSR2vCadzEQ+2EMBD7JbHVypetmQFxCBCUXJIv/yyvuh/9yf+3PbFaKX3dvMbIDeHW1R2ai9Wc5Lln77t3972yC9IMnVrrdcuaK1iRkD+//6X//rsyc/+clnf+2v/bXNrhge//jHb2NlyxW6t3yx8/znP3/7b8Be4uSq2NWGFyXRMU7z+RM/8RPbi2j838InPOEJ23hcYYsF+a/c7Mudk4uranHYBMXHtv+5+KIXvWjTszGKwQnAOPB6KZMrduNxchG7F/+zaXwWfe8uQMUnj80xVMcXE5oHFB0EZGC1qSRLT5tNJ0pz5D/E9HYxNiEZvsyZPjHgqSN1crWhOJMtXm3+6xcHCtMuoiM+OjB9Gxdkw9gQHfK1yRYDHWthjReSK7bZRnSr6+slRt6GyA+Igx9rhK48xgNy+Ep2gAxiX1xKOlMuWX7Zyi4ZOs0pOcdLuo0DfCLsJUbWauPjD2nTnTrhgbvvvMrzt1zQv/tw/Clv/cfP+n+evX0MPnS8zdu/w66h68Fqp7YAjvVN/sqTGEkz2CZkUgOb5Z4tfemTiaZMSD6/TTSo60t+6k9a+ybYsvG1MTepjYG8RfI1X/M1Z+/8zu989qmf+qlnL3zhC7eNz8HvqtSm5KqWnec973ln7/3e7332G7/xG9uiee5zn7tdBXp1p9sgNncbq03QbYBnPOMZW50/ry700ZbMT/7kT25X416sZAO0UdtkfFSzSVvIL3jBC7Y32NGxuNn36kZ9YrNhft3Xfd3Z93zP92z/GcIV9Yd+6Idum6nXqOL5xtwma5P2fxfJ0xcDu26zuFp39eITQ5u32GwI/t29E4Qrdv3ic8vlKU95ynYSYKODY863eu3mJH7rrPzHT1c/mCf92Y7vxCZn/sFv/1Mxyl520MqvPQkvTHn66spiVBZPetnBNzYbXTr4ren0pz19dJA2arOKsr/6iybWvvrXjbm+YqoujuIlB8kmg4+KpzhhytbWxy4da1l77jN74/L9g+NMvNZicWZLSQ4fTd07X/f7V9el41vJLzI31tD2EiOL+PaDsZuFgmuQfEpuCd7D7E9+1icdA9l8T4KL2Jh+oUlrcaDpY8YW8FZKFk3gt6CcsfXbqD7+4z/+7K/8lb+ybbpf+IVfuG3iXnqv7XWkNiBXyjYwV4xPe9rTNl0yn/zJn7x9kWfjdQJ4+ctfvvWxb0OHYraJk3UV0IKxmdpkP/3TP33bSC1GV9Lk+u8ujcfm7T3EH/ERH7EtVicQfntjGHkbuLhdqX/ap33atvnzLXZXvS4SjMVVCH39X/RFX7RtcjZeV8V+EOUfGbz7u7/7li8nBCQGfWLC10aNLwr1B+OI0pv96vXFtx6aM9QBaa2kn4xy8tDU2yN90IGL6De+fGezDSZeFLJZP0wZ/W1KkP+ZN3X9+YkgWyutMurKY+CDjFhCOUFTNx+o+FE+8j11wuxH5a/NtXFPXTzzMLHnxzG0B5+W7j30NUYE/N19ON5tztuXfx2ENwPsFnT1a0E6czIaTHSe3fpXuZU/+wK/Jmr638OpPjjmo4Otccwx4dugbMw2WXG4QrRZmTebttcPfv3Xf/12BifrbOuq1JW1TdIVpleL/sAP/MC2odt8bV42X1emrrpdvbrl4er1m7/5mzc/NnsbHLBpMcmBunfmumVh8bt65cMiY9cGirxI3AID47HG2GDbVbt71ewZoz6k7UrTycc4jY8/Y3Ui0ObDrRFX5ewhfWJ1ArHhu5Ux54v/UyAbJUtX+xjmPO7VlXKyd2BPzPmeFKaNWT+G1U/2pp+JY3xIb9qYcvHRRWOb+qcw5VY9dbHkb+2HeOTCGv9ezGSmzilka8+3dY7U+eg4V2ffC/Fbo0jd8eS/m7i42u4xYzoAHvt273DF9M1FwawUapckNOVuNs0YJq2xzPoxnShUb1F4B+27vuu7bleHTdqcMO0muMkG8+Xq1WZsc6Jr03I1615zGzA5PB8VydjkbHpPfepTN55N3CbqHi55V9FtyK522bKJqrt6tgn7ws5G7irYFbDNtP8sLiZXtU4C2uJ/j/d4j+2enNsx/Lpn7naJjbur7vd///ff+n0Z6YtGV83is1jpu5IWH31X1j722oD1f8zHfMx2cjEGm7crcrLlb87TKQLlReWjCWOWH/eYfRLdk590ESSnbDwTq721PTH7Zv/KP0ZTdmK2176JdCdZl+ba2lpvZUydoL7O0SmsMmt9Ulj5k8CFkPXmAsdxsCeHJowT7947//A3AYDnmN+O441z4L3qJS9+wMHqHvPNeFH+WyIk8CJYE39RsO8K0cS42nVP1MbUVSO7ZBCZFuHk2YA8TWFzi0eXbBti7eS1Ac+GbrMjq88VMqg3LvJsF5cFaAMspq7QxeAsX3xIHz32u/q2zmyk4tbuSpe8E4m6WxrgtghdvvSpA1tuadBpPGzqF4M630oxgvFc71xdFI1bfp7znOds3wf4ZAP5vp4Y2JwlrHZu9tgmzEcQk3b+WzvmubVzDPoQeTZ8AvI9idte5m5vTFNnYk92Yk++2OZ44Dxbwae2/rWUCwRIN9uVUJ/ydb/7srNLh5PPfVeOPbnCt/79AvDqi/I3he3vI7iZaGEdo2SgebG5xYNkXVW4IrNZujpUr+3q1sZmQ9N2xayt1LZxsa/Ed+vBJqmdLXw8lC4d9Wlfv80yv3TZc3Dh4ymTY0O/Twhd1bNlPPot8q6E2UTVydps2RKPeJ0UEF1X3Py3KfOFZv5uNvZ8PRj/zXcwnjcHimOPbG5O0P3AaMWeTqi+ztWUm/JAzvw2xyGdVf5Ue09n8vYoVJ88mHKzrzEeNt2zBw6b7623Hi5UHuVZ6ju2138+6rbbD5uyE8VhbJ3x5gAfwc2DfDszRhayybOw658T21VhsBjxkA3IhqaOX3+kH9iqn2w6Slc3Nrbs2SzjV+InH2kDu+yzYQ3hV6arzN6MGU/JRv3bwj20K7M/eXQQ+em3tZxsmPWbCX7EgMRwI8DmpDcnWpOg7qKhuLSb69BaBmVUmz6ZEK86u/rXi5PsOn6mPuBH6Uba6UYh+Z5fZrtYoH782vobe/1K0Bd/hbWxHff3W9eHdXufOD2R8eiD4bPDBv2oy1/+ldxHcBnl4zy6VjRJc4HYUJpsvCZUHaav6RuZ4OhY39zEoqm3Etlj/GljjxyY60ZMd41t0upn9sEe/xiRg72+hwr5mgfkg4kh3VP0UMK6dMvIxqLe7abWqzmY61e99lzb1jw79PGRTbELFePC0ybbRuk2lvu7bPSzapj5oOM2nYudbKFiiLQRmdrF0JrD7/gMySsbL71yoaye7wm68ciA4wW//2xyKC9faQjmEdx8mEQEcg8myQSbzKCvSV2JbAtnba99ezIPhrIzCR8a28qf+islt9fODgpTdtKe7EMNYy+et1bMObZGOxH7pIXw7SdtPurtLzZSm2WbrRM3G3TYaQNO36ar3XFCTx+7YlBXTpCnx6a4HFM2zTZcdpX42csXuF3Gn7ZYleQadzGyr63PSaCTBehnX7kH/hoHX+WAjn87tcU/B/kIbi7k2qT4JZunEjqjW0C+4fVEgslsEaSzEiSzysJeX1j7roUm9vin4qtvpVUOVpmJte8YPRTooEYz9jmWt3Q0lqh9wkZSrsuDtTtzoW2N6yfvtpO1rl+fzRgf8KuTzyaejSubNnPfJ2g7EWSvfvLxxdanuWzYoEF/G2Kx89namfboAzkgF89mypaYlPrabFsLE9quih9z5XueR13JAdtsyNcWVwE9gocGku5LK8/y+lhW7j0CZtE0ociEoRZLmH2rzKk+WPnn0SofJn/27+mhY1jlpo8w7R1Dfh9qONDMIeog3A6+E7G+pcF4bBxzYwL5jt94lTat2jYr/dZ2eYm0y1mbJwI67GvTtQGqk+e/uc5PIGPDr9/+BvT0+RK571ToVoozObqV1WvPTb45549ddtJhD01e8GO+rti7apcFZRv+NioMO/gjuLkwiRacpwcsDs8Pm2Q8PxTxvG4LrcXwCB7ecOw4+Pu4C+uB+JaMxmGMbcB46q1nwG+TA/w+ztugeroGkq1fDhGd7NFhX167zdBm16aGT37mes6HEvhjq6v3CA/ZDF2tkouvji9msbJVrJCceIob8ctP62FvHYibbX3l0hs+6bTpX3JZzbl/bfIIbi5MgsT7qPWkJz1pe7GPx766j+VHFWSa9Efw8IcD2MHZphP2Dsi3RLQOjbHNxEWFcce3psEGkzw58mSV5MmtGx65dPRF+D5ZkmOj2xfa9GHmnDya+kp6/KCulIsj0m586abX+PQp9RWvthimX7zqkOzElr8rdu49HPd+Q3LPYTMH+8CjD+O+dJd7LoQ29sMDNiaTbMPyYwRnSG38yKCO0cMZTfyf+lN/avsyxO0M95z9Ws2E6Wty39Ig98fm6M2JGceNjqcD1fpUR7DO383y/1ChzQa1SdVWR9uGc2i3huemXV7KETnybbRTD2WXDRv01O8esn7tmVNtfWwr2UHx+CITXz3SbmzFwK4+/Glv+s5vOsakxIMZH2xfRF65mi8e/bdfGZc9+RIj3p7v1yYPNwi4oC38Nue3ZBiPSfMjCh/vvPbTF39+1mxik3koUH5P0SM4jg7SvbyhtzbsjTHay8VebkLtZBzjbhU4xtvEpj7MOhlXl92uCMms8ezFsken5GZfx6o4iheK69hela791t673R65Mua7Dhei+h61neCunCHs1A8XCB6cTXykqP2WjsZh0ozN7+y9a8LkeFNaEw9zsh/BwxvmrQP1rRHW5Cm6EWiDiybKb76Ujh9XzuihAr/iKB4br2N55kGfDVdcYtwDGfsa/U4u6tm478C75M/9h0T0GMmKNWF7dLPQgEtESblZaDySpOysF7+++GvfRcmYjOXd3u3dtjeifciHfMjVe1XFEaZemLxoxrPGdSzWR/B/Y83ReXlqfe7N3VsDjOs8ejCYOZbHcjnzuPrSp27jcxzFfyiQr/YhxxUUH35xzbFNFPPVH5McdLr9ceg4u+1wkXzLa172mw/YaNx/edyffNdNcGLP8IqHMjE3C8bpzIXUWyByI5FOXO53uyesRO4Rk0s2gur1R2Ayu1/leWYvu/FEBr90+EP6swezDtOuPjZ7PWhjSG62s1P7Efwh5GnFmvc90EN+aOAlRl7GYy6A/kVs/HGDfHXR4KVA/ivP53zO52zvQtFnHT8c8rauCW0vq/KKXO8p95RVmy2cF/Prf/dlly/u7jvbNmE/KrnVMXso8bdx//7Lf/sBhnzB9k7v/l5XVP8Qa1B7eGtYdBJirB51kRiLRfK9WN4zxh5n6wTWt8U2NrIgBzMPtVFyJg/4sYlq+4Kzjz4+1ujLTmdjWOudRMQEfn3ktYm9hMg7ky0YbTbFMDd8eGRj/r+xt97nvB4DPfTIxnxxyJe1jDyh1MbsSSV9b60b8xtf9fIrx+1B53AMeiKDvjx0nG4b86Mf85jtm8C3fed3u6w5sAa1h7eGRScpktWja72G0JWy2w2eovDeZBvqnACJVMaTr5mz6pXkpwy/YBHizVzO+tqXXnBitTl7r61/K4XE6n8C+pdMvXWNjUc25uNoXiZm3o+hOX1kY7445Ms6Rn+cNmZXzC7wXv+6N16+nSEPB3r0gec4lo/tJ9nbI3MPMQzuPLqZYN9GjPoWVVK8KN7/yvO0hP9p5z9iPP3pT982Nzfsu/JFbcoT2vrITdnadGqr2yy1xUM3gjUH5SXZbKmzZ0GL8xM+4RO2f8fkXzy52vd/9zz5YcKNU8lGB0XtR/Dg0NyYi4cC+Zt0o3GzfByzZy1eC+gfW7/HfOzhlJ09kOs4nccs5DNawY+LKP8h+1GPuvXs3vv9COfWs3vuPVw5H3i3HegSgVsPV1Y2pT9ukMzOUK6Ubcb+jb9H1z7/8z//6j9adHazAbYRKqMmZdLEKdm5qaLV9tRZ+Wufq2PUbRHvQXa1/Lmf+7nbP2z1T0r9Zw23amzO3Ut/BH8U5XTSRWEeOhid7B/B+Zg5XstrRbk/RhfFRfWK/XridaxeOqjdf/99Z2/7dm974Fy+vcnUo24/9Llf6v9PuRr84wZJtxm6XeE/Nfvvxn/hL/yFsw//8A/fNmQH17pY5kRdz4RcK5r4SSvWfjEmZ5P2H1I+6ZM+afsff/6tk43ZJtLV8yN48Cj31Z34HsFDB+s4akNF8S6KY3bQMaxyp2ShY9SPTJRvesMbtn/O6qLJPeftatoC8g8AHaQ3EzNoNLH2RXvYk0On+vYISr53Vrha9j/tPFts09Jn004uTH3oYIx/jC6Ka5WH6Qd15QbG4CraVfMnfuInbv/y3/289Yo53Yl4xyjs9aE97MmtNLHXf1G6iP55uKh8/XLvE1brIkwb6BjOk5n9e3Ln9d8I7Pm4VloRb/av5XlIN4pXWf0UkmtvOIbkzqM92R6T80SG9XL7lfWy3VK1H/vkTKANaA8UzqMbBUFLSEmJTmGV7yoQVZ+24rcx+ZLMlw4f9VEftf0DTblwW8Fmtn3cOCROmyydOWa8yuk34CdzUZDPRvU5jviwxrHGNuWNxZeYvqx4/vOfv/3T1FX/ZqFYph/1NV/HsOqnZyFXn7ZX1F85bd1IsGmtWDPmDOacXBTHYruWmK9ljNcju6ejfSzHaxtmXujJG+zJHkP5ncSWEthEF7FHhm6knb3aYcqu/FN9YG24dXoQ2Oxv3/Ed+i7fyrjsz43K7RvBU5vzzUZJhDkodB7I2DANlq66A1bdhLA9bapHPjp4B7Jf3bmizF79E3u8Cf4919w9a7J8z7Gdh3xMX42vTQhWm3NBl4dAts3CHHu6xKcCnxDEO+XzO+l6sNrgA83cajdv14Js0PMEBBuAN6E95yGePNJRn3QRrDrXQhN7/edR+Yvg1Pqqj246q81JU+YU9Ddv6a2It/bPWPUdo/P69yg4/rZ3URzmWb29YMWqHxkXndCx13EdyFaS0Z+/SvL6lOQavxcYrTbJuRjsOL3koeaD1tEJfqjQQgKDaDDXAjpzAQMb2Yu0JeLXfu3XtrovyZytwowFsrFSIKvN5tSD1dZ52LPfCQbWPtjTCfToy4u6SXfLRqweCZwLB07ZulZkh+/m5cHYTnel+iaa66C+F8eqdx6m3rXQij2ZScUY4q38i2DqHaNV5hj02VDKI5qw4fTaSzLV9+zGQ+fFd4zSg9Z3V57i5L8+NLHacpwoxa0OymiCX/aULnwi/vHqz3bY4jjY8h0W+fR9x8evXGlf2n7TfRjIXYdB3EgU0CSOm1DttUQCLxFrIvdATjJKUjrZm/Xa4GrrF37hF86e/OQnb6/btEG1gNiB4hLztDGJTJubhYCcsdPBzw5MnfJRTlBt/WRbENNO+vklL3Z+IZlQn0WqzyL4gA/4gO02jl8y4iFQztjooD2fSH3qQ22kP//k92SzsYdpA00b6/qIX2wBb11Ta+wRXvrJTLlyEE05/ewjPP3pJWMM+Mnjz7FlM/tkrCn9dLKTXaiOH01edkCdLe3pY83lRLaywaY49tDxqCRfLGHaqp+tZJQzLv3ZKC/xZ97Sh+Z62+AOZSAzadpgN/sI5IS+jb4Lt3xNItO8q7MLx3LqYphe/Up2zTPf4tmeY/ZUxm2HZN5sCEYABa5dosGgTGo0kxrE24DSC9lX2kxKMGSTrn6/6PPtp/ciSzpfSJ1ci6FJA2WT2WaFZkxAD7+xaqOgrg/YdJIQSwdgsdIF8u5J5VOc5NyKqMSPQFkuyKDiYcfb7fjzi8bki1FMZJWvfe1rr/7oBi8b+lpI+Zxgq/kzlurFVH3Snh3Qxz9fdMu3L9nYLff6EDtiowfTBzsw9SBdmHw6raXyqI7PzySYuiFdKD7ltKd08hI3sibkXV8nNbb1ZQvWWMkHfrJFh2wyxaHd2FFY29A42dEnh81r0DbfofjIz1gh+62P7BYTiLW2MRhP+QPlrCcPjuWuSmHVafwTc12sJXlrYdUp7mlTHT/dCVfMID7927+XOuSg3zRs+9Em8RCjQaAGuQ7AAEvoHkqC0mSoS+rUYRvhTzLBfptvc/K7fFgXR7KAx46SfZOjnnxyrkR9RPEIopgcWKfGAPySNxmNoxjUa+vvHpQ+UIqLDF8dEOwkY6z44kJs6fdJyS+WXvKSl2w28GwAbJWz4mgBTeDjJXcK9PkTB9tAz0FTzOxFQSyzZKerIHrTd2X5YqexND48OjD7ldrTRn34EdB3QkDFXxwoe9lMZ9bpaNtkwLjwtBsfO+yJW9mTHjOWFXySR/RhyivZKOfFAukV9ySYdTag9opywH6bjfqEfmuzOGe+1Onwo44CmcYgb/LSGCaKNwq12eSbbjE0rj3Ut8YT9nJCzrinXf14SL/4XRgfOq7GIi+X/HmoIMA5QEE2AQKaVP8c6ER94u9LN3bo4dnsDL4z7KrjJURPfOITt4WDR3dNos3Oo2W/8iu/stGLX/zi7eoDipl9C9oBZfPBy15+J/AaI70pqy4fUbF00NAJ/AEd9OM//uNbfMYmZs8ruwpnQ7+TSb4saOP2acFPS93OICuPZMSSHj/aLaRiL5ZiPwV2oAUJ9NhG63hXpE+mvNWe9mCOkW1tOmLUNm79CA9lfwUZfcnxK794qPFkL/nsTT7fdK2pctfYyeNZW0p8J3nrCVqj1Y1tD/T0kRVrG72DP4ilnM34ye0hW+Iid2qeAll6ZNnN3x7IlV9g+9icsGf82SPDF4LGIQetjdYBkF/tmhPkGFDCXsxsZ4/tiWLXT1e+myN65Svfdx+OxXTklo4+vH5Psnl3KV3Qx+giWHU4QhYIWmXAYAqerCTbRCzgaWfqoYmSQE69yZNAhN/iEodJcHXo13H4CCRIHCWe/I/92I+d/e2//be3XwT+i3/xL87+/b//95t8MiUd+BQbPf0dUNr5biygLC7Qh1os9eePfbJklNqvec1rzv7jf/yP23s92PeujG/6pm/anrrQpld+2VPKEd13eqd32mzLR+Nml28lnpyg5PguVjL4xaudj3KhZLc48k1WfI0zHeWK/JB3a8Xc0cEvHqAv1nyyrV6bDUTPGms+pt/iKGbIptiLH8QwwW5glz6ZYp0nRzbY1S4un97wiqlSX3Ld1ghz/GSATsSXDV49/4E9PKVc7OUe5LEY+Ku+BzZsTMYBU049G0CGbHGCPuNDeDPn1UEMxSH27KYPdMwBOxHoNyYXIsZPTl7ZK5ZiYK8x6HNMs1kfNK58iJFMtqJAr3nOpzqZ5uMSxhuubFQ3EpzksAXOIb5SMkOyqAEB3egY6BpkOvRbFHht0k2G/nx7sY9EGDsfbIFSoi0ar+RUfuzHfuz2WJ1bIDYHT3T0Yw0/UPHCe085sOe9FOovetGLtl8U2tCQTf5HfuRHtgXxyle+8uwXf/EXt37PFKMXvvCFZy996Uu3/KDgSvgnfuIntj56ro5txMbEl7Z3OvsE4N65OP16sW96jce4Gxc0L+J1pWYxudVBvkUmb+rylZ2pK8+V9WUf8I7R7D+G+vLDdnNtzrovD9nShwIdbeOjG8341zhqo+SSZWvKywUfc43WN0v6YujAzgayLuXXp7x8dXCvOuTm2pgQRwTFqsTjp3UeQTKVKxo70J9jXZGN7OQnirdXipGfNUfFlpzxu3Br7ukVV+ODdCYFdbl1jMiLOj9ssd8Yp1712d7DlJsy1e0nxte47AfmlU+5tg5u/Ud//+89+23f/u3PqNzxNm+3Ke5hOrgIWhyQbo4lQSmwJhzoFKzJSUZ79U8W4ZOJoEEXA5k50a4q3Vv1akwv/jE56SYD9MnZTN/+kKNXv/rVZx/2YR929rM/+7NnX/ZlX7ZdlRrL8573vG1D/Lqv+7otqa6qv+3bvm3bRL2Byobp595uL3znd37ndqVOl41XvepVmx8b/Q/90A+d/dRP/dT2OFtX815A5Grd5mzy3HqwEX/rt37rtgG7xeI9GO/4ju+4TbirZfb0v9/7vd/2hjNjM/5yMPPqREMGNS/G0Eas3lWNsoOmhZydcjbL6ntIN4I9G5XFb67EgFc86sacHcATY7r5qW6cSDv5PaSvRHSr145A3pyUzbl7+FMun6u+OI1Ln3Ekpy8ZUHcMiUc/JIPwI/xJ5OVr2uVLufpbKXu1xVpuI5jtyV+x9itd7FiLjskeJeOz/mRB3PyjYnOithbUI1j9RPrp82ONI3X24pNJd4J/FwX+V6f36tgbkk1+1lfcf9flL/L5IGPNvM3jHrd9Aeh+87aWfcx5/eGKSeNGY3NwCFhpwBaGeme1OXC8KNQ+FVt22F9tBm1Ehj2JALJh9UF+xuJHGV/8xV+8vZbQ1ahf0f2Df/APtv9C4kB01rU5+jjq9aAf9EEfdPZ3/+7f3a64baYO1N6NrO2gtQC9ve7jPu7jto+bdF056+fbfXCbtcf5/ubf/JtnT3va0zZ9usZg4/eDEf3eKEePPrv8kiFvnI21cbJfXpIpN9rlUxvpx1uRvWxdC4prxrGHfCdffOlO6DtmB47FeEpn2uQzyBeafdnHa1yToNw3nvJKJ/vJ4uUDzzqxAYXsJg/Fs/Y1t/HyXRwo2WQmJTNt7OEifatMttf6nh0xi8F4WrMw83QK+tlv7BP65qZ8ytaUmbKzvgcxmkdXymJmx4b8psNm7wShvb0ro537FF0EU57xBt6ZSH2e6Va78bbAruhH0zbCy1b2UUmF7KSTTckI2U4WgeTZbCWPTYl8whOesNX1gY0WxPCMZzzj7NnPfvbZB3/wB296zuCuAui5l+vKGc+VqY9hfLryMBHOvC94wQu2TZ6tPkqR0fYq0m6HfPu3f/v2QvxuO4CPdMbhKlt87HzBF3zBtjk3/sZWfsjHazygn7z+SXjTzqxHUz6Zlab8Xp9yIj6bxa5EcpMt1DjmeKbdbE+dPX+naGLlTf9zjUF95I1lIt7MW3zt5FsT9etbQWaNIz05YysbM4fxohXxi0cZTT10Csms+p00QnaSX1HsjbFPdfhTF8hEkM0oHv1yHdaYksvvarfyFN133+HkcXb5aazsNDeO/S0vNpFD72bwzYktmCsELahrRYmaNCExffyd9rUn6NlI3fbwDg33kW3SPsKg937v9942TD9Q+eRP/uTtdobbB253WDBuTbjv/Jmf+Zln7//+77/J8ev2g0XofrGPbW6B9B5lE+OHH307b+L+8l/+y9ui+47v+I7ttoqPTubMpqt0j9tVs9K/p3rqU5969gM/8APbm+TYWXMw6xYBPy3GNQdvSTCuuWaud/1cC+QL5Vsup89yPWWQ+krngY2Oj/yiiXyzly9Y5R6OODYmWHM1iXy3aOBYfo9R2OubNFG7vnxeFPfec+/ZnXdd/l6Lnn3Bsew49CCGT763vOolL36gj0Z7//PvoUSLCcG6WZ+HErViTjbbNjH3jb3is3uwEyXbgTY/bnRWdoWKZwOWTEntCzTkyhn/Wc961ra50usLNLlWusfED3lXzjZ7i8tmSdeVNh9ib4NNF4oPspsfV+T8Ivp8iFu9/NBxq+T7vu/7rr5VrzzNfF0LrlfvRkA+wLgao3jkUnksNrJTfpWr7xT4RtaB/Psewa0s9/hn3lHxmZOJdQ1OFMOMZS/WcmANiaOrSrbpnvJxMzDjDXsxk+tC5jM+4zO2CxXzBuUuqK9tNmY+qtc+hWSKY2Lma9oj50Ltu77ru7aLMp9QxdtaOw+vf+XLL/u65f7tf/15o9zVjfkwX6K4tE3cgbEG9WDBHrIQLZKuziQArXxlCU4m/fSSW3XiJR+yUWnwqA3LrYHsZ6s2kLHhuffrtoWJQm4jaNs8tR0AbiPg+5IO2HL1TJ+MUj8dZDNmg21zYDGKS5tcdpEvF9jXr66ffHH5oQw+u2Imxz4bJtvYQVk+yDk5GDe9+o7RHtiJVvk93h6RK+fVs3nKxipjPFA5eXvYszF5tZOd/daQOKcMXx2YU3/2qzsBt9YQ4DdudaU2TH7jqUw2CuYdskEuTB392Uf6EF71KKhP+cay8iexRy5feCuMqRxVhvoiyI628aqnUx01xvpW7MnOMSWzZ4df/qfs1I1WkDn0bPaMhh0XVfh3H9YWnUs67zlskP1M8GbAgt2bEHz+3TJQkoEmQMAtMohXf/aUdEvcni9tRN/GZuNyrxaSb+NOd5b0bK42yhmbNn7kS8Gv+IqvOPvSL/3S7bYDHjljVYI6opudyavOj9hQE55+vvGMO76x2Zj51Q4zX9mzSajTiU8mOcj+LJOpvS20Q1s9uWSisMdPXglihdoT5PITZat5KXeTTiGbSiCv3vgmjNUJrb50gO90QRzqc+4cgHNegMwkYIcOyubqL2QbxMUfHRSq56M5m/xj9iG9WZ/tqVsfHuKj3BzDGusp+cnnx5iVU4/f+GHVK75gXlBriL6Lx+SmLchXfvUje8i0u+JRhzVw+6MOe8nhgixZ87HZO/Tfe+BtT2VswYygbxQEKWgDnBseCGYmVL1nE+uLHAhd3elnqzp+9jpg9CEoWQhPvw3NVWb/+VpC9Nmo8oNfwkt+tIJt/pU2RFeyrmBdCRerfnXERpvyam/6qb98iK2rfL6KXV1Jjl0xgNsw3a8uvmIQky8dPctNh93GoT/7clyem5tyxX45R/TMoRMtGSCPQjHMmCY1v+rGtAKfbXL8JJ89WHN6HooRsV3sc/z5YLs4yeFF2WgsxSkn8sRGdlekUwxk3WtE5oYdfRPkg1yQK3b15IsL5ad4q/PHBkoPkp96k8RnfJANsc71gZ+vi4I8vakb4QUx5LOY9GvzHdhYqZyidJszdXztytbVOo74M4bqe7j/YOu++y4/dOFWhpLNjvet3mC9Xa76Hl0P0u3KLKeowTgptJHgIYHOe2NQ0AabHAolj3zJ0Z+/CPj0SJunJvxyDl8i+XCiAva0xUF++grZU1oMyezJsgUthkBXW7zqEbBTflxpiYUceYvegpQrlF05cKCwYSyuniG7bJI3Jz4x+MKQTLlGMz58NMfEF/jU0aKC5Ohno75sZ3/6oBNtFwkHO/LpwEofqtNtfvfiy1aYNqA44iuLSf5aR5B94wRxmYuufOtHIdt4ZOiqi8ncrLFNmpBnvLkGpy6QsTmKuWOGP3OTTsi+Up/x5oNeayyZFXioNYjKAT/5bryoGLKXjZVWFBtSTy6+GNjvQshaz2eyXXSGYs5eYKvjNwK67OtH2d0jNluv9BybtSeB998jdyr8PNvc5VPJ59V3ZdyMK2ZJEjCUIMHZVCRXECUJJdtBqS0hkH6LL8IvmQaI1yChpLNPF7HrETYT6kuHebBkt7jUocnhQznjJmNRp8uWUmwouQg6+BFb2so9kGFP7GyTK4Z8GCOesXS11HjpyHnQ18uLbMz0HciQHz7ZEpeF4mAjN3Pb2GYsZJXs6EueHfbIkuEDzHNjJw/ZbN6Cevm1frq6055xXQQz33SLWe66kBADyifExxNfm8SMo3HrB7Ynpj1x0Ad67ODB3FzxZy6CPvLkkHnKTpj+9bVp4DfXyU89YL9Y9ZUThO8YYsNYtY2NPTwbY/EBnXJCBulD+aAP2o1HXZ7NS7Zgxp2eNp18Q+O3/tgAfXT0qYs3f23yfLGn1Jev7DZv2uVGTNrZiIfCrbcebF9Z2x0HV8dy0JWjbTQup/3fqZsBweWcYwHgCb5g1SWkg1q9hClRwEPV2QK2IvL4/CmzByXZVaL7wb/+67++/foOxMkmPWX2wl6bbKRdfAj4Zrc4t7Phod5CCMlD+uw5iFrMePTYdCIw+TBjSm+lGZ8F6l3Mvk128OND8TQe7XgtMMBrPOyJpza5fGUHz4El95MfATtzk177gUylPMiBOvsIyM8Yoj3QnX62A+IwDnw6fCDQj98a1YZyhNJD5SOb7JSHZPQp0yenn238xmgNOGE0xgk6Nkdy+stf4wClNiKTHT4a15StHmafOFvDjQOBMtnJn7L6lfyK1ZwjMU2dfNEFZets8rMll/LEjr78lBP15rP+8qyePXXAr681wO/k08mWPntKsuJhfw/33384ER3c0Wk+8uv/r252Me4/dEjOjUaBCVZSBdti5FcpOFCWtNpk6KFTMDCgW7LxjEk7H3jaSjwbs43J+yq6mstWCSYvjklNCOSrsa6oP7vG0rhXm8oJbXLkkbYDkI30W9jqyZcvPi1KpYNJ3YHvHwRYxN6vYZwzPiUZ89S84XWVxQY/4ulgII+XfgdCuZZbco0FTx/SDnyVh+wlE0+dTHkAPCQ+vnw64CPblRP5EavHBp2clT3xUj/drrTYBLy9+SYfn35jDMYvp3Mc6gjiGRs5pXkrfn0T9PDKt7qy9h7Y9SSPTYR+c3FsTgJZ8be+1rkqlmyIAcWH5K0buUbaXV3yG+HzlS5/cqF0zJZHKHZ6Sm2+lWjuO8lo61t9qSvzB2yZ//Qhf5BNNsiy3fzhreCXH7Lkpgyep+Qu+WbQExl7Bh4sGijbSkEYbAHrL/H6EcSbg69/lVNni83uNZUUZbYgvqSrK737wgLxO322yLPH7+qrvnhTfvqZIKO/iVZfke3sBm06SB2xQ7ax2YwshMZr0dpcyIFxkGNDPt3CsDH7IYsv/rKLgCzdxoTU5XXmjj31/IiBfXwxZE9JT0xsaLNZ2Tggm/Hp1TeBt8ZHjz4dhFcMK+bc0rcR93P6xhPYYRetvpA4ZyxsdqDqm5sOveaGnJIu6IeZDzbIsUEv2ZBOeUJsJq++Ip3KxtM41PMfkgXxABny2lNPfVKy5FAyYrROxA6NdSL5qZsMeTTH0dw3HuWMJX4xaGc3ZD+72ua572HC7J8+yJCf874C3wZMV7/SZp0NzzXf8geveMmm6qr58U98j8uafwwgISZWgryp7ed+7ue2/5TtF3XQQp2TsaJJPIW9iQlrH3vHbE5ZdRMJrla1Ozib7ElA3q8M/bDGLwW972Pq7CHdiWQ7kMi4olzzteoe88EO6Ke76s38z7692FZMn7Oez2NYY+WrfDuYJ5ItHl/EeZHUR3zER2wnv+vFGsMe9nKw6q3xwbHcTd09vWNYZeeGOUFu+gBy5N1S9AKvZz7zmdsz+3PeJ1a7+WJ3XctTdo0xrPFok1nlJvQ5lvw4a/5ILV3lanfi9b/7Mo62PffRh5OT/5K9XWUfNnRajunDVfPlNxqdt1jfWmH8fhr9vu/7vturNW3STfbDOSfiRjZXZ+h1IRS/0kS7Un7uc5+7XaU85SlP2fT0XS+mP/7F0oJEFmq0xjZxEZmHA4rzFMrnRWTfmtH8txaiY9DXer5WlOv8mYPoZmGO53p8GacnMny3Z+/Nlr+O2e1q20fhPpLdTMyEXZQeLPZsogltk+rqxs+SvRPZmdt9ylVvUtjrWyns8ZrkdaJXWtEVHL15EIT03Nv13mg/E3ZP3cuWuuqjB9MPigfH7EJ9fWQ8ZS/ZU0R2jzfthFVujyamnT3ZaA/45XjFGtuUvV6CGe+kiWO652FPD02svk5hjXHP9rXQam/SnvyxudlDOuchuWOUjJhgxlj7GHyRK2abs43YsWz/9end8eoT6PaifAfVQ311KHABuZrrRrzA5uBuJkqwsTsxuZL8yI/8yO23+t6d7IVESj/Q6MqzJCL12Rb7jH+OI91Ie9pAq93s1aecNsVev7pSHpORVx8PvcvZl5teLepl/+49toFmg326TtLsrMhmvifK4ykUP+zZSX+W1Y/5DfWfkgmrbD5m3vfsFE/yE9Pm1F1lV7lpc9LEqZzdCOz5nHiwfvfGtdqrH9+xmKyxtzYvEkN62TqmW1t5zG4xHaMJNvD4Q/FOwTGYHZ9cjVWsNmdXy9sn0P/vHz7r2Y+6/fCx9v4Hzu543OV/TPpQQPBtBrUF1+TsJeE8rAmpvdqpPf0g8r4Iep/3eZ+t7cr5Z37mZ7ZkuSoUX89BAvkOaJPSCcbGp6/+FkhtcuTrQ+pQe/KTq77ylDZiNp1InFC8TN+VsrfZeVez55WNQWzpGCM9oItncbRxQzEry1Oorg9mXzzl1F3tJLeH2ZfO1C2uSlBWT27FtAvandTm5gCrvUmgT97kT97k03+mkXfvyZ7IjnL6gNlWNya28qU9seqvyNf1Iv387vlLpr5iDXvjhD2eL+C9cdGbHG1MHUvZmBcTE3Oc1ZVdZMz9pL7qk38tYMNx5pFTb5n0lEtrkL8Vq483/sFrthcVdTw65owX7jvY8VTGLX/w8pc9sD2ecRB4zDv+ia3zZqCkBQNpMyhBZExK7XVA54H+6gdWO3t2xSGmDgb58JHD0xo2OL8SbHO2eSOT0EEJfFcPjaNFZhKUbDlb+rLIN75s4TfB5LON8MRUbOTJNrHaXpxP1tW/14h63agnDYA/IEeGbrnWzm4y/EExQf6PYfbNcQBdNMcB+TkP5Kf94lJmo/hhlYfk0jNOMuWZfrxQ/PjTPhQDXXJy7GOoT1s+fXnVayhOckpzNrHaZtPm0rxVR+Jb41zBx/Vi6qrzc8rXsb5jMazy5PyDB/96zZd/nhaK31pJZ083qEfNR7rp4beez8vhKXi73POf//zt1qD3tLMr1o7v6Xf18bpXvnTbfP3IxFNxvgTcZA7k9gYbt9z56t974J7DInjgEOzbPuGJV1RvDEpS9TDrBmNQgL8mq4FNW1C7BT0Tnr62egfVtNGEa5MrsR1kPXdrk7NZu1K2iTpTOrvpo0tWyZY6/RmHevaVFgv5DrKf/Mmf3P4jiat0/cVXyVcnCxMmRoRHxuaK+pGBb7T7OESOPj2+GiNbgQ1+46PGhpJV76w+54huemyE7Eb8g/xsC++K/rQD+iFb2Z4UP5184c0Ykk0OyJaHqDkM6SWrLf74sz+Z6jZm/1bMEz6+UAby+sRhfOrloNjkNOCzSTZd892awZvjBLxZ5m/F1EsG8a/Ub5714fGHrx01l8VGJ78TUydM2eLT78tpG/Onfdqnbe+ZSW/GO9dd/VGo3/FLt+OAjD45NUfa5oDN7KYL2dWnLE9soflUhk9GzRV/5NSTnXbBUxkdl8W1rcmDrwPjcjy//zsvfYBRyX67d7mx72PmlEOBKgWiLij+BJ0cEgeZBjMpGQTZkQj9vqzTtpHytQ30YIc8mZLARzwlOYte6cpVaVLZTG/6Ezc+0C82ekpJra8FrB41HqDjP5t4RM/ja+IQAz2y+oFvMfFbbvQ1/uTyZ4zk+jgnJ4EMPf1iJaNtU2+s+qAYtMm02PlXIjLx2I6nzXf5bu4dFGImWx5AHzj5Qffeuo0E5NmqLrbG7sRJrh9OgFiAneTzoz3HIE7QJiM3xZ5c/pNRQmvPyVHdxvzRH/3R25etkB7/rS35EC8fbM01lW9Eh5ySXmsgWYSPoBKfXWVtfWxNvrhRsbDv4kMM1k3HDR0E7OAV8/Q/QQaJHbE1jw/2+ARXoC5SXIF6plxfY0/GmmjsxWL94iE2i2X7Au3AowPk+cY3XnXHmzFYY9qNK+hvHdIRD3kx+XTq/3HamF0xk6HPp3jZQ8U78YZXvXx7AgPKOfvq7Mj79uVfB83NQJNTcqvzJ+gSudIx0DeI4o4ngb0jWeKQARo0WUklV8JAyQZdcuKJ1wP6fMUno2QHsdvTG2TmeEA/qp/u7AvyUU6Sh2S11dmoneyEfjG3GOl0cE15pXwAeeMql/j1Be1iLA51Zfm1iBuD+NTLeUSenzku8l3BgH42zSOCYppxqHeQsWtDTt7GIp7Gmz88B7J5gGyyQUYuQJ1u+aRn47epOnFo6yODxMw3Ht3Gu4Isfv7zUXzaYhFTaD3TM+49u6GxoOYi2/qKC9UWeyfuxh3EZszZ0m7+To0zzP7imKgfZW/6h3w178kog7E0H2RAzsQK5muuBzltvThW6LhVmX35m37yxWZrJH/NVfKg7xQ8t3zrITa67Sd02BbTdgHkHgdmi+VmQGI5Lcl8FXy8SedBkjuYSh6byGD5anMqsdN+yWhx4omnPhOqnW1lSScTj74kThvJgImetqMw6y2iieSzH9XHrniNd8YM8fTXLo45HijuxlTcQf/MqT6bp7japLIP+DBjZLtNBx81rmShgwPi0UlvwiIWBz4/6SmjCfHbhKavxjxPDtpi1YdHjy/57BMNGf2RPBzzG+orT9D8seGkkW5tZbyptwfjikJ1dmDGpo/N7IoDGSMeHYQH07b+xnMM5ZEOG+mGfEdQnPmK2EKQz/rkEG/aKa/6ixPhJ98xo5xPSjReffkQV/X62LCGIPv60zsG/u48nOiTYdvYin3z9ZqX/vYDFoAF/g7v9qSt40ahYINA5gDqUzaJkiZw/ZH+Ppqou3rpoNTGb9KSaZDrwtCHIBm6ksFv/Yh8MrUj8g5GsfgiUL9JEv/0wyZeaBKqf/3Xf/12IPg3RH0sa+Fkh5wy24gcMi4lXthrIzaAvXQhe0E7ny0YsQFeG2zx6NdWL15gX11ekulElt1yQxe10Ztbfeoz3vzod2/epqlPfPrwzQn+zD2fk+IBvWIMjasYyIqjOOMB/eKyTr/lW75lezTRrQw8ICtvxt86s4bZKUf6xY9Xm2x5zC9os1FbvbY+uvQQvvj0GY96sulvV2mHOv/0Gw+5bDQWY9Tfo5f49eEHdbboF3tyoXG4Z+t/VX7iJ37i9ku61htddqyLjvnAljwVW7a1QZt9Mur8l2N5IIf24sKnq0/Jf3MBXpnrtwGf9EmfdPakJ13eN4tBvIgsnRXbl38Hu+4pe+1n/umoK2954++98oH777+cwLd9wkP3P/9KHpQEAcEcjID1e5ymSSFnkupr8qZNA4QOuNpkkmty0mWn/ngdmKjEQxOOxKtfnY18QfKrXnX/xNX9tSZcn0Wgb+ZBLDDjUC++wE4H9/QZjGu2Z52P2uTEkrwDJb8Wt77sl7OA78oUlWNjwTe2Duw1fv3aoETJ0XcCI+NpGR89P//zP3/bnMHGos+G3IaWfXwwjjneoN94slH+EHk8doyjuatfnxj1KeXJ9wY2Zj9YIlN+9PPRXM81nI36Zqzpk532kLjIqSuLSZxyUNz6ysXeGLrwMXYxikcsKDlgp9t3bh3SjSBfykn62RLDRLKOge///u/fNjr3bM0h0Cs3xtMeEMo5ueIsVjrGqsSrbY2Ihe/0ih/IrdSGnqx/0ux//onXiYQMlO+Zv2kbXvOy3zq79bbDFf1B9l5yV3LSmOGWN7zq5Q94bIPy277zu11h33w0kAmJgjkQ9QYa8FqQAW9tr8hWvpusaPbXJoNCdvXPkkwTvQIvPpnGQqeDgJ0OnBV4M6bAFhv0mlTtNiXYs5et7E2ZfMVTZ1s7X40hG8UxdWafMt36w9RZ63SyMWFj/t7v/d6zpz/96dvVyswfHUSHjUh/tGKVCaseagz6AG/mYm7M/rUYXvZRcU1bE9kN2Q2zP9vHkJ7NSIxt1MUASqQf6g9szLnVZ82CE8varySTjeYQ9GlPkNPvvwn90A/90PbPTZ1s8aJAd/oC/TNeqD/dKQ97/atMviMXFPOE7W2ELqr8cMs/3diLS3vlw6t++zcvz/0th7gPfV71GTzH7Am5S36rbcLenGjwJah2BA0yJI+n3gSjklF/tLZhbUP2JmUbhZWnTPYYimHGZ8L7MgK50nRWnxQ/mQ4yZ2T15NTZnbEV14xtxlE7vTleB6xbAzbnqc/3trgO8GWbPuPgHxWXcTW2+sgVr3pjUu8qI/vV6QH/YhGX+B0w4mssxa2N0mm8e1QOoDzE42deYYb8ROTkgJ54yeL16QBBfcYF5OmHdY6KA696WNuhmIpXvfggPf3JTD9Qe8/HjH9FcTbO2upK7T2CKVedn9ZTfRPafE0iFyUD+YHsTzkoHv2TZt+cI3U07SiLYw90bztcMYOxXb2qP+hscyQ2B4SPJi2chwNKxFzQBonfgGfCmhCTh+qrf7YnQYndEnIAO5IkWXjJNhHK6vhiaQKKI16Ur4BHDr/NaU8PutrpwOo2B5ApVptVselvstOHaWfaTT8dFP8Vr3jF2Td+4zee/cqv/MrVvtnv3uC/+lf/ansBVDbYR8aXv5lDaIwzh+UvIl/u2PGCKe8yaWOO582A/AL5dPZwrK841n4+nHiUkH1UDHz7IZJfidqIi71HwLpNEKYNyC9aYygHU3+ivmi2g/yLszUyZYO2uKe+9ioHnUBh7QO8aE8/zPUA4oxXDAiydxEki+aY5ngmhXzP9Vv/lG9OUDHioRnvMcjfffddHis/3iqn7n6zGA+Ns0sunW3OG+PNhAYZxSuRta+XVuzxggQ5i3WFN/2XfBTvGB3DKjPbK7+F6qOj5yZ/8zd/czuJIhvmq1/96quLyOag7WetPurTcR+MnE3DR2x66jYMbVeaPkKyTccGpD0fHXK1q/TRjTz76ngOTj9o8Y9tu+/Lh7rvBJRiQHScVOihxrg3v6F6V0zK3/qt39p4+ozbeDzCxmb62a88heIpj9MOchD5JZpy7eugF5fSyUuOwLjk2f+UhKmH9ngrJQPFCavMxB7fyd8XddZ0+Z6Y9vb0J/Zk0R7O659IZh3ntSDdOZcw44imXLJTftblzPwrazfnMHOandXmhLWMz8btB3Irgy0+1L117tYv/cf/77MdxIRvf5uH7l0Zp2BQzu4tfKgMa/vBogROu+ol3RUHGbxJYdYfDLKjtDkqbWo/+IM/uG2yeH6+ahPwTgabBrIR/s//+T+3b7b7heJznvOc7RdV7t3JpU3ih3/4h7d3gPhRC/l0bNT0vGPDlZ9Xobp1Aj/7sz+7PfRPX5+XIrmvZtOWH/9t2/9QpOvbarY8fG8z8P5nP2kXK5/b4jvE0kl3zZscdxUakcW3sXs/gfdQOEH40uXFL37x9iUb/2whsmxbR2wp2bgoZkzZZAPmQQgdgOwbo/ujciA28+RXYcatP1vT/kXQ8dC4Vv1T9oq7fE9caxxQ/JNW7PHOg5O4ufTuifm0x4PFsRj3IL/WGzRfoGw9kdEm55001qJj45SflX/n6y7/iArbmm6T3+jKuLcfmDiT3mwYEF/IwRLFQ8koq6dLtlJSklvtJJd+lGz1SlDvivJqgiRnLOR065uYvkC5xqRMbvbhzXhm2WKwaG2gPhLbPH17beG4jeBqN1knVxuUt8rZAF0pfdZnfdbZ0572tO2/luB5SYyrTleaNlgHgqtePwm3QFz9utLjU5zQpwffwj/xiU/cNhx+G4e8gccGxWih4rH71Kc+ddtUPA7oBCLG8tfYEVtIHdSb50p2jal7yuXJ/y60wIuX/eziI3L5gPqhPmXt+pNRth6mXnHIjZ8SO0EaoxjVHbjpAZ1J14Lz5KfdYmy9ak+C6uSNP365qD8+qGdzhb4ZQzZX++eBXHrH6rM9+yemHEz5ePq7NeYC1Zxp1zflsxe1LunClIXyGMVn/9GPufydiuPKWnnTwbdj502HundnXNLgIKWbDX4KVOCT8JKx8SD1SVNWiZe9VRZNeeOUlPykl0yJhhZfCzDZ7OIrV/6sR+nzXZuv8o4ay4Q2Pza4z/zMz9xknKXZMale+OJZWXlyteFKuKtY/cCHjcKG+qM/+qObPT8dtomya5P277VcHbtP3CZcXJETl/ulNkZkPOyKibxS2+J2SwXx7X0CNntX2K7igT36+umpB33ib/7Fo4wnblfu2k5SnTDI8R/YZld/49FuPPqRemhOUfNRfzEWb206/IrNiccYzYHjyglBHehBNrOLn83JD9p8TFqxpwerbsCf/qLiIFt79gf1Y/Hu+Vp5dLMN2ZntQHaivmLcGwfMkswqF7KjtE7MV+sFpmzrEC+beNmYsur4aMXGO4i2BsEtDfaydelRt/nllP8z9UcTcKMxgzQpNpc2KoMTlDY4uBFsQR6Sod29RPI2iq6SlAZIX3078xyITbpAlw4eFAt7CEp67eqT9viTx76yBIup5EPy5JwpXZkq50IN2fPR+Jd+6Ze2j3j+ZZE3l/nCyy2EcmBjUrqS5ZPNX/7lX94e6WHHYz02ZBtxHxXJuzXgLVnsueJzte1q15WDfhusWymIji/b+JTPcl3b1SH7L3rRi7bNyi2Q7l+Lwz1o88guoqedDbzmTP605U7bnDsh+LdYTkJ0fu3Xfm27inYgAVvltJyzx/YkduWk/CIoptaJPNho1fNRjBEbrW0nH3NFRmmjlnNtsTVW9ulp8zft7YGs8RRzNPUQHqg3xo6L+osDX67UG9O0mZz48h2yj68+kb7+me/4yeCLK7vKSXT4l6vpR1n8HcPqxZheMnj51sdexyReusg6s27nmNOnm23rIr5SHNnIZscHnRV3333X4Qr5cJV8WAvWVWvLcemX2OK75Xd/88UPWPSPOTAf/fh33AQmON5DSTkP6StRSQFXdezglwgHn00BXNEZKJkWcwepQUEbEj4ivw3soKMvvzYYA8cjhxdKKB0x6Wt8Sn2SXL92sSSXn+wgbbbFS1ZcJl68yTXZztRig3TJJyt+cu5ZsmWTkytjKh79oG4j/YZv+IazL/iCL9g+6ouBvfrdr3bv+WM+5mO2WxM2oE//9E/f4uXTJp28PrG1aNlCfGsXCxkHu4UmluajfNik8CK+qutXio0fvtlgl6/mXx78iyyy+j/+4z/+6q8m9fMtJjbU+UBiNS5oDoEdMSvxkLqxkGeTf3V62RAvkAVt973dW+dbPO59e8uceOjilxefUGbesqFPmX3++aRHH80+pK2M1zj4lEd1uSCnzQaYVzL5VM8fHeOWu/oaKxl8JZnsaSOgzw5deuSTVe/47ROeL51f8IIX/JG3tcmhT0OtQ7lSx289Fiv5xgzVlSAOEN/MMX02xYavToav5CfEzRfdb/mWb9nWn1fsmmOy8synPcx6FwPb+dtsvPoVZ97o6Z+uQjHD3WI5jOtSE5bQjYZgDd5gSrCECgbfQaGvZBmUesHGl6gONDINln1JKTH5K8Elo18p0bcgO5BRtoA/9lH9IX/s86dMT4nY4qOFB1OGXWgxGJex5guRYR/0WYR+DeX+sbpNpjb9bLh6tBiMtYOOPZuAnNtsI7r8u8/sCsDb7cjRZ5+8g4YNJcIjE9kszAl/vZ+aPlknVbcwHGRK/tiSG3Nu/MZIR85DeSyXSN188ccOfz3x0DjEJjdyIX75b56yBeyIQV7yU86Nia448Y0N6XcFJGZ2xcFOawDoy6s5KLb5Tzrzz546eX35hurKCfpQX2tXu+NBXOKbY5p+W6sdR+pypk1Gmx0EcgCzL5tI7I0Nf5L8iIt97eJsvGwWB4hNn3zmP1728aevcgj8NE/Fpq/+9NjMTlBPJz2xgbpc14f4tb6VUCzG13puTtTzPeHXfghf3PQ2nUP7jsMaNJ5L2wubD8w/DPXGooEjgSKOZ92ALSoEc7FMCuQ7CMlVx5eQNhMDR/j68cl3cEyb6uRKolJelGyikGz61We7hDug6erLb2MG9vGU+c6Okhyi05dnFpjN1KJRF2c5BXUvyf9bf+tvbb8+47eP92ySs1l+3ud93vaTUlcpvgSUH7rFlF86yMYlr+w1RmiDkmOUPiKTHJir5sEmyI55dzDT40c5fZc/bfry4H53G2Gx0hOHMhuVc+x42s0r4h/UO3FANourA9UY1Nsk2TV2m/FP//RPbzb6dDPHr43IFzf7bUraUFxsK8mAONTFD42XDzFnQ64gX/TUlYBnPuPXh+aY65uIF598xD/kRynW4kRBDNrirj/Qa/4nn8/GBrO/PqV8mBt51S4HYdbLszg6oYP2lMtOce3ZY4c9/snSmXJw6dB+7GEdkyHPnjo5X/zxf8mVskVWQm8GBIegwA16HhwltwMo+WOQcDboZb+EADslBjUxJaK6Mn8I6ptxqU9ZfpJvDOJps+SPjI0ExOvgT3baI9+CArxjk2pcNmXy5o1PH+9tBGziIwedK0ubBR3jyCZ/+Wyj1Kbf2PSBuF19lw/js8kjMmzyUV6iFY2VHTHzB8pyDMkory7WK7nSpuuLTLl0C0PsxaZEYsQXG2S/uPo0I352gW167E/QlW+6fMglOXU55gePHln3mT0t48Qn//j6ga+IrLGXi+rsTpAjz494tSNzIxaxkSmOfJIBeWg+gz4y/FZG2We32PMRtOMlj+gnp03f+mntBeNE+QR62cMzPjKtx8ZVXPqBjDk1T+mQsS75tVboFo86uYg8Ob7LExk25B3ITJrQdpHhU2MxdUxEE2wjvvLvCtp/L7nt4POew5ze+qX/+B89WwACe9Rj3+aK6vlYnUGTU/CSIMHqfNBRThLcpAaiT0wTbIM+k6WsTRapk4unLFZ88SQ7fcGUDfHoim/K1jcJj+1kTFD19MmJI96MByr1o8bdotQm3+Rr22BnTpLRbxHoX2Ox6LLR4gd6ZIrDVTI5PNRm3nimL8ArFrw5/xZifcYD7MzYA3m26QOf6mR98en+uI2weOXURtXYlMaun44SHxVvseG1NuoPdI25ccoHHfXk2DIeMr709B6P3i6XbONRImjsSkS2vqBNv75k2SpvqDqZYq2tDNrGXa70rbKVckJmjvMU0kse6LfOAv/a+sTtwsKXue7LO6Hhm4cZg3ql8SHtkC1rwycqz/D7UZaLCLeXukXHL112ULpizqf45jrBK34868ojqO4vu52WTaSebnr1w/13Xb4wsF6yqRQDv1tuXveK3znIH65iDkLv+CBf+8kOoxIpcBPPuQBNjGAlLtkCfrhBbGjFGute7Kd08eUHOmM28cd08jH792QfDPZ8hNm3xtCiPoZ0rYE2va62y0Mg29qBfGUD+MO3rrzZyysi3dawpugh/fzgTV1rTxvpIwPJV8Ynx952kBzqfEKbL8p+vsmYV0+5fPAHf/D2giVyoKSLxKJ05e+qG+Zx8WBQDpWdTGHaVS+euXE0nj3s9Z0XK/vl75QPMfjiVN4+9VM/dfv+JCQ/fe3Z0SbD39d+7dduz/07ccurNeKWovVSvh17zcXM0bQbfw8+Bfhy3UuX3AYMxZCdPRt/8IqXbKXYyJuv2w5xHBQvX7hYq/f8wWsfeP3BiQeeH/0OD+6fseYkqOOBYCVjLsC9BD8cILbinlhj3Yv9lK4c6JMXVwjy4Syu75hOPmb/nuyDwZ6PsPadkl2RbBuFRffN3/zNZ//hP/yHq98BQAtZaX0o5zoip9+m6WDyBaPbBe7n2gj1+RirThal78CIpy7nc12GfLJFhmxtB696G3iUXG0g46Nzm2J96tlUsvnP//k/P/uAD/iAzQ4/6MEif0gsfMUP6vJoPopL3k/53+ubNvdQf+Uc4xqPK9rv/u7v3p4MsjEni/b8ZCckZx6/7uu+brv6/pRP+ZSrJ0HP+PtVpn/7pbT+vuRLvmT7jsL4Z4yh3O3h1MY8ba1xgn8tta2RQ2zy7jYMX2LvRHHpnnvuPHvMY+84TNLlLz8eLBgtSUidc3RqoBdFdhv8bK90rZh6JXUmdrVbexJM3dWG5MuDheHjMdA7pbNiT/bBUDjVF84bJ1ox5V1Varty2SObFLKpIAvVJofwnchswA4um5x1Rc79Pfd18X209MWbuoPclalHBpXxJ+F5BtsXpX4+bcN3i4SOko2eLCEb+fKxJ1JclSF18uKcZK4jMfvUIP5yc15Or4WsLzlRPwb94ijfq42V9rAnN2nbYAatPG3jbuzrCXnaOo+Cuk3P7SSvhvUKAjbZNteePvo7f+fvbGvNO1zEkd5KMOMLk7fXv9pYcTjd+9dRV33TF+P236QO8+Ki7dJdh7Om3d/k3ChwyJ6DyuQLsIm4UTAYyS4xLfLoekGX3dV2beX1Qg7aSFATMzEntXwdG8+UWXGq7zyke8xvSG7Sng6eq5audm12NjX1Nitr5erVwpX1U2ljswG2EdogXSE7udkMezrDI3ra+pHNNL5y1ttkbaI2ZZsxcvvB5jw35vja6m3w+tq4tdlk37jEJG4x2gScWKwjOTIGJwGb+N5xt+Z00h5mX3W5OyYP+tqYV5w37yvyuRKwFZ2C42rqHatD7cmD2nL92Z/92Wf/5J/8k20TNi/WnhO6ubdGHH9imnZae7U75vcw94Epkz12jmHbGw8xgk8t1n3xgPr2onyPaAj88U98j63j4YyCt8jbjA1U0pUlpQRdFHsTgMdHV3l9/C7p12I/2fys/vbiXWUfjL/rgbFDsV3E/964LGLrS717zOaKbAek+iTgX66TjW9TdjXkHqJNdfaxlT1lsNjDlJ1ziZLLZjbEIta5ziC5ZJWBPFpl+GDHiaNbHtC6XTF50/4KvoD8np1wzEY6xVkdjrUfDNiK3GP2832vGXDym7nI5/S951+/HHh5lw3Pj6ucfPwC1g9/PvADP3D7IYtHRL3K9tM+7dPOnvzkJ1/dFKdNdly56nPhMPvI+nGQ23L+q7dbGcdigpX/qpe/ZOMdVvW2rpy4rWkbNP52rLz+d1/2gIod/DHvcPnf9LwlQMwGJUkmUdsBo96kHkvUHthB1dPlw8asdAWUv2u1n+z0MbFnj0wHt765aexh6q/+9nCqD67lQM9WuYkXny19lWgPyYf8lgPz4KBwr9DPzL2UKbtQrOTyoa/cwZQFPqsDveKYJT0Ha1f4K4oxW8qpz268qPbUWzFzRTbMOjQuyNa0ecz+io6rQG/mUp/2zBOo16YTwZSbSMeGOTfmqctnfiHfK7Ll5/BKV8rg+PVIqQsrJ0SfaPwytk9tbcww4/WFIT+O++lPLO4y2Nx9oejTz4x3xRrra3/3d7wq4+y2By5/78Ye3S5e0CWB+hbQfzK5GShZk0o0sgiU+OqCW+UjcuJtABJqYNCAVkzdaSseny1EbbadbfnRbhGUQHIT0955RD8b+a29yk2Z4kseqYt11T8VU7pTJ1vxQck2GPu0gfSh9NeyOqizn52QXLIRbAvzSt4BP/3iUidH33zxAUrtCXLTtnqUfygeMsWghNrFBGT5y1ayE9MW7MlXxmc3xItWXjGrZ0eO5CB+cnwnjyamTPEq9/S00wnHfET69SH1KF2+Vh5Kd/Irp+0p45OIW0v2B+RE6paTWxj6tN2WcqWajWKrzpZPM8r2gtXXpHTVp+wejLUTOz0/wfarP7xsXfLHJLrkv1ko+ILmE1lAbtTzr8/VCOrAJyspXbG63HfDvp+fkskmMmA0kd+9hUq/j9bTT1dX6mSdOcUJLaBiK86gzlexqTexxlZb3Xhq85UumvmpLk5tuurZm/7n+JSQXbpznNrsiIMteSWrD0+djJ8XlyN9rha8C0BJT2xK/cVfHPkC/WTnBhcPyJOdcfOvX51s8SFt84HHf/76AUnrQb85xC8+PJQv0IbsI7JyYbxKPiHZ7JCNV5yAH/hqjMUGZIubD2PGq38P+ZSb8lO82vzgVWZfP/tk59jV9cljfey0RowpW6E6vljpRXhKNvkmK4fmAV870qbfOJTZmO3yUWxiYj87+NCG3DpT17euc3H59MUWO9YzXvECv/zg5av4xZOcPnYaN4K9OSTzxje8/uzSYUNWZ9//XaXvC0C8S3bp7jE/1BC0pCkFMykYuNiaGGc7J5EO7BKjvZeEUyDf5LFTslGTpdS/flGSvFin37WdfcCv37i7p2TS+ckeKOmRy6+6OPTh+YjFRrqgbOFkC/jQbpEi42NHTvHneDpRi8GXVa4uGouPhMgin2OlI55siUs/yu70X8z1p9N4jMPBsi3cAy8b6uxka/rpYIV00hd7Y1QHdXb4yj6ZDkR9xiXXcqAf6BcDzLEkg5e/6pCMdge9eXCFxt6MbQ/pT4LGaT6zBfrn3KjnA/ihC9t+cIirHLNjrlujxafdOqMbgX58JV+IrH764tHHb3Olr7GQjcgg8o0T4jUWVGzZSb66frkxj/JtrE46HRtk8LMnpo4PpTGJSR7UgRywXaxkxcWe9gp9t99+x9n9Bzvb88tDj51tHCVLkDcSBbmH+gyqRGgbbAM2qDm5SnFaKA1AzOolXQnZj8Iev0Us2ZLODwKLRgwWphiADB5f5PIZildcUNlY0uMzucaEb0xIfcYO5YZeOSGDP8elnSx/aMq7YjDvHQzQQQDpkKcnvvqgeVDiy1NXttrZmgebNnt0JvIPZIobiqE6e6662IjvoHKCMI/Z0icG8kDeHLZeQvHwm011mHEA22RaK2wnS2/qFkfjUba+QP+UbU2xYRxIPf4e9IsH5c/YOo7xyCiRvtZA/CAWOWzzbbMkw/6Ejcz6Kf5Arw0Olfv86JM7J3n+y4tf53kmnT6Qd4/Yq12LRR7oZBvhoerZgykXyoHxNBflpCtoELe2figueuyVk8aVn9YVPTrT94p77rrz7PaD/KVbbj27+867DkZuObvj9kefPXAI4fWve8Mh2MNalCxOCuBmokG0AGbwEiOW9aqkgeo3eDKQLZCouYBK8vTDZraU8ZpQCzrfZPh2MPNJPt02Ie0++hQLYm8dXxNJR38+K/VXR43fIsHXxreIKukUVwfatBFqGwdSN1b6xkeXPchW0DZWY6ZbXyV/oK+YAB/hkUX8Go+8hMZZWX6002MjHd+ue9m//LYx+jbf6yIdTEC+edSvZLeNQqkdyDQO/sgbhzEp9dennv02QJgxAz1tSI9MtmYfmrkjIz5jLq4V9CexMUs2Zj+C7CqLJRhT41rjFBvbcqJfvEo8svrjaYu79a+O+GQPT0mXng3YS5/I4JPzU2f/Oo3MHBObqHhCPpLpuAnFwbaSfv0eWXRSwvOpCDoZGC85NvGKY41r8vhuTziGew+27nqT/w15uGDa3ofv4QWxPXD2mEcfPpl6zpkRQXB8s2AAULDaBmHQkcHjmdyZeBNuM46XbvW1rQS+msj8NjEzDvY7MNJVmhREVknGJiXx+cVTyp08KvkrDuX01aJWj0BciE4xQH7x2Ebiz3Z5S1+/ks9pq37y9ByAxiuv7IM2f2wYIxvuybknqMxvpD9d7Tb55hHN8dJnV386aJ1XMSghH9rqDhxXU2Kkh2ezbkPJNlv6oDGzC/S6IiXvoJSb8pgev3ToFltgM4LySyb5iD8lsB1B/MrpA8jl4xjo0kt31mcfO/I/10F+wfhXvna5aV704bVO1CG7xouad2Og1yeB7CN8P/ro6Qc6jjFzjB+yFUH6K18MqBxXgrjoIONpLdD1ScwY1K2loG6sckCvOSGXrXxnXwlkp/9w+VPD4Wr5YJetPm3aQ7J3qQC7Er2ZaACSkV8lkvwG1GTPwRfwMZrQlhBJRdr5Uu7Zmn6i+ugp2bIByZW2cag3hkmrHWVjnPwmGk3oI4/I2Hy6p6wP+BEDHnvrGANetpKZcvlqo2aPXWPthxL5VCJ6+sjQIQ9i1cd+ctkv1hZr/cWRDN36xYRHxjfteD6pkLcx+GLSfzWhk43GVl7oyx+/+Plj2+NS5KLiJrPGp5197UgbX/+kKZP9aQvU6SprI3L5OoU9f9mewGdPDMUa1Jt7cuaU3F4c+M0jKhdk0sNrzooLT336tebNqU3JCZINmxO+pybo0ytn6sWujopRiZ+ONrTW0sWP+NFvfVtLQEZbaQw2UaU2ynZjQbNdXvDyvYLfS5cuH/v2OvaLz2a9xdeZoMBuJgTeBtQZtjboB/FAg50DPzbYieRaGE0AO3MSJ7TxJ+EhSaMn4ZJXDKuNoB/NMVY/5Se7kI14/DceSAdlpzizucpF025oYQRy2p14VuRDCcanTkcM7DdmdbLsJJ//4oFsaqeD2AObqwPZM6gWs/udfPTc6/Svzl+2tPHLEYhtRbGwB/QQFE99xZhMfJh8VEzJzFLfbEerzfOQr3QaCxSDMXelW27QjIEsaOMjeSumePlLNhnQH/i04dh0+Z55dyvBryWdYOl7SsLc/v/bu7OQ2+4yz+NvcoylcSqqpKqsBrtpHFEUB5xnRcUZZ70QBC/0oototBybDoggoheCoFeK4nDhLCooDogz4gCOfaElRivGKi2H0nRF4+n9WSffk6cX633Pe855k45WfvDwn57p//yH9V9rr723+nTiR9mffsy8FP/0Q90Waa8fNl+pkys7tQdtzasI8GS/8mzP1hr+CZsddn1/xFgsslf21WO5cylhdDpydaBOCFo2CyLn1dURlD8HpeXXUJ8+aXamjYNkI3z5l0x1dE0bKJ2TN13xVo6Sp3OittqlE9rD1AXTF6gtvmiNWTd5pg/renlp+RmvSZM/+ZmfmBtKIOvCaBO2yJ1qLHQXDouYjEktnTqzMQnwTX8sDoeULeg71A8gU5ynnklrbLWvy7BuPwrMmBanNdZ+TNSG9Hf2eZbjDdV3qAG2ET/MF+8Wd7H1GMPXpl2E0y/Ozb/GorbDEqx9ltLHL2Rjbkwhvmwni+oD6AdUXx5twe8um8Moft8l8cpc5WWmUSwoR4kcW1MdLI13XY4mtuoPqtsPWzJb2OLZkrWoO4HM9v0oyOu3yWlirAd/PwpbbadLE/lvPmz1Z0J5+ntY3ycBG9lD8rN98lsgFrFvcTl5WcS+3WVzZn/LB/on0S9ly+1z7zfjJZ/N0tOhg7Dmy498mu2norOBeWatt8HBlo2DKGzVb+XFlb35uCQeZY8tfD/BqdmYuvhaE/HMsYX1WIbqZmwnH9oC3S4c+GzO7Ezetb41pl+HwRU7fR774CcpBjZlesTIRWl5xnzF8Z3hEzLX4RAQwMigiiGak/10MPUdBpN/0plgLS81YWxcR4VpI5pgz+Rfn1i35DzKwGsR+xqvHxCKl558x4Na1GvEZ4PvFpaOP2cUw2JSObo6kO5srm2Luzsedz9OzdBnCdcU2LIZWr99GGx+HBZ4zV10GLnzdnuFeYffJm3+FRdfMFk+BLz8ij8s30D547lXbyA4vCaDMhfRQTRlUHLS8vFMxD9lKwuM24lZP9u39EG6ZjsfnLx6B3ItO/NB3bRXHsG6LaRLuqZ1feV0TT3rya+M16RBM65TPsoG2g+zvTzZdFc/9aItOeTDOqeN/kS2jVobncaT79qMhbz2xrqxaTHO30soHunLly2a7fIRzHxY103ZwyD55LZk44lvlmf9bGvMq5vp5N2qj2b7hPK6DqqvTfx9Xfrzn//8Mk7KUy+amLLl4y8fxbcFfY+cmJ1WbYp8ULdlN5SXmlPmmflWffZB3aTzrre7wzvnxEHOSZltP/fpGbNN2iFv+TNWH6LsJBYl1yQ4WQd0TkDkZ335iTqIIPlk1tAGtUcGQSCmbPbSHWZZnq+TwBUP4k3XmtTH08SAqXfyhuSieNZQt9aBgK2pY1JtJlnPv6pLnzxI07+2M6m2GeNI+8TcHCH5qUu7xxnf/e53T35I1N1KJzFwe6geyPG/eTB1yc8TXO14s4tqmzyInjWpnzxrCnjz4VS0H2ZbfYi0TZ+2eGdd/CEeSL728tXPOrErfrN+8iO6xd7Y+S2LSy+99OR41h6SgelT+fxqDa5tJbuumzZszMpOzR6peLySXqk5lB5IttSaCerQ5A/08NOG3LP03+0OEjZp38K2Lx37xxc+/6KEb3ijmy7pNYUZnAJgkOQ7ybZoCjgoG3gBxIPoMaDaENQv7YKxhXggPW0QUw+atpD29J64yl31rxeAVz5ZbWHqLo0v3bWVrz3Uvo5NuvlWHOXZn7zkq8s/+WylJ8y6bCvnc2WgS33U7Zp6PPHVzj+pdpS/8U6fpF/5ylf2HvSgBy0/25guKRuNBapNnn4XHRMf2rjZUac9HVCZvU7b+UgPH9Ob/3iTn1A/kXzIT8BLV3qRumjyhPxUx798jZSnDkSv+mTli0261fe1ZXx4yMm3ViO8+p5+fUR4o0BPthF5d0H+EcQmraweD10gVc8+n+hurbKr3DhKixvgya9IHeBH7rJ8ExF5P56NfoIUv/3GPMjW9773veVVTZ9z5Ge82YPshF///F+XOr7TQwbRITUvj73owgsuwuCEcf0b3vhK0bNHTu0H7VFlTnFY56VIHdS5+AXdYud3euSTC+p1mE79zAYyeAKzBGLXhs8AyU9kM13xKXf74uoHTVrAk710QPZB/WyD2qunQ74JNGWh8lou1M5vfa0M/NVfMuXZ0C928x/koRjUJk9ePt7GJx55PC0YVPzJK7Nbm3oUn0XRwvAe88UXX7x317ve9eTbGeql/C5lkw7lSD176r2apdy8kNYHvs5Y08+XOd/oq12anuRLga7qkDLEL53AW1whvgltU2fltS2kTh/So6zvNp9iJ0ViI3brcdBWXPFLlaszPn0pKaJfnVS7VL0xlJf6cgf64Q9/uPyEptfI9D3MvtU/0BfzGS/fpHhBajzUwzq+EC+d/HcXZlPmrzry7s48OuM7fuOvXv9tzP5UwWMY8VGP+EcfKE+f4Pe/O/Gv641vffILc+fueOTP+fE//e/jbgl18GY3//tF8CjA2EHQzjGDynaB0xHBFADApw01QdxyNGkEjR6dIUvXhDZBTG5u3tpQAWWXvelPqD/5DWQMGF63JNrYYkeezdkPNtNDVhkPAnrUh3jx6d9aVl1lbeSl/NOeveqLkXpQl//a+G5RAJ+62NCHt9jlszgpGweYb/ZoNzml/n/NhHeryg6+dAMd/OIH/vw1HnSzn+/alf37sdeq0hM/Ij9jYjz4Soe6+qDv3U7S5QfPncDFgBwZ+uiC6QNooyveObeyI+WvfuBBUMyaH3gDGbaKe0g/1BdgH4H6YrY+LGiTNxb+ekkM8fqWHd72gWTyDZTxSukpzuwA/fVTmn/1Rdzok5JTj48eMsXaO83ajIlnzbe//e2Xf4/xWUD2+MBffOTot5k2/9pTXLS1FTOyM1bV08O2f9f2VXDgK/KfjE7E9FdHTtkfAt///vdf/ilbWd/4QJ8yO3xY2/vdv/5s6UNzSX39kF/+jPUXl158nMMKN/vrWyyCRwHObWEGg1M2A52FBlCQ1OkQfryIn0jn8Vj4dVx7/PQAXVA5n2Z9dfImiLZsT2hvE7PQ8bLPHxeH6vRHmR/asgV0NGlMLCkZJ4f61SbCL/GBYiZF+UYG39oGUldckgvltdFRXkzZV4eahCF9fGaDn+r4ifJbH23GJrkfqLHpOQk5WfRNQrxk8NOB6MxXee31RX7y5R/QkV+zngxZttTTKw/pj8eJ7etf//rej370o2VD8C/Xd7zjHZexzD4b5MSpMeZPKaSvsjZ15IpXvkK+xq8N8OdjdeTzX3/Uk0sW1GePbjzKflOk36Bw4bnnPe+5jIvxNhf5iT8ZeiA/Qb/wIWPc5qgMxZg/Um35KOVTsVFOpr6Q4Ssof/vb315+S0O7v/O6wx3ucPLRgrWinr/krEX+qGv/QOrxy+uLvBiSQcVYSu473/nOcsGiiw0XBjatUWMO1jjyrygPeMADlgu6jZg+MtJs5R9k87Kf/8tirz7j8wLG73c61Suf8y///MPjBoehm9/ivy4KjgIFfo2c5ACbBbfg6BhMp+WRzgpep1MbJf4m69KhnQw9YBLIq0sej6CrVwd80CYVC/7giwfJGxy2DBDeTlxzMPQpn/hKz1xM2tnIN/32PMvtnc2Abvbwkq1PE/WHrDQ+9umU1wc2tCezxtShPVl+q6ueLn3Q1jip56N6fGzD97///eWHhtTd7na327vVrW61bMZ8KU70SNmRagO6tdFPN8o+/WKN16Yghtom2CSDL5/w85HO+oO0Kdev7FlgTk7f/OY3l9e3HvzgBy8bdEhXfZk+8H/ahKlbvTLQgSYf8AlqV9ZGtjagT1k9H+Sl+UAG+RDri1/84t4PfvCD5Xnove51r+VNFnbpYIMOKaRLm7gbozn+2fC6YuMKyWhXVz15/HTUD8AL5LQDG3xPB5/w6YPxMLdsgv5Q1ck64CXHBliX4AAQ6LT28LKjjNhgnx311qFn3S7U5pEDhbidamP2SKZ+6CfZ5mh9zuYvfvyjpawdGgOxIgfHXvz8f1g+/Lve9c7bu8GNbrJUXp3gGLAJOiEgoK3Bhwa7Qax9TpIGfLZHyhEdBQBlX5u8NnoFZtZNopM98vJ04iOn3cBIZ7tUmU7Ai7SZTGScYJxeDHx+Qz5WV5p/tVeXP/rARjy1Q+UQT7rrB8irmzFD9a9FBCa0fyR2ynHK8CGOW7zuaPhTHPIhuwjYg8aKjIswueLeRUN5xleaf/ksTX+kHo/Fq50Naf3Wdstb3nI5nRkTHzLa1DxLND74UUgW6K+dHtAuL1bS/ApkYNYBXqQ+39MJs6165eaA9Fvf+tby34guIv7fzjP5Hgk0xnzlk5SM+u4Ei722bAVzzBisfUgfqJu+1ff8Ezc6Glt10vQ1B9xp2fzMJ6fZb3zjG8tdjXWTf6VANp+BvggfCvkffzp8/tAd+XyvOh6+uSs0V8R0+q6t+IA6SMcVl1+2c3K3nxzroLPb33Y+4//DTs8VV+zW1c9//E/HCVJ0/l//3SJ4FGhA1si5/dpDA4PkC2ryh8HalnQ/+XhqZ3diS47M1JkOvqo7lb36Fm95pM2gGaz0TV14Q/lS/CidUJ4ObbNuP8S/BW18NCGdMj/+8Y8vk9kG4AOTOSmnzZDe/exnG02e8mu/1E++Fl91035xh6lHnf6g4JWpz372s8sJ6rGPfexyW4sv/clLmzMnFttVP3tanGC/OTzHZKaAPxn1+7WxwbaLgM3LRcVmfOc733lZ32wg/KWQTmW+6qtNSV+V26zWSB7yaeolyx9ER32cduOfPtRWmZ5i6KTqcYNTrX7pn5gW16ljorZ1foKfoO8+CHRB9q3Eu9zlLsvpNp/47CDy0Y9+dO/e9773cqKeiIed6Uv5X/zkhyfu+nd5H/j5GVBzRR/JkT/2kguff5GgceoGN7nZIngUyKk1ha22SWtweHb2MBS22g6isK7P/lbbmVL9mv0zME1oE656FCpXN8uT6DLgUqSOvrDmr32rflI+uqX91Kc+tZzKHvGIR5zclM2pFsxB+vbzITpVe7TFN+vWMSy/Jv7yPXJKvs1tbrN8y9Cn8F7lcooSU0gvtPnaPJzsLebapTMWkM1o4rBtE8bEpvzlL395uXMxHj7M5EdjQWbGYuqQbwM0hsYU75o/mjhM25aeif1iU1k7v3xY6bTs4mOMzDnQXjrlp451Pmp9BH23Qbsw+/DRPMCXbo/TPPLyL+3evYbZjmBdhj/uTszkvYGh/XpXzjljpwzLjxgR6mpxHU6gYK6Dusaab83bgG/RQTBATjnGBw7iP8g+rNuyP+snha22qAX81a9+ddmE7ne/+y3P/bQ1udYyk8JW21HQjLHyxJp30hrqjIF3pp1yPve5zy2npeKXHdQitBHiTZ+0Nkh2UljXz7awVU+nNeyU51msZ8lus21k/Ge/i03laSN99PDfowI8W3wH0YQy+f3sISh+Yc2TH/TwX5881vDGxNe+9rXlA1vzsT0sXemdug8CW8XIXO7nZG3Q9E8K6bcWbKw9spo2K8/65cS8y9uUyXpGrX9d3M/13WwdcoW4tqFBaWCvKcxJMekgnA5vMMAGQtqAgb42AemabQdhy375df2ZYE4sunwg44MZH5D1C298b3LBYXzPtzXBtLmFLTmUXOWJybcm/q+JHie0hz70octjG5uBNTP7Cdk0Xxu7idph2pxY86xR+5rMIa8jfulLX1pu8Z3yzSG+oGTbWOQhH/QT4s/2TMuvUdsWTzGs/iDe/YAvPZG++RzAh8v+AcXmCTZG/YNicxiwod9k6Xco8ijnTne601I23sXPHBBrn1N468ijH23mw9bGvEZ9MEfwsWv/leoXW8defOEFy6MMuP418OHfYdHA1YnK1wbky6QzgUEh20DK19fa3RabDFsLXTkKZGDWzYk6+SfPqUCWHinyCMPbF95YcHrhdxuVCTaR3dMFe3SSzfZ+evILTT+c5uEg+1MWJm8LElmsNmgfqnm3tbcS4pfOuTr1wH71ITv1NUz+6qX62YYk73U/9u9xj3ucfIyy9mc/29msP8kdFfazXd1+7cCv2ZavfDQGvphiQ7SRGi/YT++6vEZtbIDHVjZNm7A7EZ83eHbvMYa16WDSa302bHca5on1mo61/d/+8hfL7zBfttNZX+KxFxvTY//rZS++SGcw3ODGR/eM+TqcHsTf4MxBNGAGX50Bm22wLs9BPoi3/JrnVLD46TdxnFJMQB++8M1E7DUl9fiiLX+C9oOgvc3VQpx6J1oE8behe5YnnReLqaOYRcBOIKuM6LAxeyfYhalHBbNvZ9pPyIfivKVLHeJ3G7N4X3LJJcsG4VUyz2CXU9fOX36nZ+qbcwWmzWI5+Seqx382yFZ69rOnfVJy+qjvyId13nXWZpPWd4Q/G2iNaXPti7L4+Zapt1u8B+7XDD0m8uz+7ne/+/KKq1fqjIPPIJCLRa/zNZcah8Xe708ctsTcpt8aZ/uk7y970YUXaXCFPe/8s/tK9qk6/ueE2dc5mGus+WbZwCA4OWhXwsCBhd8CmxMHGkyoTTp1Tf7ytSc/aY3q8XZ69HvIbudtAk6OnQ5MKnzK+PJlIn0I8KyRXyA+9AZtaMplC/DbmPkgZi3Q6Ucxz49ZTn9Itzr6kMXkzQAboEUYX8CbrupL6Zq8E+q1o2yFLRn666/xcLpze6+/6rWj/E9m+lQef3njnGxy0+9SmHk8oI7clNkPeJLLXjLlUbrKg373ZRDfZlTvuXBjX5+SBXWzr7N/8dGLtDkZew3UBfkJT3jCMt6f+cxnlj8A9iGrTdsHg14R9faGU/MXvvCFxX6v2aVXCpf95peLDw405rZTtnZ1sKz5F7/ggouaAH9xNfyIUR3/c4RgFvB1PysX8AiveGuvrfinr3w4OaC701+DB9mQ4omPbPotsjbU2rVFYBKaIMkhdqYsyIOT2c9+9rO9+9znPsvkwovHBd6kQnzttJrdqVM++/nJjy5C+YKPXuXipB4/n+lWjl8d/jbj8vHB9CG7fAY88UmzP+vp8yEbnZ3S0j/5IL+0881dBX3iVj8hOWU+aZPWJl8Mpn4xptPttQ/DbAbJ4ue/djLq+ZFNPHxp/LUhm8v0J166AI8YBPX8mP6yRS/e/MGnLd/U8w1fn3Gpzy7i1/SPrBTU4fH5hg9kbc63vvWtF9/U509zgC19I2+8+cMHvOqQOq99ehujd/Pp9OG258rveMc79j7xiU8sttw5uUDboL3TbNP2TNoF0gnbZm5+sAH6AX+47Krf4pDOOSr1mGMnc+IhdJ29DmcHgV7DbQ5aQ+xRi8CkaAJPPQYLn7saE1gbfWu+YAI0KYHuZcB3JwvpfsgfMB9MGOXmR5uwxxhSuuimNxlkAfDPSYDP9FhEc6HIS/nP3+JDnu76UL+dSviBz+LKfhtcOuW15QuwwSff3uqHi/jNJ3U9j2WT7ATZxkeeDP6+7EDX1hiAevr4xhc2EL+LU4s1G1CfEB3p1z9EZ3V4PeeUesYK2pUbbxsFXWySS0fxY1edvpHpOSl+ddJpc0I9wpPfs55ubfqZnnQiOquf+dJiYuz5JGVHu3Hw+qIN0Z2bzdHcAG2ITuPkwsWuPquXB/qbf3jlbah43vOe9yyx87jOV9lf/vKX733yk59c2sVIqp2fPm/R7q2dvgzzvve9b/lwMDt0gp+/0Bd19YltsdO33+7m5LkczMn/X+DUFv2poMkDW/0wGQR/8sGar7oWYHUmIdDTxKdryy7gmW0tGBMI0rElUxmmPZA3V+jra8r85J/+NcFM8uoRvS08H1C95S1v2XvTm9609853vnN5NupFfYvARoUfrwWCyEwftNOtTZrfa9+V+UpXpzm3na9//ev33vve9y4+etXvda973XL6p9fC0eeQbf1F2cDjW4H8pfsgsMsWX9JHXlkfqg/ySH2y0urJdKHjs5h73t1mUpyl8Uj10QbuFMhvFyh57cUwv5qr7CK68NEb5NVpM4beKXaCJB8/HY2D18HcaXkGW7/zy6kzW9rcjfjR/H4PWX+BXvHI1+YFPfpvkxMLoAufcTNWNm95r6nRU78Q0IXaMD2uA78pIv/ud797eS3Ps2O20508/XS+4Q1vWA4unkPT5YNi9SBm5Pzu8g12fugbqAN8vnCy9K0Gg3EdTh9i18SeMAhNZAPUgM/J3WRQjww0PnUtBDTzJqHU4AXlmdLRRoJMHm30QnwhPlQbeadzMslbNE6Yyl7q14avPuBHFomv0aojw38+meBve9vbFhkTni6vGlksbQZ0k3HysZhtHvGpY8sEtljxQ/5VP3WJE/3q3Ya61X/gAx+4bKguEv16GH6Lfh0bZW1SVAz1z2mJj7CWC3zBxw9k80TiIU58SycdYuWU5dffvI4oZjZS486Pxl0eiaW+uKOgR7u6YqJsc3jzm9+8xP6Zz3zm3qte9aq9N77xjcu3NZtPQJ5sZbLNW/pAioxRNnwL77Wvfe3ymy/GgB6kL/EYP/H/0Ic+tNhsTvPNpqedrI3105/+9N6rX/3qpf+NM15y7Bon8vkrxk7OnvPazNXXBzLiT8YjCG9VeAzBjjrt+OPlA8JDn0cRLhIeV7DhpKxP7CfbmtXm91X8hoY55ZuixrJTfGPjxKwffGSLHn1c1q19eJc/9pIXnvjmH6azfV2uyTLpbHC28lcn1v2ctAXxjcQ7NHGRAaoOmXAG3IDSi6c2ddqyZ4DVq6M/X+KDKZ/NgBdfOtNr8ppE9PDHJuHVIJPW6QF/erKTLOQTWSc2C9Mm4rbbJ9smsAWo775F9f73v3+5XbQx+UDLgqDPJsIPC8qHLxaLRWMxqEfqLGrf0jPJfUDzkY98ZNkA9eNd73rXcrJxq+nVJ6c3+vjR4mWLr4HvxR+KodQHQzZomz1MvtAC5h/It/iN04wfyPPDgrbRedvALboNmg78LWS6kdfF+O/3PPgwN438v+1tb7s8//zgBz+497jHPW7vkY985HIRdXLuF/XwsusUa2NyAXEatrGIoQuAmKlzCqU38qjAB2942OePZ7LF2HjzUx/oVSd2+ovXmw3yTt0udsbeqdMBgJwxxS/2ywa2ix07bBdzPourb+oFcaC3zdMFgE826OLKn/SkywWDHnPcRY19ebqKf2PAJyn9/NI3X9X24bC14mvd4oufnct/u7tT2ckAf/kmbvzYGVj0H3vpC19wUQP+Fze+Zv/B5FQoSH/KWPfBwIh19Qa6fAOHbA4tXFR7PNqkyYJ8/Ov6icrSKTPrYE42KXsmtltNG3OTLR3aZ0q+02F5MjbeXj/ySMTk9QzP+7d+49apx4ctYuBU67Ukm4OF8va3v33ZFCwqG5hNFWzKNu+73e1ui/1O9Ozwz+KwGG1QFvhb3/rWZTNwC95mzTd9rf9rGCtU3sZsw/Lhk5Md4hNyAeOzBae+zdhaU7b4tHVXgBe5OwCbAP/0Wfxsli5WTqc2FhtFMfUMVZ/0sbGSltcvMaPfYxwx8gxULI2lX58TTxvMK17ximVztoF79CD+xss4setZKh02Yb7xQT/w67PHQ56zmh+esdqcP/CBDyyvmbkIaLf5enxl43KBdLH2K23sIDFxUfJtS7F00qULf1+cMTf0zVjxAbnw25y74Nh0zSWxk+q/i4DYdjHVPxdzMRBbfWDTYy9zhX6P3sSGXqm61i278uacPN/YNmddKF30egbOX3TZr3+58AE5UO5iuuh76T9eeJFpqHCUv5VxFNhvgVzbwe9JoYkkBXlxn/WRAUs+vskz6xHMejRROflo2ocpm80mD3RitkBsSvHnw8S0AT0GcWLzgYrN1OZjUlpUfpHO6dmEftKTnrRsNl49sqhs2uxZ0DYgPylqU3bKtkgtLgv+aU972rLJ2kCcNp1ebApeZVJHj037wx/+8LJB9bOebNXP4rFFYAFaRDYgm5fN3YZj4yztxI8sfr7Y2DxPldrUbUpOgzZFG5E2FysbBL1Scha3W2Sbuk2LjA2MXm02Ed+A6w0RpC/6AZ3oxN+m6puB2t1yP/vZz15Os56Lev3RBdLjDnEj95jHPObkxdE42rRsYjZeY6DOBqi/eNUbC4+IXGTF2pzxZkOnZPr1jazNT79tzB5peN3PabMfYNIXfE7pNjf8HVrqKwIXKPPF2IiJso2arPnlIuGi06YtljZbj5Pw8EOMyLtYmhd0u4vjAz4plEIbsni5UNKhD23MLtx9MGtMLv/dbxZ5usmqc9FuvJY/Zn3pi16wPMrwbOO8I/xrqaNAAf9TQhNl0rp+ojqDgiYfWmPdjhrkNU1UXvNsUZg+SU08k9nGbPOzUaqHLR3JAh/JmeQmYc+MbZQWqYXkCxs2Oycwt90WtY1C+1Oe8pRlUdtAyDn12IzUseNU5BGHRWXTsXFZjDYFi8Xpzo8tWSA2FDrZsTA8O3SipGe94CdBC0ksLGYb1sMf/vAltZHY7OWlyshFQX9sOsgFxQYmtdG4yMnbCPAhMr68oI/80wc2LXKn3Yc97GHLM0wbmv46FetbMZ+xL+8C5+RJr1i3GduEbPZ8VucZvIuFWOqLCw//nHz5IW585hvbxtLdCr/BpkevC6GLgF8cZK9n0GLg4qSNX/JevWTbxm9eucCJAb3GW9xdePhhMwX9Ajr46sLMJxcIfhfHiD1xJ89HG6jTLL38fepTn7r3qEc9arEhVk7o4uoC46LoEVxrDeT5IAbyfNQ//j760Y9eTuXmPP0OB8le/tvfLPNsV9i7/m7fhWVT3/l1uTuvXQyOveIlL7pIoCk8/6ZX/fj0NQnObtGfC7b6dhhaY4vnsHQU8m3MTns2ZptEbWv+SUDWgjPZ5U14v37mltimaNHYbC0cZCLjsQnZvJ24yFtgFpNNm6y8hYEPmfBO1GRsHg95yEMWfRaVjccJne8+fHQC4o8N0WLlq8VF337Qjs+asaE4FbFH/5rcNiN+o8ra2GazE1ukbKN0YnQKtZnZ+MTjvve97+K3zV48bMR0eRwB4tEmXNzL2/CcfJ0WjZs+q7MZGlNjYQ9wwtN/Gx1/nFKd1tlXp9/q9dvdCn/psZHZhDx2eeITn7j4YoNyYqVfnPG50Dq56ofN0wXSBdS4IH3WfxdcF1OnY+3mBlvsmhezj/xG5iXf8bRZ1u4OxIXFaZ8fLk4uBuaTeUKGDf6DvtCvH/Qaa/MU5uYs3uYzG+YeX83Dpz/96Sf76wJhnibj1+Wut7vA2YB3ypaf/9Q3z53F2Bw555eX/Gj5ayn4q//y//6u6HW49qBJNtFAH9R2VLAhmTQWttthp0QT0MRsou5ns5ME3vJ4LR5lE7q2+iKvHZ+62T5tBm3qwXxe+7PmD1N37ctpZgN40y0OTlI2S4s3e9FBoAdtQb3FbWOwAdkYbVI2KKB7ysq7E/Dc2gd6fN/yQcxteFKgW96mS7eNkw4br7gDHTYqdx02Y7bEiQ2pzQSPeZGsEzXdQE49feTJ2KzJu6BInVrJ2YzwkeEP36Rs0i8v9mzSZcyKhXaboA97XUBs+vlIRuoxCt1OsXyEGSd60se2DdypWkw9mnnNa16z6LR561NzUIr4AC5Ez3jGM/ae+9znLhcdp3h3NsWEzO9+/tPF35Ofvez65N1l+kEcjr18d2LWSPm17RnzBB91ao0Cexicrfy1DQf5ftT9oq954gRhs+i52X7IB3Hv4q+OjiahVBmkePGYnNlD8vEg7fjmJoygNHnl5GqTZ0s67dS2Bfx4LVynPs+InYachoFcfhxEsFUf2Tg8vnBX0AaW7nwrzycnav54RINX2xrqbGj0pRM5Pds0xNNGgYd9G6DUhhh/ZTQ3N2VyNlf12aeDrJQ8/crpUaeN/fTSM3VNHYiO+j5hg3c69SijD9pAiugzZ+kUM7bi4Uc6S/ngmTP+vubeV63xJ6sebNY2f3doz3rWs5Y54g7F3ZrHOMWEnBOzeSu/zPNdfvm2347HBq/+3H6smbPXRvArsigmzbbrcPaY8dyKq3liUprknumaXHiMxalArgltkqZbqtzENVERvhaPtlk/kc74pPjUW8TJpH/y1jb9ku4H7ZETszhYwEH9UWDa4U9+5qPyrHOL7TTo5DnXxcTUFzUmdK3trW2UL51+bMnSO+ujKTP9mnLpn3LJll/D3YDTuM033TB1J29epCc/0xm/i6Ln/069Yvr4xz9+78lPfvLyrLnTN9iAXRTMB8+pn/Oc5yyncs/lzQ2PnOieNoxNcadb/fFdet5uc65+ty9fFYBrK+Yksxl02wDrCfjnCuO0pnBQ2+mgBT0pyNNr0nge59Ntp4TDbMqQT+kwAZuE+Xw6lK7TpcPIHQTzz22oW1bPlp3iZpxOJX8YtB7TNX2bBGy3GfHJeETTL1jLny4dpOOgtijM8mw/DK2hj8bE64NO/07XYUv+sGReOinT6fcy2Hje856398pXvnI5FTsFO027OHs2fsEFF+y97GUvWzZlm3nP0TvhB/llLe3Gl07U5nz5bl6xa9M/51c/vfi4goYb/tXfXil+FdaDG6axqxPst/jlXaF0xoLgg7YW96mw1Zcz6cd+MZk46vhMm1dX7IvzRBfsxgF5Bur9YO8a+4AGTyePIF/56oz7YfQcJLfVBlNvPFJzz0XJc0f9d5EC/NGpsJ9N2GprDNbA65CC3GZ7pOGVQ5uTcTImU/Ywvh0l9utn9YeN1wTZtV4fLvpgz2MMH4x2IsZ3JmMiL37uQJC57qTsCy8uxtqdzpF9yMnY3Z1Tu3flpf5UwebdAQTy5deX/njRsexbOz99RZs9Pisvb2X4ggmXuH798088oD4MTjegZ4s6hbqQzDp0JjgTuTmIYa3nTP3ZD2xm96h1h8P0ywQSf7dvTmg2ZjxdHPOz8QHpmo4KZ6rrMHLx6DOCnh1KPV/uRBSdLdIz5/dBEGuxd3rzbTWPNXp7YI4BnErXNY3D9G8LzbHGxQelTsw2Ts/7p97TsUEnXnFLvw3Xh7vg4ifG2oN54LGet1t8YOjDRyfqDizpg3z5/WX/fsLGrs78uWKnQ70PAX+/uwCwec6//eTi495h9ozjJn97i0XBBAe3QNF/VsyYlF/H46jj08YA6b46bYQmlX5G+Dxn820vz9W8btRjiXjbqI8SxXriMDYOklu3KSPtaMZEvdfJvCPt/WGn5bkxHxYH+XM6oMfGIOVn/0doY3BqXm8IaxtnYvNMwcfZ72xLt+IB8cz29CB99sjAWyle/0P6POfeYfuYziDfowZgS2x94Ov9dY8bkE1UrD3C8EjDWxvK037rQh796qcXn9yEncTpwIP68O+cX/7zj493G3r+zf9mUTAxnZ3I8H9G7BeTiaOOTzZLG+SjxFa/sjHb1Hm+7EsATiu+7OA9zeVKv2vDu0yua9C/g3DYfoFydfXFYrFo3Lr6tpxnuve///2XTbm1czp9Pcif04HNwsbMNzq9+ua222uMbul73IcHjE84XZ/PFvybF7nsI23rmEz/phw+m6U2z/pdJM1Fj3B6r37Klp4K0wdpNsnX1qaJ5qaNR2yVaw/a1huzRxl+Rc74eGyRLMLL9rGXvvDCizBTdt75N1oUHAZk6sga2rawxZ8exLFZPmpMv06lf90+ZQWOr9I5gBNrW1Pfmnc/7OfjqXQd1L6fTtB2GN/ic9voeauvETs9etaWvLT8ls21nTPhmTZOhS39MOvpUkbplbexedbom4XG3bNljw7mppzsfli3z3zyW9jSOXmt28oWuhObW2r+eaRhfk4e6al0HoSD+hjStcWrzgbXJhTWvNOf2kqNh5Omr7t7T9gdgr7q55bNg/o2dU9ig77GGJT5rKxejJXV1w7aq5df2/fNv8XOLs+Odv1xoXeRMY7HLvyH/3FRjtzwpod/j3ltbOKgttl5wCvPIVdAV481j7SNsPpsVEZtkrXrk3xY+0VnSHf5aSt9QZls/E5SBXg9GPFOW+kMa79Ae37UvuabNiZlT37dHsjO8oT6JlmY8QF5k89rRf1Kl03BZE03qt/7+V4fQV12oimnvB/W+qcekE47YbbHI8VTHC0av+vhQ08/rKOf5qkYzTilA1XeQjxrn7ewn4418sNbAnz2myO9o0xH7Wzq42FsbyHfD4N1H5O1zmFueuqbs7MOQePi8YG11i/v+YKPd77bN+Z40DPtb/kC0x64cPSIoTbperOVJ9M8Saf+5Uf8Qf747/+DsYU3Xe0f1g9dx/7nS168/LWUhvNv9pdXil+FBNd0EA5q50xBhsnLjzpbHjgK6uvMLEezLp4WI11rv+KTdrsK6th0seg2o/p1mkwLla5pS3lCObuT1sDD7tr/ySs/9UFy+mNMofKUT2aOBVRf7IP6SUDWwvdJtZfx/WiMjdqCA3bxilF2Q+X6B+ryMxtruS3gWfNNP8PkK4+KEyjzCfHfBzvewPDhkt988KUaehvr9E1b5bWVX/PO+E7ZKQPylWub5Rm//M5Hv1Uh9sYHb3MV0hPl2xprPnQqnIqPj3yZG/O0v66jq366c/FTsF5Jc+fS1/Dx4pOi4jv9SN9EvsZHrjjS2zjXRke+TJt44zefOgHnB57sOzHjEQPtybbXqD/2kgtfcBFmD6yvd8Or3gE8G+TAFnSE8TqX4+pgBgksVBskPg67YsoXFHItrOqVp151tU2kA2lPl3wbRMGWn/JzcMgtwdwRTFtrPsRe+qI18EzZg/yPT0p/fQH+65MYZn/Gi7w6/UXqtmzhm3q0s6fO3PFqkGecNgM2nSql+MRly3fIfzpNZrzyFiA/iimoxz8J0jVt5Ju0enk2pp7qK8uLAx7fcPzYxz62+OAX8XqGSUe+TZtklNPBPp3FOV58tamTqoOpD+iKF0Fy2YoH+ITc2rto2sTc7vsMoGfO/CfTOLO9NeYBb/azN/0J1UX0TgrTNr70pTsiU57PfhPERdLccOdizmnrZBtvMAb0gvZoQtzwOeWmiwwbrQf15OT5gZdv6VOPgnmfbPM33oX/jydstjbxFS/rC5YTs4rLd4w3vMnR/B4z4wVkgp0GQMohjlXOSa9i6ZA8GZtxZQETPOXZ2YKXHXk86snFB6VsttEIkqALmPYGgGyELzvS+KEBUJ9vwEZ91dYCCupB28T0FU9lSKc6Kb+i6uVBvsmnrbriCdrwqMv32iA5qA1fsSDrdNAPD3n257Ui4+SDMinQM3VBcexTbpuHMRb7xrm+1L/yZPkyfYV8mvx41NELeIy9FOjCyxcnf79q5lTmrRM/DeoWE79+zr4nD+SVpeliswvUtKUe+IVXWXtlwIf0Y93P7BQbSEfy3hRwovRaox8Hcvo3Hh534MFLhg59AvXZLD/rycw5Ip3Al+61juRBitThAXlErvh4TOhNCBd84+Erzk7KLjzZMU/Sm6xyOrIVTyngN07qjFN15mLzr7jjwasd1M92yCfzjP1OzTNW/+c3v1ryxWVu0H2T9JzfXHrJcQsT/c1/++9L5WFRQNdgdN2mXIdAmSMtDnmdcfoygQRepwTCC+ROK4KAh/P4Q/7jp6sFLo/I6bgU5Z/A0A8GgX/p1+b1mJ7RgQDmN148dEm1qdc+J0p2IJkmAJ+mXHz5PZEP+Q7JzQmof+rEtf7Sy3Y61U2bnU7FvjjhVZc98mKszOfqIXnxp894WUR+0YuM15g8B6TfBtdkBfxsiruxwEMfNM5sZzP79LIv1unK33yTgnx9SEZbOhwE2Hey9HsL/LEB+OUxmxh76uiX8r84ofTqS7FLv7o+JArxNiZI3+nnW19cUKaDb8o9v4/IFxs68eFJP8JHh1e8fE3YWzQ+tPVrfk7R+sdmOhAU0zDb9B3RPWOOsksfaE9Oqh4fJJPuyv32h3nk8wtz2dej/TqgOaGPfNZ3fdMH8S2mfGOn+PIhmja1Q6m6/PUVa/FRppedxnrGii94Jtg3FuqNW2PPLvz60p8sOo+de8JnXyI595wr18PxXfyu2I3bL378o+Wbf3DTv/v7JT0KcHqics7VscWxHXRchwTehtgA1EllMEgWrwCRF6QGpH4YUIPV5KGn9gYn2+yCgVa2qdMPFgtZG4U29WTzOXv41CvPFPDWzh/2s6Vf8ukpJnjx5Svg16YO5MlJ6a2M9FWcxCbd6uhKB6ITdXHUV7Gv/zagbCCxyh/16WOf/sYL1T8fmNnw/Cyk57T4jU16khdjsc+edj6KD0x+dqR4TXw89SnZ0mTk+Zgc36T65J1sm5XTpbdLfKGADSBDb2mbJj3iOxdpm6v+sCd+2sP0R3zYzp98Js83cvL5PW2lh45saZMvftrSSV69VJzdEbgAeaPGRYkf2sngATHtYgDpQ+aLseJf9uQjSE65PJ38TKZ+yCNQ13rzJQ0XdI8s2uDyQ54feOfvY4hBYyU1BtrWxB7e+PG1TvlonPnNZ+2oPNtiRja/EGjnkzaHSaBv4t9/9tOlH3yYf8rqvWbysLzHvGR2Ds0vmCifLgruFmabPOJQAykonLIBy2trsuFVr05A5JvUdTr9/J4TjX482rVFyoh+KLDK2k08KVttcvj5SCfdyg0WXnl6tCsDX1DykDy9BjZdxQLkp54GrLr4pXzW3gRRl894LPT8SweqL/UZv02KDhtVfPThtYjFo0UpX98Bn76kqzGqrbHEA8kpa6PXYhATbY2jPMI3x1ZdiyfQj/Q/xJd9vjcmqPjhsUDTnT39JIcH1a6eLmVED1/k8fGTfrz4pFAM8NeWT9pAubQxDbWlI/uIT9lZ60O11RdkveGbNvBVVz756vJDmW0pf9SLZf6JqbR4609IHz8ak/SbB/LxTdtSftMbn/riDvL8UA8zxY/YpIfPXRDbpOmRpwevvBSSUTbX8NIrn10HEDz5k+xvLr3kZDz8W4kv9ynnn7id/IIJZdfExswoW8BGHVIPyg2yerzKJry68vHjSXcyMx9NJBNVF9S5YoIANwBNYGUgswR3V552Zl7AyVQnj/iP9FcZ5NMN6YD6C9WXNnGyAfjl1Tfo9UOKyDVp4jVRYfYL8NJDrzsScWnDSnd9kqeXDH35btzqbzJSfGLbhYptSFdETh0/WhgWy+xDtiyy+qoeXyBf3/lUn9MD9ET6ip9O+uTVu3glryyvnW/5p05/6OYH1I/iUB2Z9Exf6JmYMvoibuT0EdWubsqqJ4P0YSJfkt3i5RN9SH19KI8C3tr0X9+kaNrITmNCd32PD+Irn+3K8vGXqtuKXfxAD7vsoxm/xgzv1FVflcki7erSgZrHyWXzP/7t58uc0f6HnazxZtFJG+/x48f3/i8GZ5Jy9E62PAAAAABJRU5ErkJggg==;" vertex="1" parent="1">
          <mxGeometry width="358" height="407" as="geometry" />
        </mxCell>
        <mxCell id="-NnZnZEouSl-1zQLcLan-2" value="" style="ellipse;html=1;shape=startState;fillColor=#000000;strokeColor=#ff0000;" vertex="1" parent="1">
          <mxGeometry x="20" y="460" width="30" height="30" as="geometry" />
        </mxCell>
        <mxCell id="-NnZnZEouSl-1zQLcLan-3" value="" style="edgeStyle=orthogonalEdgeStyle;html=1;verticalAlign=bottom;endArrow=open;endSize=8;strokeColor=#ff0000;rounded=0;" edge="1" source="-NnZnZEouSl-1zQLcLan-2" parent="1">
          <mxGeometry relative="1" as="geometry">
            <mxPoint x="110" y="475" as="targetPoint" />
          </mxGeometry>
        </mxCell>
        <mxCell id="-NnZnZEouSl-1zQLcLan-4" value="Persona" style="text;html=1;align=center;verticalAlign=middle;resizable=0;points=[];autosize=1;strokeColor=none;fillColor=none;" vertex="1" parent="1">
          <mxGeometry x="50" y="430" width="70" height="30" as="geometry" />
        </mxCell>
        <mxCell id="-NnZnZEouSl-1zQLcLan-8" style="edgeStyle=orthogonalEdgeStyle;rounded=0;orthogonalLoop=1;jettySize=auto;html=1;exitX=1;exitY=0.5;exitDx=0;exitDy=0;entryX=0;entryY=0.5;entryDx=0;entryDy=0;" edge="1" parent="1" source="-NnZnZEouSl-1zQLcLan-5" target="-NnZnZEouSl-1zQLcLan-7">
          <mxGeometry relative="1" as="geometry" />
        </mxCell>
        <mxCell id="-NnZnZEouSl-1zQLcLan-5" value="Ir a pagina&amp;nbsp;&lt;div&gt;de Google calendar&lt;/div&gt;" style="rounded=1;whiteSpace=wrap;html=1;" vertex="1" parent="1">
          <mxGeometry x="130" y="450" width="110" height="55" as="geometry" />
        </mxCell>
        <mxCell id="-NnZnZEouSl-1zQLcLan-7" value="Logearse" style="rounded=1;whiteSpace=wrap;html=1;" vertex="1" parent="1">
          <mxGeometry x="270" y="450" width="110" height="55" as="geometry" />
        </mxCell>
        <mxCell id="-NnZnZEouSl-1zQLcLan-9" style="edgeStyle=orthogonalEdgeStyle;rounded=0;orthogonalLoop=1;jettySize=auto;html=1;exitX=0.5;exitY=1;exitDx=0;exitDy=0;entryX=0.444;entryY=0;entryDx=0;entryDy=0;entryPerimeter=0;" edge="1" parent="1" source="-NnZnZEouSl-1zQLcLan-7">
          <mxGeometry relative="1" as="geometry">
            <mxPoint x="325.03999999999996" y="540" as="targetPoint" />
          </mxGeometry>
        </mxCell>
        <mxCell id="-NnZnZEouSl-1zQLcLan-10" value="[Logeado]" style="text;html=1;align=center;verticalAlign=middle;resizable=0;points=[];autosize=1;strokeColor=none;fillColor=none;" vertex="1" parent="1">
          <mxGeometry x="320" y="508" width="80" height="30" as="geometry" />
        </mxCell>
        <mxCell id="-NnZnZEouSl-1zQLcLan-11" value="" style="ellipse;html=1;shape=endState;fillColor=#000000;strokeColor=#ff0000;" vertex="1" parent="1">
          <mxGeometry x="830" y="836.5" width="30" height="30" as="geometry" />
        </mxCell>
        <mxCell id="-NnZnZEouSl-1zQLcLan-12" value="fin" style="text;html=1;align=center;verticalAlign=middle;resizable=0;points=[];autosize=1;strokeColor=none;fillColor=none;" vertex="1" parent="1">
          <mxGeometry x="825" y="866.5" width="40" height="30" as="geometry" />
        </mxCell>
        <mxCell id="-NnZnZEouSl-1zQLcLan-16" style="edgeStyle=orthogonalEdgeStyle;rounded=0;orthogonalLoop=1;jettySize=auto;html=1;exitX=0.5;exitY=1;exitDx=0;exitDy=0;entryX=0.5;entryY=0;entryDx=0;entryDy=0;" edge="1" parent="1" source="-NnZnZEouSl-1zQLcLan-14" target="-NnZnZEouSl-1zQLcLan-15">
          <mxGeometry relative="1" as="geometry" />
        </mxCell>
        <mxCell id="-NnZnZEouSl-1zQLcLan-14" value="Ir a crear" style="rounded=1;whiteSpace=wrap;html=1;" vertex="1" parent="1">
          <mxGeometry x="280" y="542" width="90" height="43" as="geometry" />
        </mxCell>
        <mxCell id="-NnZnZEouSl-1zQLcLan-15" value="Seleccionar Evento" style="rounded=1;whiteSpace=wrap;html=1;" vertex="1" parent="1">
          <mxGeometry x="280" y="610" width="90" height="43" as="geometry" />
        </mxCell>
        <mxCell id="-NnZnZEouSl-1zQLcLan-18" style="edgeStyle=orthogonalEdgeStyle;rounded=0;orthogonalLoop=1;jettySize=auto;html=1;exitX=1;exitY=0.5;exitDx=0;exitDy=0;entryX=0;entryY=0.5;entryDx=0;entryDy=0;" edge="1" parent="1" source="-NnZnZEouSl-1zQLcLan-17" target="-NnZnZEouSl-1zQLcLan-11">
          <mxGeometry relative="1" as="geometry" />
        </mxCell>
        <mxCell id="-NnZnZEouSl-1zQLcLan-17" value="Guardar" style="rounded=1;whiteSpace=wrap;html=1;" vertex="1" parent="1">
          <mxGeometry x="700" y="830" width="90" height="43" as="geometry" />
        </mxCell>
        <mxCell id="-NnZnZEouSl-1zQLcLan-19" value="Definir titulo del evento" style="rounded=1;whiteSpace=wrap;html=1;" vertex="1" parent="1">
          <mxGeometry x="60" y="700" width="90" height="43" as="geometry" />
        </mxCell>
        <mxCell id="-NnZnZEouSl-1zQLcLan-21" value="" style="line;strokeWidth=2;html=1;" vertex="1" parent="1">
          <mxGeometry x="60" y="670" width="520" height="10" as="geometry" />
        </mxCell>
        <mxCell id="-NnZnZEouSl-1zQLcLan-22" style="edgeStyle=orthogonalEdgeStyle;rounded=0;orthogonalLoop=1;jettySize=auto;html=1;exitX=0.5;exitY=1;exitDx=0;exitDy=0;" edge="1" parent="1" source="-NnZnZEouSl-1zQLcLan-15">
          <mxGeometry relative="1" as="geometry">
            <mxPoint x="320" y="675" as="targetPoint" />
          </mxGeometry>
        </mxCell>
        <mxCell id="-NnZnZEouSl-1zQLcLan-23" value="Fecha" style="rounded=1;whiteSpace=wrap;html=1;" vertex="1" parent="1">
          <mxGeometry x="170" y="700" width="90" height="43" as="geometry" />
        </mxCell>
        <mxCell id="-NnZnZEouSl-1zQLcLan-24" value="Agregar invitados" style="rounded=1;whiteSpace=wrap;html=1;" vertex="1" parent="1">
          <mxGeometry x="275" y="700" width="90" height="43" as="geometry" />
        </mxCell>
        <mxCell id="-NnZnZEouSl-1zQLcLan-25" value="Agregar Link para meet" style="rounded=1;whiteSpace=wrap;html=1;" vertex="1" parent="1">
          <mxGeometry x="380" y="700" width="90" height="43" as="geometry" />
        </mxCell>
        <mxCell id="-NnZnZEouSl-1zQLcLan-26" value="Agregar descripcion o archivos" style="rounded=1;whiteSpace=wrap;html=1;" vertex="1" parent="1">
          <mxGeometry x="490" y="700" width="90" height="43" as="geometry" />
        </mxCell>
        <mxCell id="-NnZnZEouSl-1zQLcLan-28" value="" style="line;strokeWidth=2;html=1;" vertex="1" parent="1">
          <mxGeometry x="60" y="770" width="520" height="10" as="geometry" />
        </mxCell>
        <mxCell id="-NnZnZEouSl-1zQLcLan-29" value="" style="endArrow=open;endFill=1;endSize=12;html=1;rounded=0;exitX=0.54;exitY=0.3;exitDx=0;exitDy=0;exitPerimeter=0;entryX=0;entryY=0.75;entryDx=0;entryDy=0;" edge="1" parent="1" source="-NnZnZEouSl-1zQLcLan-28" target="-NnZnZEouSl-1zQLcLan-17">
          <mxGeometry width="160" relative="1" as="geometry">
            <mxPoint x="370" y="750" as="sourcePoint" />
            <mxPoint x="341" y="870" as="targetPoint" />
            <Array as="points">
              <mxPoint x="340" y="860" />
            </Array>
          </mxGeometry>
        </mxCell>
        <mxCell id="-NnZnZEouSl-1zQLcLan-30" value="" style="endArrow=open;endFill=1;endSize=12;html=1;rounded=0;exitX=0.11;exitY=0.7;exitDx=0;exitDy=0;exitPerimeter=0;entryX=0.635;entryY=0.085;entryDx=0;entryDy=0;entryPerimeter=0;" edge="1" parent="1" source="-NnZnZEouSl-1zQLcLan-21" target="-NnZnZEouSl-1zQLcLan-19">
          <mxGeometry width="160" relative="1" as="geometry">
            <mxPoint x="330" y="680" as="sourcePoint" />
            <mxPoint x="490" y="680" as="targetPoint" />
          </mxGeometry>
        </mxCell>
        <mxCell id="-NnZnZEouSl-1zQLcLan-31" value="" style="endArrow=open;endFill=1;endSize=12;html=1;rounded=0;exitX=0.11;exitY=0.7;exitDx=0;exitDy=0;exitPerimeter=0;entryX=0.635;entryY=0.085;entryDx=0;entryDy=0;entryPerimeter=0;" edge="1" parent="1">
          <mxGeometry width="160" relative="1" as="geometry">
            <mxPoint x="214.44" y="673" as="sourcePoint" />
            <mxPoint x="214.44" y="700" as="targetPoint" />
          </mxGeometry>
        </mxCell>
        <mxCell id="-NnZnZEouSl-1zQLcLan-32" value="" style="endArrow=open;endFill=1;endSize=12;html=1;rounded=0;exitX=0.11;exitY=0.7;exitDx=0;exitDy=0;exitPerimeter=0;entryX=0.635;entryY=0.085;entryDx=0;entryDy=0;entryPerimeter=0;" edge="1" parent="1">
          <mxGeometry width="160" relative="1" as="geometry">
            <mxPoint x="319.44" y="673" as="sourcePoint" />
            <mxPoint x="319.44" y="700" as="targetPoint" />
          </mxGeometry>
        </mxCell>
        <mxCell id="-NnZnZEouSl-1zQLcLan-33" value="" style="endArrow=open;endFill=1;endSize=12;html=1;rounded=0;exitX=0.11;exitY=0.7;exitDx=0;exitDy=0;exitPerimeter=0;entryX=0.635;entryY=0.085;entryDx=0;entryDy=0;entryPerimeter=0;" edge="1" parent="1">
          <mxGeometry width="160" relative="1" as="geometry">
            <mxPoint x="424.44" y="673" as="sourcePoint" />
            <mxPoint x="424.44" y="700" as="targetPoint" />
            <Array as="points">
              <mxPoint x="425" y="680" />
            </Array>
          </mxGeometry>
        </mxCell>
        <mxCell id="-NnZnZEouSl-1zQLcLan-34" value="" style="endArrow=open;endFill=1;endSize=12;html=1;rounded=0;exitX=0.11;exitY=0.7;exitDx=0;exitDy=0;exitPerimeter=0;entryX=0.635;entryY=0.085;entryDx=0;entryDy=0;entryPerimeter=0;" edge="1" parent="1">
          <mxGeometry width="160" relative="1" as="geometry">
            <mxPoint x="534.44" y="673" as="sourcePoint" />
            <mxPoint x="534.44" y="700" as="targetPoint" />
          </mxGeometry>
        </mxCell>
        <mxCell id="-NnZnZEouSl-1zQLcLan-35" value="" style="endArrow=open;endFill=1;endSize=12;html=1;rounded=0;exitX=0.11;exitY=0.7;exitDx=0;exitDy=0;exitPerimeter=0;entryX=0.635;entryY=0.085;entryDx=0;entryDy=0;entryPerimeter=0;" edge="1" parent="1">
          <mxGeometry width="160" relative="1" as="geometry">
            <mxPoint x="324.44" y="743" as="sourcePoint" />
            <mxPoint x="324.44" y="770" as="targetPoint" />
          </mxGeometry>
        </mxCell>
        <mxCell id="-NnZnZEouSl-1zQLcLan-36" value="" style="endArrow=open;endFill=1;endSize=12;html=1;rounded=0;exitX=0.11;exitY=0.7;exitDx=0;exitDy=0;exitPerimeter=0;entryX=0.635;entryY=0.085;entryDx=0;entryDy=0;entryPerimeter=0;" edge="1" parent="1">
          <mxGeometry width="160" relative="1" as="geometry">
            <mxPoint x="430" y="743" as="sourcePoint" />
            <mxPoint x="430" y="770" as="targetPoint" />
            <Array as="points">
              <mxPoint x="430.56" y="770" />
            </Array>
          </mxGeometry>
        </mxCell>
        <mxCell id="-NnZnZEouSl-1zQLcLan-37" value="" style="endArrow=open;endFill=1;endSize=12;html=1;rounded=0;exitX=0.11;exitY=0.7;exitDx=0;exitDy=0;exitPerimeter=0;entryX=0.635;entryY=0.085;entryDx=0;entryDy=0;entryPerimeter=0;" edge="1" parent="1">
          <mxGeometry width="160" relative="1" as="geometry">
            <mxPoint x="530" y="743" as="sourcePoint" />
            <mxPoint x="530" y="770" as="targetPoint" />
          </mxGeometry>
        </mxCell>
        <mxCell id="-NnZnZEouSl-1zQLcLan-38" value="" style="endArrow=open;endFill=1;endSize=12;html=1;rounded=0;exitX=0.11;exitY=0.7;exitDx=0;exitDy=0;exitPerimeter=0;entryX=0.635;entryY=0.085;entryDx=0;entryDy=0;entryPerimeter=0;" edge="1" parent="1">
          <mxGeometry width="160" relative="1" as="geometry">
            <mxPoint x="214.44" y="743" as="sourcePoint" />
            <mxPoint x="214.44" y="770" as="targetPoint" />
            <Array as="points">
              <mxPoint x="215" y="760" />
            </Array>
          </mxGeometry>
        </mxCell>
        <mxCell id="-NnZnZEouSl-1zQLcLan-40" value="" style="endArrow=open;endFill=1;endSize=12;html=1;rounded=0;exitX=0.11;exitY=0.7;exitDx=0;exitDy=0;exitPerimeter=0;entryX=0.635;entryY=0.085;entryDx=0;entryDy=0;entryPerimeter=0;" edge="1" parent="1">
          <mxGeometry width="160" relative="1" as="geometry">
            <mxPoint x="110" y="743" as="sourcePoint" />
            <mxPoint x="110" y="770" as="targetPoint" />
          </mxGeometry>
        </mxCell>
        <mxCell id="-NnZnZEouSl-1zQLcLan-42" style="edgeStyle=orthogonalEdgeStyle;rounded=0;orthogonalLoop=1;jettySize=auto;html=1;exitX=1;exitY=0.5;exitDx=0;exitDy=0;entryX=-0.091;entryY=0.536;entryDx=0;entryDy=0;entryPerimeter=0;" edge="1" parent="1" source="-NnZnZEouSl-1zQLcLan-7">
          <mxGeometry relative="1" as="geometry">
            <mxPoint x="499.99" y="476.98" as="targetPoint" />
          </mxGeometry>
        </mxCell>
        <mxCell id="-NnZnZEouSl-1zQLcLan-43" value="[no tiene cuenta]" style="text;html=1;align=center;verticalAlign=middle;resizable=0;points=[];autosize=1;strokeColor=none;fillColor=none;" vertex="1" parent="1">
          <mxGeometry x="390" y="438" width="110" height="30" as="geometry" />
        </mxCell>
        <mxCell id="-NnZnZEouSl-1zQLcLan-44" value="" style="html=1;whiteSpace=wrap;aspect=fixed;shape=isoRectangle;" vertex="1" parent="1">
          <mxGeometry x="501.65999999999997" y="457.5" width="66.67" height="40" as="geometry" />
        </mxCell>
        <mxCell id="-NnZnZEouSl-1zQLcLan-47" style="edgeStyle=orthogonalEdgeStyle;rounded=0;orthogonalLoop=1;jettySize=auto;html=1;exitX=0;exitY=0.5;exitDx=0;exitDy=0;entryX=1;entryY=0.75;entryDx=0;entryDy=0;" edge="1" parent="1" source="-NnZnZEouSl-1zQLcLan-45" target="-NnZnZEouSl-1zQLcLan-7">
          <mxGeometry relative="1" as="geometry">
            <mxPoint x="380" y="480" as="targetPoint" />
            <Array as="points">
              <mxPoint x="460" y="548" />
              <mxPoint x="460" y="491" />
            </Array>
          </mxGeometry>
        </mxCell>
        <mxCell id="-NnZnZEouSl-1zQLcLan-45" value="Crear Cuenta" style="rounded=1;whiteSpace=wrap;html=1;" vertex="1" parent="1">
          <mxGeometry x="480" y="530" width="110" height="55" as="geometry" />
        </mxCell>
        <mxCell id="-NnZnZEouSl-1zQLcLan-46" value="" style="endArrow=open;endFill=1;endSize=12;html=1;rounded=0;exitX=0.515;exitY=0.987;exitDx=0;exitDy=0;exitPerimeter=0;entryX=0.5;entryY=0;entryDx=0;entryDy=0;" edge="1" parent="1" source="-NnZnZEouSl-1zQLcLan-44" target="-NnZnZEouSl-1zQLcLan-45">
          <mxGeometry width="160" relative="1" as="geometry">
            <mxPoint x="390" y="610" as="sourcePoint" />
            <mxPoint x="540" y="520" as="targetPoint" />
          </mxGeometry>
        </mxCell>
        <mxCell id="-NnZnZEouSl-1zQLcLan-48" value="" style="endArrow=open;endFill=1;endSize=12;html=1;rounded=0;exitX=0.998;exitY=0.487;exitDx=0;exitDy=0;exitPerimeter=0;entryX=0.5;entryY=0;entryDx=0;entryDy=0;" edge="1" parent="1" source="-NnZnZEouSl-1zQLcLan-44" target="-NnZnZEouSl-1zQLcLan-11">
          <mxGeometry width="160" relative="1" as="geometry">
            <mxPoint x="390" y="620" as="sourcePoint" />
            <mxPoint x="550" y="620" as="targetPoint" />
            <Array as="points">
              <mxPoint x="840" y="477" />
            </Array>
          </mxGeometry>
        </mxCell>
      </root>
    </mxGraphModel>
  </diagram>
</mxfile>
